<svg xmlns="http://www.w3.org/2000/svg" xmlns:xlink="http://www.w3.org/1999/xlink" style="display: none">
    <symbol viewBox="0 0 192 192" id="icon-numbered-view">
        <line id="f4028e8e-8446-41a2-8b39-5516135d53c3" data-name="&lt;Pfad&gt;" x1="172" y1="44" x2="76" y2="44"
              fill="none" stroke-linecap="round" stroke-miterlimit="10" stroke-width="8"/>
        <line id="28d13287-8f94-40ff-8472-6e40f4c13538" data-name="&lt;Pfad&gt;" x1="172" y1="96" x2="76" y2="96"
              fill="none" stroke-linecap="round" stroke-miterlimit="10" stroke-width="8"/>
        <rect width="192" height="192" fill="none"/>
        <line id="c61ad2fd-4810-48f8-b1ef-3bda8ada6063" data-name="&lt;Pfad&gt;" x1="172" y1="148" x2="76" y2="148"
              fill="none" stroke-linecap="round" stroke-miterlimit="10" stroke-width="8"/>
        <path d="M43.67,143.47a8.91,8.91,0,0,1,1.67-.16c4.23,0,7.66,2.94,7.66,6.56s-3.43,7-7.66,7a7.15,7.15,0,0,1-6.34-3.5"
              fill="none" stroke-linecap="round" stroke-linejoin="round" stroke-width="8"/>
        <polyline points="39 135 52.13 135 43.65 143.47" fill="none" stroke-linecap="round"
                  stroke-linejoin="round" stroke-width="8"/>
        <polyline points="40 39.5 48 34 48 55.5" fill="none" stroke-linecap="round"
                  stroke-linejoin="round"
                  stroke-width="8"/>
        <path d="M50,95.1a5.08,5.08,0,0,0,2.07-4c0-3-2.82-5.76-6.3-5.76a5.89,5.89,0,0,0-5.22,2.88" fill="none"
              stroke-linecap="round" stroke-linejoin="round" stroke-width="8"/>
        <path d="M53,107H40a7.11,7.11,0,0,1,2.46-5.38L50.09,95" fill="none" stroke-linecap="round"
              stroke-linejoin="round" stroke-width="8"/>
    </symbol>
    <symbol viewBox="0 0 192 192" id="icon-grid-view">
        <g id="bca000e9-3d75-4621-97b1-d411ab198a0a" data-name="Grid_view">
            <rect width="192" height="192" fill="none"/>
            <rect x="108" y="44" width="40" height="40" rx="8" ry="8" fill="none" stroke-linecap="round"
                  stroke-miterlimit="10" stroke-width="8"/>
            <rect x="44" y="44" width="40" height="40" rx="8" ry="8" fill="none" stroke-linecap="round"
                  stroke-miterlimit="10" stroke-width="8"/>
            <rect x="108" y="108" width="40" height="40" rx="8" ry="8" fill="none" stroke-linecap="round"
                  stroke-miterlimit="10" stroke-width="8"/>
            <rect x="44" y="108" width="40" height="40" rx="8" ry="8" fill="none" stroke-linecap="round"
                  stroke-miterlimit="10" stroke-width="8"/>
        </g>
    </symbol>
    <symbol id="icon-play-circle" viewBox="0 0 192 192">
        <g id="a75e524c-94fc-4e7c-85c1-0cb977d717f8" data-name="Play_circle_ic">
            <path d="M68,55.71v80.23A7,7,0,0,0,74.6,143,6.83,6.83,0,0,0,79,141.58l1-.71,51.53-38.16,1.52-1.13a6.67,6.67,0,0,0,0-11.19l-1.46-1.1-51.38-38c-2.14-1.75-4.8-3-7.89-1.67A7.29,7.29,0,0,0,68,56.29v.54"
                  transform="translate(0)" fill="none" stroke="#333" stroke-linecap="round" stroke-linejoin="round"
                  stroke-width="8"/>
            <circle cx="96" cy="96" r="76" fill="none" stroke="#333" stroke-linecap="round" stroke-linejoin="round"
                    stroke-width="8"/>
        </g>
    </symbol>
</svg>
