<svg id="50091953-3a15-4e54-bb1c-3d34b65f2afc" data-name="ICON" xmlns="http://www.w3.org/2000/svg" width="192" height="192" viewBox="0 0 192 192"><title>Zeichenfläche 1</title><rect width="192" height="192" fill="none"/><path d="M122,98h14v12a9.56,9.56,0,0,1-7,9.5c-8.28,2.26-25,3.73-25-23.5,0-29.5,26.56-25.9,30.5-18.5" fill="none" stroke="#333" stroke-linecap="round" stroke-linejoin="round" stroke-width="8"/><circle cx="96" cy="96" r="76" fill="none" stroke="#333" stroke-miterlimit="10" stroke-width="8"/><path d="M79.36,93.47a11.38,11.38,0,0,0,4.64-9c0-6.68-6.32-12.9-14.11-12.9a13.19,13.19,0,0,0-11.69,6.45" fill="none" stroke="#333" stroke-linecap="round" stroke-linejoin="round" stroke-width="8"/><path d="M86.13,120.11H57a15.93,15.93,0,0,1,5.5-12l17.09-14.8" fill="none" stroke="#333" stroke-linecap="round" stroke-linejoin="round" stroke-width="8"/></svg>