<svg id="98ec566d-6c41-4fb5-aae0-b03dc8250b17" data-name="ICON" xmlns="http://www.w3.org/2000/svg" width="192" height="192" viewBox="0 0 192 192"><title>360-view</title><rect width="192" height="192" fill="none"/><path d="M165.86,86.87C170.44,90.71,173,95,173,99.5c0,16.55-34.44,30-76.93,30-3.67,0-9.09.19-12.63,0" fill="none" stroke="#333" stroke-linecap="round" stroke-linejoin="round" stroke-width="8"/><path d="M65,126.92c-27-4.65-45.83-15.18-45.83-27.42,0-8,8-15.25,21.13-20.63" fill="none" stroke="#333" stroke-linecap="round" stroke-linejoin="round" stroke-width="8"/><polyline points="98.18 144.2 83.44 129.47 98.18 114.73" fill="none" stroke="#333" stroke-linecap="round" stroke-linejoin="round" stroke-width="8"/><path d="M52,63.4H71.5S62,73.4,60,78.9h2c6.6,0,11.5,3.9,11.5,10.5h0c0,6.6-4.9,11-11.5,11h0a20.13,20.13,0,0,1-10.19-3" fill="none" stroke="#333" stroke-linecap="round" stroke-linejoin="round" stroke-width="8"/><path d="M106,63.4C96,63.9,88.35,72,87,81.9c-1.38,10.12.78,18.5,11,18.5,0,0,9.93.55,9-13-1-14.5-20-5.5-20-5.5" fill="none" stroke="#333" stroke-linecap="round" stroke-linejoin="round" stroke-width="8"/><path d="M142,81.7c0,10.33-3.5,18.7-11.5,18.7C123,100.4,119,92,119,81.7S123,63,130.5,63,142,71.37,142,81.7Z" fill="none" stroke="#333" stroke-linecap="round" stroke-linejoin="round" stroke-width="8"/><circle cx="160.5" cy="69.4" r="6" fill="none" stroke="#333" stroke-linecap="round" stroke-linejoin="round" stroke-width="8"/></svg>