<svg id="1847e519-dea5-4958-8c63-6b745df85b7b" data-name="ICON" xmlns="http://www.w3.org/2000/svg" width="192" height="192" viewBox="0 0 192 192"><title>3g</title><rect width="192" height="192" fill="none"/><path d="M66.68,91.36A20.38,20.38,0,0,1,70.5,91C80.16,91,88,97.72,88,106s-7.84,16-17.5,16A16.35,16.35,0,0,1,56,114" transform="translate(0 0)" fill="none" stroke="#333" stroke-linecap="round" stroke-linejoin="round" stroke-width="8"/><polyline points="56 72 86 72 66.63 91.37" fill="none" stroke="#333" stroke-linecap="round" stroke-linejoin="round" stroke-width="8"/><path d="M122,98h14v12a9.56,9.56,0,0,1-7,9.5c-8.28,2.26-25,3.73-25-23.5,0-29.5,26.56-25.9,30.5-18.5" transform="translate(0 0)" fill="none" stroke="#333" stroke-linecap="round" stroke-linejoin="round" stroke-width="8"/><circle cx="96" cy="96" r="76" fill="none" stroke="#333" stroke-miterlimit="10" stroke-width="8"/></svg>