<svg id="c647ca4a-be04-4488-b651-97e2c790418e" data-name="ICON" xmlns="http://www.w3.org/2000/svg" width="192" height="192" viewBox="0 0 192 192"><title>4g-plus-plus</title><rect width="192" height="192" fill="none"/><path d="M90.83,97.1H103v10.4a8.29,8.29,0,0,1-6.07,8.23c-7.17,2-21.67,3.23-21.67-20.37,0-25.57,23-22.44,26.43-16" transform="translate(0 0)" fill="none" stroke="#333" stroke-linecap="round" stroke-linejoin="round" stroke-width="8"/><line x1="57.03" y1="75.67" x2="57.03" y2="117.2" fill="none" stroke="#333" stroke-linecap="round" stroke-linejoin="round" stroke-width="8"/><polyline points="63.97 105.07 34.5 105.07 57.03 75.67" fill="none" stroke="#333" stroke-linecap="round" stroke-linejoin="round" stroke-width="8"/><line x1="114" y1="96" x2="130" y2="96" fill="none" stroke="#333" stroke-linecap="round" stroke-linejoin="round" stroke-width="8"/><line x1="122" y1="88" x2="122" y2="104" fill="none" stroke="#333" stroke-linecap="round" stroke-linejoin="round" stroke-width="8"/><line x1="141.9" y1="96" x2="157.9" y2="96" fill="none" stroke="#333" stroke-linecap="round" stroke-linejoin="round" stroke-width="8"/><line x1="149.9" y1="88" x2="149.9" y2="104" fill="none" stroke="#333" stroke-linecap="round" stroke-linejoin="round" stroke-width="8"/><circle cx="96" cy="96" r="76" fill="none" stroke="#333" stroke-miterlimit="10" stroke-width="8"/><rect width="192" height="192" fill="none"/></svg>