<svg xmlns="http://www.w3.org/2000/svg" width="192" height="192" viewBox="0 0 192 192"><title>alarm-system</title><g id="71e81df8-83ed-49d4-bf15-4bc1fe1613bc" data-name="ICON"><g id="1c26e050-1412-4dd2-9b06-fd39cd234524" data-name="SIM_ic"><path id="fd1ba51f-c3bb-4729-bc5d-7382b4371f11" data-name="68faea70-de1c-4ed4-abc7-939342b292b1" d="M156,92h16L156,75.88V28H132V52L104.94,23.35c-4.28-4.56-13.78-4.38-17.88,0L20,92H36v72a8,8,0,0,0,8,8H146.12c4.42,0,9.88-4.58,9.88-9V92" fill="none" stroke="#333" stroke-linecap="round" stroke-linejoin="round" stroke-width="8"/><rect width="192" height="192" fill="none"/><path d="M85.05,105.18a17.5,17.5,0,0,0,0,24.78" fill="none" stroke="#333" stroke-linecap="round" stroke-linejoin="round" stroke-width="8"/><path d="M74.93,96.33a30,30,0,0,0,0,42.47" fill="none" stroke="#333" stroke-linecap="round" stroke-linejoin="round" stroke-width="8"/><path d="M64.82,87.48a42.5,42.5,0,0,0,0,60.17" fill="none" stroke="#333" stroke-linecap="round" stroke-linejoin="round" stroke-width="8"/><path d="M106.95,105.18a17.5,17.5,0,0,1,0,24.78" fill="none" stroke="#333" stroke-linecap="round" stroke-linejoin="round" stroke-width="8"/><path d="M117.07,96.33a30,30,0,0,1,0,42.47" fill="none" stroke="#333" stroke-linecap="round" stroke-linejoin="round" stroke-width="8"/><path d="M127.18,87.48a42.5,42.5,0,0,1,0,60.17" fill="none" stroke="#333" stroke-linecap="round" stroke-linejoin="round" stroke-width="8"/><circle cx="96" cy="117.46" r="3.45" fill="none" stroke="#333" stroke-linecap="round" stroke-linejoin="round" stroke-width="8"/><circle cx="96" cy="117.46" r="2.3" fill="none" stroke="#333" stroke-linecap="round" stroke-linejoin="round" stroke-width="8"/></g></g></svg>