<svg id="3e80b694-d505-4621-a01c-54df5a14749b" data-name="ICON" xmlns="http://www.w3.org/2000/svg" width="192" height="192" viewBox="0 0 192 192"><title>all-rewards</title><rect width="192" height="192" fill="none"/><polyline points="28.21 68.71 96.17 100.83 164 68.71" fill="none" stroke="#333" stroke-linecap="round" stroke-linejoin="round" stroke-width="8"/><polyline points="133.12 154.63 133.12 83.03 96.17 65.45 59.21 83.03 59.21 154.63" fill="none" stroke="#333" stroke-linecap="round" stroke-linejoin="round" stroke-width="8"/><path d="M135.7,50.92c-7.69,6.41-40,14.34-40,14.34S108.92,39.08,116,32s17.39-8.51,24-3C146,34,144,44,135.7,50.92Z" fill="none" stroke="#333" stroke-linejoin="round" stroke-width="8"/><path d="M56.3,50.92c7.69,6.41,40,14.34,40,14.34S83.08,39.08,76,32s-17.39-8.51-24-3C46,34,48,44,56.3,50.92Z" fill="none" stroke="#333" stroke-linejoin="round" stroke-width="8"/><line x1="96.17" y1="100.83" x2="96.17" y2="170.51" fill="none" stroke="#333" stroke-linecap="round" stroke-linejoin="round" stroke-width="8"/><polyline points="164 68.81 164 140.2 96.17 172.33 28.21 140.2 28.21 68.81 28.21 68.71 84 42 96 36 108 42 164 68.71" fill="none" stroke="#333" stroke-linecap="round" stroke-linejoin="round" stroke-width="8"/></svg>