<svg id="a237eb1d-438d-4648-8531-cba3ed7ab253" data-name="ICON" xmlns="http://www.w3.org/2000/svg" width="192" height="192" viewBox="0 0 192 192"><title>android</title><g id="cbd7740a-bcc2-44d4-a9f6-8a9d610f8ab2" data-name="Android_ic"><path d="M0,0H192V192H0Z" transform="translate(0 0)" fill="none"/><path d="M60,132a6,6,0,0,0,6,6h6v21a9,9,0,0,0,18,0V138h12v21a9,9,0,0,0,18,0V138h6a6,6,0,0,0,6-6V72H60ZM45,72a9,9,0,0,0-9,9v42a9,9,0,0,0,18,0V81A9,9,0,0,0,45,72Zm102,0a9,9,0,0,0-9,9v42a9,9,0,0,0,18,0V81A9,9,0,0,0,147,72ZM117.18,37l7.8-7.8a3,3,0,1,0-4.26-4.26l-8.88,8.88A35,35,0,0,0,96,30a35.54,35.54,0,0,0-16,3.78L71.1,24.9a3,3,0,1,0-4.26,4.26L74.7,37A35.9,35.9,0,0,0,60,66h72A35.79,35.79,0,0,0,117.18,37ZM84,54H78V48h6Zm30,0h-6V48h6Z" transform="translate(0 0)" fill="#333"/></g></svg>