<svg id="788f8c59-88b2-4262-a2c0-3ee90d8fd5ac" data-name="ICON" xmlns="http://www.w3.org/2000/svg" width="192" height="192" viewBox="0 0 192 192"><title>APP_mediatheken</title><path id="b6b4a398-abdd-40d2-ac22-bbddba9c2118" data-name="&lt;Pfad&gt;" d="M152,22.94" fill="none" stroke="#333" stroke-linecap="round" stroke-linejoin="round" stroke-width="8"/><path id="c88e26e2-feb4-4162-832b-acd1b9875a61" data-name="&lt;Pfad&gt;" d="M152,23.47" fill="none" stroke="#333" stroke-linecap="round" stroke-linejoin="round" stroke-width="8"/><path d="M127.07,82" fill="none" stroke="#333" stroke-linecap="round" stroke-linejoin="round" stroke-width="8"/><rect x="68" y="44" width="16" height="24" rx="2" ry="2" fill="none" stroke="#333" stroke-miterlimit="10" stroke-width="8"/><rect x="100" y="44" width="16" height="24" rx="2" ry="2" fill="none" stroke="#333" stroke-miterlimit="10" stroke-width="8"/><polyline points="48 44 36 56 48 68" fill="none" stroke="#333" stroke-linecap="round" stroke-linejoin="round" stroke-width="8"/><polyline points="136 44 148 56 136 68" fill="none" stroke="#333" stroke-linecap="round" stroke-linejoin="round" stroke-width="8"/><line id="32cd5546-9faa-48b9-b4c1-5108496542bf" data-name="b493255f-edd2-469b-8f82-6d8f944da046" x1="103.37" y1="108" x2="80.63" y2="108" fill="none" stroke="#333" stroke-linecap="round" stroke-miterlimit="10" stroke-width="8"/><path d="M113,124H31.37C25.09,124,20,118.63,20,112V32c0-6.63,5.09-12,11.37-12H152.63C158.91,20,164,25.37,164,32V81.81" fill="none" stroke="#333" stroke-linecap="round" stroke-linejoin="round" stroke-width="8"/><g id="7ddae03a-ce71-49f7-a19e-f4e794e60541" data-name="39bbb6be-0d7a-4bfa-8252-1f40bf874658"><line x1="137.79" y1="156" x2="150.74" y2="156" fill="none" stroke="#333" stroke-linecap="round" stroke-linejoin="round" stroke-width="8"/><path d="M123.64,84h40.73c4.22,0,7.64,3.11,7.64,6.95v74.11c0,3.84-3.42,6.95-7.64,6.95H123.64c-4.22,0-7.64-3.11-7.64-6.95V90.95C116,87.11,119.42,84,123.64,84Z" fill="none" stroke="#333" stroke-linecap="round" stroke-linejoin="round" stroke-width="8"/></g><rect width="192" height="192" fill="none"/></svg>