<svg id="8cbd1760-8e8a-40e4-96eb-28747e3d54c4" data-name="ICON" xmlns="http://www.w3.org/2000/svg" width="192" height="192" viewBox="0 0 192 192"><title>APP_restart</title><path id="12153613-1c9d-4d4a-879b-1191e8e92342" data-name="&lt;Pfad&gt;" d="M152,22.94" fill="none" stroke="#333" stroke-linecap="round" stroke-linejoin="round" stroke-width="8"/><path id="2b504a65-f87b-4806-9649-637f8980591c" data-name="&lt;Pfad&gt;" d="M152,23.47" fill="none" stroke="#333" stroke-linecap="round" stroke-linejoin="round" stroke-width="8"/><path d="M52,65" fill="none" stroke="#333" stroke-linecap="round" stroke-linejoin="round" stroke-width="8"/><polyline points="35.6 63.23 44.21 71.83 52.82 63.23" fill="none" stroke="#333" stroke-linecap="round" stroke-linejoin="round" stroke-width="8"/><path d="M52.32,83.91a28.17,28.17,0,1,0-8.22-18.7" fill="none" stroke="#333" stroke-linecap="round" stroke-linejoin="round" stroke-width="8"/><line x1="82" y1="124" x2="92" y2="124" fill="none" stroke="#333" stroke-linecap="round" stroke-linejoin="round" stroke-width="8"/><line id="88c17c13-761f-4507-813c-aaaada76d9cd" data-name="b493255f-edd2-469b-8f82-6d8f944da046" x1="103.37" y1="108" x2="80.63" y2="108" fill="none" stroke="#333" stroke-linecap="round" stroke-miterlimit="10" stroke-width="8"/><path d="M113,124H31.37C25.09,124,20,118.63,20,112V32c0-6.63,5.09-12,11.37-12H152.63C158.91,20,164,25.37,164,32V81.81" fill="none" stroke="#333" stroke-linecap="round" stroke-linejoin="round" stroke-width="8"/><g id="93c42102-a0c0-4229-a6d6-5657c5b73564" data-name="39bbb6be-0d7a-4bfa-8252-1f40bf874658"><line x1="137.79" y1="156" x2="150.74" y2="156" fill="none" stroke="#333" stroke-linecap="round" stroke-linejoin="round" stroke-width="8"/><path d="M123.64,84h40.73c4.22,0,7.64,3.11,7.64,6.95v74.11c0,3.84-3.42,6.95-7.64,6.95H123.64c-4.22,0-7.64-3.11-7.64-6.95V90.95C116,87.11,119.42,84,123.64,84Z" fill="none" stroke="#333" stroke-linecap="round" stroke-linejoin="round" stroke-width="8"/></g><rect width="192" height="192" fill="none"/></svg>