<svg id="5f46cff8-30f4-43dd-aeb3-ce3a1a760bff" data-name="ICON" xmlns="http://www.w3.org/2000/svg" width="192" height="192" viewBox="0 0 192 192"><title>APP_Channel_variety</title><path d="M83.74,81.33" fill="none" stroke="#333" stroke-linecap="round" stroke-linejoin="round" stroke-width="8"/><path d="M83.74,81.33" fill="none" stroke="#333" stroke-linecap="round" stroke-linejoin="round" stroke-width="8"/><path d="M60,73.72v28.43a2.47,2.47,0,0,0,2.33,2.5,2.4,2.4,0,0,0,1.55-.49l.34-.24L82.4,90.39l.54-.4a2.37,2.37,0,0,0,0-4l-.52-.39L64.28,72.15A2.47,2.47,0,0,0,60,73.92v.19" fill="none" stroke="#333" stroke-linecap="round" stroke-linejoin="round" stroke-width="8"/><path d="M150.74,148" fill="none" stroke="#333" stroke-linecap="round" stroke-linejoin="round" stroke-width="8"/><path d="M137.79,148" fill="none" stroke="#333" stroke-linecap="round" stroke-linejoin="round" stroke-width="8"/><path d="M118.74,148" fill="none" stroke="#333" stroke-linecap="round" stroke-linejoin="round" stroke-width="8"/><g id="7e605761-dc89-4b72-932f-45f732c04bb7" data-name="39bbb6be-0d7a-4bfa-8252-1f40bf874658"><line x1="137.79" y1="148" x2="150.74" y2="148" fill="none" stroke="#333" stroke-linecap="round" stroke-linejoin="round" stroke-width="8"/><path d="M123.64,76h40.73c4.22,0,7.64,3.11,7.64,6.95v74.11c0,3.84-3.42,6.95-7.64,6.95H123.64c-4.22,0-7.64-3.11-7.64-6.95V82.95C116,79.11,119.42,76,123.64,76Z" fill="none" stroke="#333" stroke-linecap="round" stroke-linejoin="round" stroke-width="8"/></g><path d="M148.5,76V51.33c0-4.05-3.92-7.33-8-7.33h-7" fill="none" stroke="#333" stroke-linecap="round" stroke-linejoin="round" stroke-width="8"/><path d="M164.35,76V58c0-3.31-3.17-6-6.47-6h-6.23" fill="none" stroke="#333" stroke-linecap="round" stroke-linejoin="round" stroke-width="8"/><path d="M132,76V44.67A8.62,8.62,0,0,0,123.43,36L28.57,44.67A8.62,8.62,0,0,0,20,53.33v69.33a8.62,8.62,0,0,0,8.57,8.67l87.43,8" fill="none" stroke="#333" stroke-linecap="round" stroke-linejoin="round" stroke-width="8"/><rect width="192" height="192" fill="none"/></svg>