<svg id="11115b2b-ce3e-4a6d-9958-9e3e6cb73e3d" data-name="ICON" xmlns="http://www.w3.org/2000/svg" width="192" height="192" viewBox="0 0 192 192"><title>APP_tv_for_you</title><path id="9949146d-c26b-4665-90fb-02decbd63324" data-name="&lt;Pfad&gt;" d="M152,22.94" fill="none" stroke="#333" stroke-linecap="round" stroke-linejoin="round" stroke-width="8"/><path id="60d67f47-bba3-47df-9fe8-daed28dd7cbe" data-name="&lt;Pfad&gt;" d="M152,23.47" fill="none" stroke="#333" stroke-linecap="round" stroke-linejoin="round" stroke-width="8"/><path d="M127.07,82" fill="none" stroke="#333" stroke-linecap="round" stroke-linejoin="round" stroke-width="8"/><path d="M108,76" fill="none" stroke="#333" stroke-linecap="round" stroke-linejoin="round" stroke-width="8"/><path id="c2395922-423c-42d4-9b50-16242d3ed494" data-name="a81263fa-f966-4105-aec6-c72aa5bb390e" d="M116,92c-2.59-18-13.27-26.4-23.86-26.4S70.6,74,68,92" fill="none" stroke="#333" stroke-linecap="round" stroke-linejoin="round" stroke-width="8"/><ellipse id="9ce922c9-31d1-45ae-ab1c-39fe416bf538" data-name="f3f8aabf-e28d-4471-9027-cc0f6d5b2d2d" cx="92" cy="50.8" rx="14.4" ry="14.8" fill="none" stroke="#333" stroke-linecap="round" stroke-linejoin="round" stroke-width="8"/><path d="M48,56.32s11.42-5,12-13.4c.24-3.6-2.48-7.25-6.06-7.25a6.47,6.47,0,0,0-5.29,2.74c-.34.5-.56,0-.63.58-.07-.6-.29-.08-.63-.58a6.47,6.47,0,0,0-5.29-2.74c-3.59,0-6.3,3.64-6.06,7.25.56,8.42,12,13.4,12,13.4" fill="none" stroke="#333" stroke-linecap="round" stroke-linejoin="round" stroke-width="8"/><line x1="82" y1="124" x2="92" y2="124" fill="none" stroke="#333" stroke-linecap="round" stroke-linejoin="round" stroke-width="8"/><line id="e617b0a3-c6c9-4ad0-83c2-227484e4b1b3" data-name="b493255f-edd2-469b-8f82-6d8f944da046" x1="103.37" y1="108" x2="80.63" y2="108" fill="none" stroke="#333" stroke-linecap="round" stroke-miterlimit="10" stroke-width="8"/><path d="M113,124H31.37C25.09,124,20,118.63,20,112V32c0-6.63,5.09-12,11.37-12H152.63C158.91,20,164,25.37,164,32V81.81" fill="none" stroke="#333" stroke-linecap="round" stroke-linejoin="round" stroke-width="8"/><g id="e8cb6fe6-1ec8-413a-9d70-5103336afaf3" data-name="39bbb6be-0d7a-4bfa-8252-1f40bf874658"><line x1="137.79" y1="156" x2="150.74" y2="156" fill="none" stroke="#333" stroke-linecap="round" stroke-linejoin="round" stroke-width="8"/><path d="M123.64,84h40.73c4.22,0,7.64,3.11,7.64,6.95v74.11c0,3.84-3.42,6.95-7.64,6.95H123.64c-4.22,0-7.64-3.11-7.64-6.95V90.95C116,87.11,119.42,84,123.64,84Z" fill="none" stroke="#333" stroke-linecap="round" stroke-linejoin="round" stroke-width="8"/></g><rect width="192" height="192" fill="none"/></svg>