<svg id="0a1914a1-ebe3-433a-ba3e-c24d16222431" data-name="ICON" xmlns="http://www.w3.org/2000/svg" width="192" height="192" viewBox="0 0 192 192"><title>APP_kids</title><circle cx="92" cy="64" r="29" fill="none" stroke="#333" stroke-linecap="round" stroke-linejoin="round" stroke-width="8"/><path id="2f82feb5-83ca-4bf4-93fd-0d27081d018b" data-name="9ab837a9-4307-4537-89ad-55a181532ded" d="M104,71a14.89,14.89,0,0,1-23.89,0" fill="none" stroke="#333" stroke-linecap="round" stroke-linejoin="round" stroke-width="8"/><line id="d5c5608c-2a64-4608-9d8e-6faced1bd53b" data-name="b493255f-edd2-469b-8f82-6d8f944da046" x1="103.37" y1="108" x2="80.63" y2="108" fill="none" stroke="#333" stroke-linecap="round" stroke-miterlimit="10" stroke-width="8"/><path d="M113,124H31.37C25.09,124,20,118.63,20,112V32c0-6.63,5.09-12,11.37-12H152.63C158.91,20,164,25.37,164,32V81.81" fill="none" stroke="#333" stroke-linecap="round" stroke-linejoin="round" stroke-width="8"/><g id="5090b847-3a66-4ee6-b3ac-4d9e14df39e0" data-name="39bbb6be-0d7a-4bfa-8252-1f40bf874658"><line x1="137.79" y1="156" x2="150.74" y2="156" fill="none" stroke="#333" stroke-linecap="round" stroke-linejoin="round" stroke-width="8"/><path d="M123.64,84h40.73c4.22,0,7.64,3.11,7.64,6.95v74.11c0,3.84-3.42,6.95-7.64,6.95H123.64c-4.22,0-7.64-3.11-7.64-6.95V90.95C116,87.11,119.42,84,123.64,84Z" fill="none" stroke="#333" stroke-linecap="round" stroke-linejoin="round" stroke-width="8"/></g><line x1="84" y1="56" x2="84" y2="56" fill="none" stroke="#333" stroke-linecap="round" stroke-linejoin="round" stroke-width="8"/><line x1="100" y1="56" x2="100" y2="56" fill="none" stroke="#333" stroke-linecap="round" stroke-linejoin="round" stroke-width="8"/><rect width="192" height="192" fill="none"/></svg>