<svg id="207367b2-5467-4c22-a880-0ae02661abb7" data-name="ICON" xmlns="http://www.w3.org/2000/svg" width="192" height="192" viewBox="0 0 192 192"><title>APP_discovery</title><path id="d337e41d-4e9b-40e2-ae60-fd01b8bc7bea" data-name="&lt;Pfad&gt;" d="M152,22.94" fill="none" stroke="#333" stroke-linecap="round" stroke-linejoin="round" stroke-width="8"/><path id="a06a3b12-7bf8-43d1-90d1-15bbaa3146f8" data-name="&lt;Pfad&gt;" d="M152,23.47" fill="none" stroke="#333" stroke-linecap="round" stroke-linejoin="round" stroke-width="8"/><path d="M52,71" fill="none" stroke="#333" stroke-linecap="round" stroke-linejoin="round" stroke-width="8"/><path d="M127.07,82" fill="none" stroke="#333" stroke-linecap="round" stroke-linejoin="round" stroke-width="8"/><path d="M52,65" fill="none" stroke="#333" stroke-linecap="round" stroke-linejoin="round" stroke-width="8"/><path d="M122.29,44.21" fill="none" stroke="#333" stroke-linecap="round" stroke-linejoin="round" stroke-width="8"/><g id="eaf6788c-6584-4001-9932-1638a4012273" data-name="c2595f44-f93f-43ec-b759-a0b973203da5"><path id="494368a5-fbc4-4237-b1a6-330db09b2aa0" data-name="6912a2de-4b2f-4be4-a6f8-6996f9d1e9f1" d="M92,91.37c-27.1,0-39.36-25.27-39.83-26.43a3.26,3.26,0,0,1,0-2.11C52.64,61.89,64.9,36.63,92,36.63s39.36,25.27,39.83,26.43a3.26,3.26,0,0,1,0,2.11C131.36,66.11,119.1,91.37,92,91.37Z" fill="none" stroke="#333" stroke-linecap="round" stroke-linejoin="round" stroke-width="8"/><path id="15d93713-f335-4b1c-8ad4-4de8e838f1e9" data-name="f8a4c271-6901-4a56-ba85-ea4dbe37ea73" d="M92,76a11.95,11.95,0,1,1,.1,0Z" fill="none" stroke="#333" stroke-linecap="round" stroke-linejoin="round" stroke-width="8"/></g><line id="f6522807-5f4f-4e34-a9e7-b3af724ab8cf" data-name="b493255f-edd2-469b-8f82-6d8f944da046" x1="103.37" y1="108" x2="80.63" y2="108" fill="none" stroke="#333" stroke-linecap="round" stroke-miterlimit="10" stroke-width="8"/><path d="M113,124H31.37C25.09,124,20,118.63,20,112V32c0-6.63,5.09-12,11.37-12H152.63C158.91,20,164,25.37,164,32V81.81" fill="none" stroke="#333" stroke-linecap="round" stroke-linejoin="round" stroke-width="8"/><g id="972e63d9-22a4-405f-a0af-703c2380a6c6" data-name="39bbb6be-0d7a-4bfa-8252-1f40bf874658"><line x1="137.79" y1="156" x2="150.74" y2="156" fill="none" stroke="#333" stroke-linecap="round" stroke-linejoin="round" stroke-width="8"/><path d="M123.64,84h40.73c4.22,0,7.64,3.11,7.64,6.95v74.11c0,3.84-3.42,6.95-7.64,6.95H123.64c-4.22,0-7.64-3.11-7.64-6.95V90.95C116,87.11,119.42,84,123.64,84Z" fill="none" stroke="#333" stroke-linecap="round" stroke-linejoin="round" stroke-width="8"/></g><rect width="192" height="192" fill="none"/></svg>