<svg id="1b68b9d0-e0e0-49f1-b583-ed590f92c8bc" data-name="ICON" xmlns="http://www.w3.org/2000/svg" width="192" height="192" viewBox="0 0 192 192"><title>APP_swipe_to_TV</title><path d="M67.56,64.94" fill="none" stroke="#333" stroke-linecap="round" stroke-linejoin="round" stroke-width="8"/><polyline points="47.5 43.5 68.5 43.5 68.5 64.5" fill="none" stroke="#333" stroke-linecap="round" stroke-linejoin="round" stroke-width="8"/><path d="M57.79,115.43l-14.25-27a6.09,6.09,0,0,1,2.56-8.24h0a6.12,6.12,0,0,1,8.26,2.55l22.81,43.17" fill="none" stroke="#333" stroke-linecap="round" stroke-linejoin="round" stroke-width="8"/><path d="M47,121.12l-2.85-5.4a6.09,6.09,0,0,1,2.56-8.24h0A6.12,6.12,0,0,1,54.94,110l2.85,5.4" fill="none" stroke="#333" stroke-linecap="round" stroke-linejoin="round" stroke-width="8"/><path d="M39,132.2l-2.85-5.4a6.09,6.09,0,0,1,2.56-8.24h0A6.12,6.12,0,0,1,47,121.12" fill="none" stroke="#333" stroke-linecap="round" stroke-linejoin="round" stroke-width="8"/><path d="M71.46,115.13l2.7-1.42a9.18,9.18,0,0,1,12.39,3.83L93.67,131a24.38,24.38,0,0,1-10.22,33l-10.81,5.69a24.47,24.47,0,0,1-33-10.2l-11.4-21.58a6.09,6.09,0,0,1,2.56-8.24h0A6.12,6.12,0,0,1,39,132.2" fill="none" stroke="#333" stroke-linecap="round" stroke-linejoin="round" stroke-width="8"/><rect x="83.97" y="28" width="88" height="56" rx="8" ry="8" fill="none" stroke="#333" stroke-linecap="round" stroke-linejoin="round" stroke-width="8"/><line x1="104" y1="100" x2="152" y2="100" fill="none" stroke="#333" stroke-linecap="round" stroke-linejoin="round" stroke-width="8"/><line x1="128" y1="88.5" x2="128" y2="99.5" fill="none" stroke="#333" stroke-linecap="round" stroke-linejoin="round" stroke-width="8"/><line x1="64.28" y1="47.51" x2="48.72" y2="63.07" fill="none" stroke="#333" stroke-linecap="round" stroke-linejoin="round" stroke-width="8"/><rect width="192" height="192" fill="none"/></svg>