<svg id="d0a047cb-3336-4be4-bdf9-cd7c16286b1e" data-name="ICON" xmlns="http://www.w3.org/2000/svg" width="192" height="192" viewBox="0 0 192 192"><title>APP_cloud_DVR</title><path d="M69.41,50" fill="none" stroke="#333" stroke-linecap="round" stroke-linejoin="round" stroke-width="8"/><path d="M20.28,119.12" fill="none" stroke="#333" stroke-linecap="round" stroke-linejoin="round" stroke-width="8"/><path d="M135.89,148s5.35.19,13.64-3.18c12.57-5.11,20.94-18.19,22.28-31.69a34.91,34.91,0,0,0-15.94-33.23c-5.6-3.49-12.15-4.9-18.7-5.48a77.11,77.11,0,0,0-11.18.51,44.66,44.66,0,0,0-4.26-9.57c-7.11-11.95-20.27-20.21-33.65-21.25A42.37,42.37,0,0,0,52.35,59.37,44.66,44.66,0,0,0,43.44,77c-.43,1.71-1.28,6.49-1.28,6.49A33.37,33.37,0,0,0,30.3,90.33c-10.51,9.49-13.07,25.08-7.19,37.84C28.45,139.75,39.55,148,52.31,148h83.58Z" fill="none" stroke="#333" stroke-linecap="round" stroke-linejoin="round" stroke-width="8"/><path d="M60,98.27v27.33a2.41,2.41,0,0,0,2.33,2.4,2.47,2.47,0,0,0,1.55-.47l.34-.24,18.18-13,.54-.39a2.22,2.22,0,0,0,.67-3.15,2.33,2.33,0,0,0-.69-.66l-.52-.37-18.12-13a2.64,2.64,0,0,0-2.78-.57A2.48,2.48,0,0,0,60,98.46v.18" fill="none" stroke="#333" stroke-linecap="round" stroke-linejoin="round" stroke-width="8"/><line x1="115.74" y1="96" x2="115.74" y2="128" fill="none" stroke="#333" stroke-linecap="round" stroke-linejoin="round" stroke-width="8"/><line x1="131.74" y1="96" x2="131.74" y2="128" fill="none" stroke="#333" stroke-linecap="round" stroke-linejoin="round" stroke-width="8"/><path d="M134.81,102" fill="none" stroke="#333" stroke-linecap="round" stroke-linejoin="round" stroke-width="8"/><rect width="192" height="192" fill="none"/></svg>