<svg id="db3e77bf-f0da-43d8-830f-0f19de94c2f1" data-name="ICON" xmlns="http://www.w3.org/2000/svg" width="192" height="192" viewBox="0 0 192 192"><title>APP_Channel_Management</title><path id="53849b33-2b02-4cab-b50f-4660c9e36fd8" data-name="&lt;Pfad&gt;" d="M152,22.94" fill="none" stroke="#333" stroke-linecap="round" stroke-linejoin="round" stroke-width="8"/><path id="f9370b04-6985-4b6b-9f05-ea68559c487e" data-name="&lt;Pfad&gt;" d="M20.07,81.17" fill="none" stroke="#333" stroke-linecap="round" stroke-linejoin="round" stroke-width="8"/><path d="M40,23" fill="#666" stroke="#333" stroke-miterlimit="10" stroke-width="8"/><polyline points="43.98 48 55.98 36 67.98 48" fill="none" stroke="#333" stroke-linecap="round" stroke-linejoin="round" stroke-width="8"/><polyline points="67.98 80 55.98 92 43.98 80" fill="none" stroke="#333" stroke-linecap="round" stroke-linejoin="round" stroke-width="8"/><line id="dcf08ad3-b171-404f-b373-6c665e9d91df" data-name="b493255f-edd2-469b-8f82-6d8f944da046" x1="103.37" y1="108" x2="80.63" y2="108" fill="none" stroke="#333" stroke-linecap="round" stroke-miterlimit="10" stroke-width="8"/><path d="M113,124H31.37C25.09,124,20,118.63,20,112V32c0-6.63,5.09-12,11.37-12H152.63C158.91,20,164,25.37,164,32V81.81" fill="none" stroke="#333" stroke-linecap="round" stroke-linejoin="round" stroke-width="8"/><g id="f581a15a-8144-4ecf-8c23-a21d16c1e810" data-name="39bbb6be-0d7a-4bfa-8252-1f40bf874658"><line x1="137.79" y1="156" x2="150.74" y2="156" fill="none" stroke="#333" stroke-linecap="round" stroke-linejoin="round" stroke-width="8"/><path d="M123.64,84h40.73c4.22,0,7.64,3.11,7.64,6.95v74.11c0,3.84-3.42,6.95-7.64,6.95H123.64c-4.22,0-7.64-3.11-7.64-6.95V90.95C116,87.11,119.42,84,123.64,84Z" fill="none" stroke="#333" stroke-linecap="round" stroke-linejoin="round" stroke-width="8"/></g><line id="97c6ef8c-1c4e-4ee0-863b-5080a871773e" data-name="b493255f-edd2-469b-8f82-6d8f944da046" x1="140" y1="68" x2="84" y2="68" fill="none" stroke="#333" stroke-linecap="round" stroke-miterlimit="10" stroke-width="8"/><line id="bbab839e-e60f-4f3b-9cb8-b64fa76d3df3" data-name="b493255f-edd2-469b-8f82-6d8f944da046" x1="140" y1="52" x2="84" y2="52" fill="none" stroke="#333" stroke-linecap="round" stroke-miterlimit="10" stroke-width="8"/><line id="291a025d-54fd-4956-a203-20ecc6a8d46f" data-name="b493255f-edd2-469b-8f82-6d8f944da046" x1="140" y1="36" x2="84" y2="36" fill="none" stroke="#333" stroke-linecap="round" stroke-miterlimit="10" stroke-width="8"/><rect width="192" height="192" fill="none"/></svg>