<svg id="cd1e9533-a713-4c26-b0db-2e90ff30789f" data-name="ICON" xmlns="http://www.w3.org/2000/svg" width="192" height="192" viewBox="0 0 192 192"><title>APP_videostore</title><polyline points="132 83 132 52 52.07 52 52.07 92 116 92" fill="none" stroke="#333" stroke-linejoin="round" stroke-width="8"/><line x1="52.07" y1="36" x2="132" y2="36" fill="none" stroke="#333" stroke-linecap="round" stroke-linejoin="round" stroke-width="8"/><line x1="52.07" y1="53" x2="52.07" y2="36" fill="none" stroke="#333" stroke-linecap="round" stroke-linejoin="round" stroke-width="8"/><line x1="68.07" y1="52" x2="68.07" y2="36" fill="none" stroke="#333" stroke-linecap="round" stroke-linejoin="round" stroke-width="8"/><line x1="84.07" y1="52" x2="84.07" y2="36" fill="none" stroke="#333" stroke-linecap="round" stroke-linejoin="round" stroke-width="8"/><line x1="100.07" y1="52" x2="100.07" y2="36" fill="none" stroke="#333" stroke-linecap="round" stroke-linejoin="round" stroke-width="8"/><line x1="116.07" y1="52" x2="116.07" y2="36" fill="none" stroke="#333" stroke-linecap="round" stroke-linejoin="round" stroke-width="8"/><line x1="132" y1="53" x2="132" y2="36" fill="none" stroke="#333" stroke-linecap="round" stroke-linejoin="round" stroke-width="8"/><line x1="82" y1="124" x2="92" y2="124" fill="none" stroke="#333" stroke-linecap="round" stroke-linejoin="round" stroke-width="8"/><line id="872f602c-a94b-4f31-89d2-23eb58319022" data-name="b493255f-edd2-469b-8f82-6d8f944da046" x1="103.37" y1="108" x2="80.63" y2="108" fill="none" stroke="#333" stroke-linecap="round" stroke-miterlimit="10" stroke-width="8"/><path d="M113,124H31.37C25.09,124,20,118.63,20,112V32c0-6.63,5.09-12,11.37-12H152.63C158.91,20,164,25.37,164,32V81.81" fill="none" stroke="#333" stroke-linecap="round" stroke-linejoin="round" stroke-width="8"/><g id="9a974775-e3a0-46e5-9286-107a3f701190" data-name="39bbb6be-0d7a-4bfa-8252-1f40bf874658"><line x1="137.79" y1="156" x2="150.74" y2="156" fill="none" stroke="#333" stroke-linecap="round" stroke-linejoin="round" stroke-width="8"/><path d="M123.64,84h40.73c4.22,0,7.64,3.11,7.64,6.95v74.11c0,3.84-3.42,6.95-7.64,6.95H123.64c-4.22,0-7.64-3.11-7.64-6.95V90.95C116,87.11,119.42,84,123.64,84Z" fill="none" stroke="#333" stroke-linecap="round" stroke-linejoin="round" stroke-width="8"/></g><rect width="192" height="192" fill="none"/><rect width="192" height="192" fill="none"/></svg>