<svg id="f82053e5-5e0c-4724-8e8b-f8a364c81ad1" data-name="ICON" xmlns="http://www.w3.org/2000/svg" width="192" height="192" viewBox="0 0 192 192"><title>APP_multiscreen</title><path d="M31.37,132A11.23,11.23,0,0,1,20,120.92V47.08A11.23,11.23,0,0,1,31.37,36H152.63A11.23,11.23,0,0,1,164,47.08V92" fill="none" stroke="#333" stroke-linecap="round" stroke-linejoin="round" stroke-width="8"/><line x1="130.82" y1="132" x2="116.84" y2="132" fill="none" stroke="#333" stroke-linecap="round" stroke-linejoin="round" stroke-width="8"/><line x1="146.5" y1="140" x2="157.5" y2="140" fill="none" stroke="#333" stroke-linecap="round" stroke-linejoin="round" stroke-width="8"/><path d="M137.45,92h29.09A5.27,5.27,0,0,1,172,97.05v53.89a5.27,5.27,0,0,1-5.45,5.05H137.45a5.27,5.27,0,0,1-5.45-5.05V97.05A5.27,5.27,0,0,1,137.45,92Z" fill="none" stroke="#333" stroke-linecap="round" stroke-linejoin="round" stroke-width="8"/><line x1="68" y1="132" x2="84" y2="132" fill="none" stroke="#333" stroke-linecap="round" stroke-linejoin="round" stroke-width="8"/><path d="M36,140.36V99.64C36,95.42,38.83,92,42.32,92h67.37c3.49,0,6.32,3.42,6.32,7.64v40.73c0,4.22-2.83,7.64-6.32,7.64H42.32C38.83,148,36,144.58,36,140.36Z" fill="none" stroke="#333" stroke-linecap="round" stroke-linejoin="round" stroke-width="8"/><rect width="192" height="192" fill="none"/></svg>