<svg id="983eddd5-a9bc-435a-8683-6a10993552e0" data-name="ICON" xmlns="http://www.w3.org/2000/svg" width="192" height="192" viewBox="0 0 192 192"><title>APP_mobile_entertainment</title><g id="f08f0d14-47d3-43ee-86ca-7f7e75e5f422" data-name="39bbb6be-0d7a-4bfa-8252-1f40bf874658"><line x1="137.79" y1="148" x2="150.74" y2="148" fill="none" stroke="#333" stroke-linecap="round" stroke-linejoin="round" stroke-width="8"/><path d="M123.64,76h40.73c4.22,0,7.64,3.11,7.64,6.95v74.11c0,3.84-3.42,6.95-7.64,6.95H123.64c-4.22,0-7.64-3.11-7.64-6.95V82.95C116,79.11,119.42,76,123.64,76Z" fill="none" stroke="#333" stroke-linecap="round" stroke-linejoin="round" stroke-width="8"/></g><line x1="82" y1="140" x2="92" y2="140" fill="none" stroke="#333" stroke-linecap="round" stroke-linejoin="round" stroke-width="8"/><line id="12dcd9e7-04ca-4067-94ca-9b7fcc3144a8" data-name="b493255f-edd2-469b-8f82-6d8f944da046" x1="103.37" y1="124" x2="83" y2="124" fill="none" stroke="#333" stroke-linecap="round" stroke-miterlimit="10" stroke-width="8"/><path d="M113,140H31.37C25.09,140,20,134.63,20,128V48c0-6.63,5.09-12,11.37-12H152.63C158.91,36,164,41.37,164,48V74" fill="none" stroke="#333" stroke-linecap="round" stroke-linejoin="round" stroke-width="8"/><rect width="192" height="192" fill="none"/></svg>