<svg id="0468f836-a248-4d3f-a9a5-303de2bf735d" data-name="ICON" xmlns="http://www.w3.org/2000/svg" width="192" height="192" viewBox="0 0 192 192"><title>APP_EPG_backwards</title><path id="fb3b007d-cfcf-45ea-bfaf-7de177d4c28e" data-name="&lt;Pfad&gt;" d="M152,22.94" fill="none" stroke="#333" stroke-linecap="round" stroke-linejoin="round" stroke-width="8"/><path id="c16eff10-a136-4902-ae6b-41ce73528ef7" data-name="&lt;Pfad&gt;" d="M152,23.47" fill="none" stroke="#333" stroke-linecap="round" stroke-linejoin="round" stroke-width="8"/><path d="M127.07,82" fill="none" stroke="#333" stroke-linecap="round" stroke-linejoin="round" stroke-width="8"/><line x1="59.5" y1="108" x2="27.5" y2="108" fill="none" stroke="#333" stroke-linecap="round" stroke-miterlimit="10" stroke-width="8"/><polyline points="36.47 91 19.5 107.97 36.47 124.94" fill="none" stroke="#333" stroke-linecap="round" stroke-linejoin="round" stroke-width="8"/><path id="f69a18fa-5eb7-45bf-a42b-eb0bac11446d" data-name="b493255f-edd2-469b-8f82-6d8f944da046" d="M79.74,76" fill="none" stroke="#333" stroke-linecap="round" stroke-miterlimit="10" stroke-width="8"/><line id="09b3e6b5-635f-4029-9774-86fb50d08146" data-name="b493255f-edd2-469b-8f82-6d8f944da046" x1="80" y1="76" x2="48" y2="76" fill="none" stroke="#333" stroke-linecap="round" stroke-miterlimit="10" stroke-width="8"/><line id="7ae7bdc3-d651-42f7-94e3-c61685a6878a" data-name="b493255f-edd2-469b-8f82-6d8f944da046" x1="80" y1="60" x2="48" y2="60" fill="none" stroke="#333" stroke-linecap="round" stroke-miterlimit="10" stroke-width="8"/><line id="bff22adc-1475-4137-a089-0b645d7f9f92" data-name="b493255f-edd2-469b-8f82-6d8f944da046" x1="80" y1="44" x2="48" y2="44" fill="none" stroke="#333" stroke-linecap="round" stroke-miterlimit="10" stroke-width="8"/><line id="5d762264-e07d-4265-a842-d66c8f347a7f" data-name="b493255f-edd2-469b-8f82-6d8f944da046" x1="136" y1="60" x2="104" y2="60" fill="none" stroke="#333" stroke-linecap="round" stroke-miterlimit="10" stroke-width="8"/><line id="4591bb88-f058-4e3d-948a-c8e6f88f833c" data-name="b493255f-edd2-469b-8f82-6d8f944da046" x1="136" y1="44" x2="104" y2="44" fill="none" stroke="#333" stroke-linecap="round" stroke-miterlimit="10" stroke-width="8"/><line id="27ee0960-7cda-4534-9f25-6516868ed1d6" data-name="b493255f-edd2-469b-8f82-6d8f944da046" x1="103.37" y1="108" x2="80.63" y2="108" fill="none" stroke="#333" stroke-linecap="round" stroke-miterlimit="10" stroke-width="8"/><path d="M20,76V32c0-6.63,5.09-12,11.37-12H152.63C158.91,20,164,25.37,164,32V81.81" fill="none" stroke="#333" stroke-linecap="round" stroke-linejoin="round" stroke-width="8"/><line x1="113" y1="124" x2="68" y2="124" fill="none" stroke="#333" stroke-linecap="round" stroke-linejoin="round" stroke-width="8"/><g id="e8b1ab3a-b641-41ed-b8f6-698196da0822" data-name="39bbb6be-0d7a-4bfa-8252-1f40bf874658"><line x1="137.79" y1="156" x2="150.74" y2="156" fill="none" stroke="#333" stroke-linecap="round" stroke-linejoin="round" stroke-width="8"/><path d="M123.64,84h40.73c4.22,0,7.64,3.11,7.64,6.95v74.11c0,3.84-3.42,6.95-7.64,6.95H123.64c-4.22,0-7.64-3.11-7.64-6.95V90.95C116,87.11,119.42,84,123.64,84Z" fill="none" stroke="#333" stroke-linecap="round" stroke-linejoin="round" stroke-width="8"/></g><rect width="192" height="192" fill="none"/></svg>