<svg id="27e5b83f-11cd-440d-9fa6-637128afb803" data-name="ICON" xmlns="http://www.w3.org/2000/svg" width="192" height="192" viewBox="0 0 192 192"><title>APP_EPG</title><path d="M127.07,82" fill="none" stroke="#333" stroke-linecap="round" stroke-linejoin="round" stroke-width="8"/><path id="de760dd4-e44c-4d92-8484-520f76e301d2" data-name="b493255f-edd2-469b-8f82-6d8f944da046" d="M79.74,76" fill="none" stroke="#333" stroke-linecap="round" stroke-miterlimit="10" stroke-width="8"/><line id="882cb321-bd90-4573-bbf0-bc531f15732f" data-name="b493255f-edd2-469b-8f82-6d8f944da046" x1="80" y1="76" x2="48" y2="76" fill="none" stroke="#333" stroke-linecap="round" stroke-miterlimit="10" stroke-width="8"/><line id="1daa9ff5-1480-4939-822a-ceaad80406c8" data-name="b493255f-edd2-469b-8f82-6d8f944da046" x1="80" y1="60" x2="48" y2="60" fill="none" stroke="#333" stroke-linecap="round" stroke-miterlimit="10" stroke-width="8"/><line id="fa709a3e-8f07-4195-9694-954af9e2596b" data-name="b493255f-edd2-469b-8f82-6d8f944da046" x1="80" y1="44" x2="48" y2="44" fill="none" stroke="#333" stroke-linecap="round" stroke-miterlimit="10" stroke-width="8"/><line id="2b54e7a2-ba2b-4039-9989-9e338cc403de" data-name="b493255f-edd2-469b-8f82-6d8f944da046" x1="136" y1="60" x2="104" y2="60" fill="none" stroke="#333" stroke-linecap="round" stroke-miterlimit="10" stroke-width="8"/><line id="4054df05-5ed3-4c54-b015-2bb4bffc53af" data-name="b493255f-edd2-469b-8f82-6d8f944da046" x1="136" y1="44" x2="104" y2="44" fill="none" stroke="#333" stroke-linecap="round" stroke-miterlimit="10" stroke-width="8"/><line id="95ed4b2e-4046-44f1-b823-d92425e720b3" data-name="b493255f-edd2-469b-8f82-6d8f944da046" x1="103.37" y1="108" x2="80.63" y2="108" fill="none" stroke="#333" stroke-linecap="round" stroke-miterlimit="10" stroke-width="8"/><path d="M113,124H31.37C25.09,124,20,118.63,20,112V32c0-6.63,5.09-12,11.37-12H152.63C158.91,20,164,25.37,164,32V81.81" fill="none" stroke="#333" stroke-linecap="round" stroke-linejoin="round" stroke-width="8"/><g id="cde9d1cf-d2ff-4509-9ecd-a96c75eaabeb" data-name="39bbb6be-0d7a-4bfa-8252-1f40bf874658"><line x1="137.79" y1="156" x2="150.74" y2="156" fill="none" stroke="#333" stroke-linecap="round" stroke-linejoin="round" stroke-width="8"/><path d="M123.64,84h40.73c4.22,0,7.64,3.11,7.64,6.95v74.11c0,3.84-3.42,6.95-7.64,6.95H123.64c-4.22,0-7.64-3.11-7.64-6.95V90.95C116,87.11,119.42,84,123.64,84Z" fill="none" stroke="#333" stroke-linecap="round" stroke-linejoin="round" stroke-width="8"/></g><rect width="192" height="192" fill="none"/></svg>