<svg id="af60754a-545b-492e-bd38-4ede5c50c9d5" data-name="ICON" xmlns="http://www.w3.org/2000/svg" width="192" height="192" viewBox="0 0 192 192"><title>APP_HD</title><path d="M67.76,36.07V67.93S84.24,70.59,84.24,52,67.76,36.07,67.76,36.07Z" fill="none" stroke="#333" stroke-linecap="round" stroke-linejoin="round" stroke-width="8"/><line x1="35.76" y1="67.8" x2="35.76" y2="35.94" fill="none" stroke="#333" stroke-linecap="round" stroke-linejoin="round" stroke-width="8"/><line x1="51.83" y1="67.8" x2="51.83" y2="35.94" fill="none" stroke="#333" stroke-linecap="round" stroke-linejoin="round" stroke-width="8"/><line x1="35.76" y1="51.87" x2="47.81" y2="51.87" fill="none" stroke="#333" stroke-linecap="round" stroke-linejoin="round" stroke-width="8"/><line id="33b29176-089a-4f2c-9c96-3b77fe14b7fe" data-name="b493255f-edd2-469b-8f82-6d8f944da046" x1="103.37" y1="108" x2="80.63" y2="108" fill="none" stroke="#333" stroke-linecap="round" stroke-miterlimit="10" stroke-width="8"/><path d="M113,124H31.37C25.09,124,20,118.63,20,112V32c0-6.63,5.09-12,11.37-12H152.63C158.91,20,164,25.37,164,32V81.81" fill="none" stroke="#333" stroke-linecap="round" stroke-linejoin="round" stroke-width="8"/><g id="ccffe3cb-0ddc-44af-87f3-9a2db8f7295a" data-name="39bbb6be-0d7a-4bfa-8252-1f40bf874658"><line x1="137.79" y1="156" x2="150.74" y2="156" fill="none" stroke="#333" stroke-linecap="round" stroke-linejoin="round" stroke-width="8"/><path d="M123.64,84h40.73c4.22,0,7.64,3.11,7.64,6.95v74.11c0,3.84-3.42,6.95-7.64,6.95H123.64c-4.22,0-7.64-3.11-7.64-6.95V90.95C116,87.11,119.42,84,123.64,84Z" fill="none" stroke="#333" stroke-linecap="round" stroke-linejoin="round" stroke-width="8"/></g><rect width="192" height="192" fill="none"/></svg>