<svg id="d4a29fbe-4816-4123-a242-5f200e355b8c" data-name="ICON" xmlns="http://www.w3.org/2000/svg" width="192" height="192" viewBox="0 0 192 192"><title>auto-top-up</title><polyline points="162.54 50.09 104 108 78 82" fill="none" stroke="#333" stroke-linecap="round" stroke-linejoin="round" stroke-width="8"/><line x1="84.75" y1="156" x2="108" y2="156" fill="none" stroke="#333" stroke-linecap="round" stroke-linejoin="round" stroke-width="8"/><path d="M140,96v64a12,12,0,0,1-12,12H92" fill="none" stroke="#333" stroke-linecap="round" stroke-linejoin="round" stroke-width="8"/><path d="M52,123.08V32A12,12,0,0,1,64,20h64a12,12,0,0,1,12,12V50" fill="none" stroke="#333" stroke-linecap="round" stroke-linejoin="round" stroke-width="8"/><rect width="192" height="192" fill="none"/><ellipse cx="48" cy="135.5" rx="36" ry="12.5" fill="none" stroke="#333" stroke-miterlimit="10" stroke-width="8"/><path d="M84,135.5v23.6c-4.7,5.5-19,8.39-36,8.39s-31.3-4-36-9.5V135" fill="none" stroke="#333" stroke-linecap="round" stroke-linejoin="round" stroke-width="8"/><path d="M20,163v16c4.7,5.5,19,9,36,9s31.3-2.5,36-8V160s0-4-8-4" fill="none" stroke="#333" stroke-linejoin="round" stroke-width="8"/></svg>