<svg id="e6e4b541-4980-4a0b-a8c6-6b8e948795a8" data-name="ICON" xmlns="http://www.w3.org/2000/svg" width="192" height="192" viewBox="0 0 192 192"><title>bill-or-report</title><g id="2b0ed773-fdbb-4362-8ed1-131e256034a7" data-name="Bill_or_Report_ic"><line id="afa0dea2-fdb5-4188-b127-0390bcfc2413" data-name="&lt;Pfad&gt;" x1="124" y1="84" x2="92" y2="84" fill="none" stroke="#333" stroke-linecap="round" stroke-miterlimit="10" stroke-width="8"/><line id="fca2dd7d-8243-463f-9694-d76870f6b696" data-name="&lt;Pfad&gt;" x1="76" y1="84" x2="68" y2="84" fill="none" stroke="#333" stroke-linecap="round" stroke-miterlimit="10" stroke-width="8"/><line id="c0f6faeb-1130-48f3-b62a-bcd83c3abeaf" data-name="&lt;Pfad&gt;" x1="124" y1="108" x2="92" y2="108" fill="none" stroke="#333" stroke-linecap="round" stroke-miterlimit="10" stroke-width="8"/><line id="9f9d3ac1-3527-469f-b7cc-d7b4a8af09e5" data-name="&lt;Pfad&gt;" x1="76" y1="108" x2="68" y2="108" fill="none" stroke="#333" stroke-linecap="round" stroke-miterlimit="10" stroke-width="8"/><line id="0e845ff5-6eb9-4522-9631-9073c7db3199" data-name="&lt;Pfad&gt;" x1="124" y1="132" x2="92" y2="132" fill="none" stroke="#333" stroke-linecap="round" stroke-miterlimit="10" stroke-width="8"/><line id="90b7f6c8-8095-43f3-848c-53ffec273712" data-name="&lt;Pfad&gt;" x1="76" y1="132" x2="68" y2="132" fill="none" stroke="#333" stroke-linecap="round" stroke-miterlimit="10" stroke-width="8"/><g id="d047580b-1364-4617-8ba0-dfc6a318d2fa" data-name="File_pdf_ic 2"><rect width="192" height="192" fill="none"/></g><g id="d01263cf-fa9b-45ba-b394-0f4a6a3aca19" data-name="Document_ic"><path d="M148,52,116,20H56A12,12,0,0,0,44,32V160a12,12,0,0,0,12,12h80a12,12,0,0,0,12-12V52Z" transform="translate(0 0)" fill="none" stroke="#333" stroke-linejoin="round" stroke-width="8"/><polyline points="116 20.23 116 52 148 52" fill="none" stroke="#333" stroke-linejoin="round" stroke-width="8"/></g></g></svg>