<svg id="c57bf41e-be34-4c3f-97cc-5d43e6ccc8f7" data-name="ICON" xmlns="http://www.w3.org/2000/svg" width="192" height="192" viewBox="0 0 192 192"><title>birthday-greeting</title><path id="1120199a-71b9-41f4-a25a-e2e117903a06" data-name="&lt;Pfad&gt;" d="M44,68a13.63,13.63,0,0,0-8,12c0,9.42,26.87,20,60,20s60-10.58,60-20a13.63,13.63,0,0,0-8-12" fill="none" stroke="#333" stroke-linecap="round" stroke-linejoin="round" stroke-width="8"/><line id="19788de8-0761-4e03-8ed4-05397a8a5dc2" data-name="&lt;Pfad&gt;" x1="156" y1="154.69" x2="156" y2="79.56" fill="none" stroke="#333" stroke-linecap="round" stroke-linejoin="round" stroke-width="8"/><line id="e4c3d1e2-3700-4b8b-9072-4ebead22589b" data-name="&lt;Pfad&gt;" x1="36" y1="154.69" x2="36" y2="79.7" fill="none" stroke="#333" stroke-linecap="round" stroke-linejoin="round" stroke-width="8"/><path id="df689d88-c45c-4951-bee4-4be296eb73f0" data-name="&lt;Pfad&gt;" d="M36,114c0,9.42,26.86,18,60,18s60-8.58,60-18" fill="none" stroke="#333" stroke-linecap="round" stroke-linejoin="round" stroke-width="8"/><path id="aa1eadcf-5bbd-431a-9eaf-893c937fafc9" data-name="&lt;Pfad&gt;" d="M36,154.69C36,164.11,62.87,172,96,172s60-7.89,60-17.31" fill="none" stroke="#333" stroke-linecap="round" stroke-linejoin="round" stroke-width="8"/><line id="cc1cdb05-7d67-4cd0-b517-4883b617e040" data-name="&lt;Pfad&gt;" x1="96" y1="76" x2="96" y2="44" fill="none" stroke="#333" stroke-linecap="round" stroke-linejoin="round" stroke-width="8"/><line id="5f99b218-1c69-42cf-a7a4-7bd520b53827" data-name="&lt;Pfad&gt;" x1="68" y1="68" x2="68" y2="36" fill="none" stroke="#333" stroke-linecap="round" stroke-linejoin="round" stroke-width="8"/><line id="4092462a-37b6-409c-8960-b5160a55c91c" data-name="&lt;Pfad&gt;" x1="124" y1="68" x2="124" y2="36" fill="none" stroke="#333" stroke-linecap="round" stroke-linejoin="round" stroke-width="8"/><line x1="68" y1="20" x2="68" y2="24" fill="none" stroke="#333" stroke-linecap="round" stroke-linejoin="round" stroke-width="8"/><line x1="124" y1="20" x2="124" y2="24" fill="none" stroke="#333" stroke-linecap="round" stroke-linejoin="round" stroke-width="8"/><line x1="96" y1="28" x2="96" y2="32" fill="none" stroke="#333" stroke-linecap="round" stroke-linejoin="round" stroke-width="8"/><rect width="192" height="192" fill="none"/></svg>