<svg id="f024f0d9-4751-41bd-a3ce-7a7caf5cde61" data-name="ICON" xmlns="http://www.w3.org/2000/svg" width="192" height="192" viewBox="0 0 192 192"><title>vodafone-bonus</title><rect width="192" height="192" fill="none"/><rect width="192" height="192" fill="none"/><rect width="192" height="192" fill="none"/><rect x="27.82" y="92" width="136" height="72" fill="none" stroke="#333" stroke-linecap="round" stroke-linejoin="round" stroke-width="8"/><rect x="20" y="68" width="152" height="24" fill="none" stroke="#333" stroke-linecap="round" stroke-linejoin="round" stroke-width="8"/><line x1="108" y1="68" x2="108" y2="164" fill="none" stroke="#333" stroke-linecap="round" stroke-linejoin="round" stroke-width="8"/><line x1="84" y1="68" x2="84" y2="164" fill="none" stroke="#333" stroke-linecap="round" stroke-linejoin="round" stroke-width="8"/><path d="M57.51,55.31C63.75,61.56,92.82,68,92.82,68S86.38,38.93,80.13,32.69A16,16,0,0,0,57.51,55.31Z" fill="none" stroke="#333" stroke-linejoin="round" stroke-width="8"/><path d="M134.49,55.31C128.25,61.56,99.18,68,99.18,68s6.44-29.07,12.69-35.31a16,16,0,0,1,22.63,22.63Z" fill="none" stroke="#333" stroke-linejoin="round" stroke-width="8"/><line x1="28" y1="92" x2="84" y2="92" fill="none" stroke="#333" stroke-linecap="round" stroke-linejoin="round" stroke-width="8"/></svg>