<svg id="c8612da8-c229-4076-a689-419a7353805e" data-name="ICON" xmlns="http://www.w3.org/2000/svg" width="192" height="192" viewBox="0 0 192 192"><title>braking</title><rect width="192" height="192" fill="none"/><line x1="76.01" y1="155.91" x2="171.93" y2="155.91" fill="none" stroke="#000" stroke-linecap="round" stroke-linejoin="round" stroke-width="8"/><line x1="116" y1="132" x2="172" y2="104" stroke="#000" stroke-linecap="round" stroke-linejoin="round" stroke-width="8"/><line x1="144" y1="120" x2="172.01" y2="155.91" fill="none" stroke="#000" stroke-linejoin="round" stroke-width="8"/><path d="M102.49,119.27" transform="translate(0 0)" fill="none" stroke="#000" stroke-linecap="round" stroke-linejoin="round" stroke-width="8"/><line x1="81.31" y1="74.98" x2="74.41" y2="85.76" fill="none" stroke="#000" stroke-linecap="round" stroke-linejoin="round" stroke-width="8"/><line x1="95.13" y1="75.38" x2="87.9" y2="86.85" fill="none" stroke="#000" stroke-linecap="round" stroke-linejoin="round" stroke-width="8"/><line x1="109.84" y1="75.31" x2="101.67" y2="87.97" fill="none" stroke="#000" stroke-linecap="round" stroke-linejoin="round" stroke-width="8"/><path d="M80.83,74.41c-5.12-.59-10.21-3.46-15.15-5-8.82-2.8-8.87,4.83-9.75,10.67-1.41,9.45-9,12.9-17.56,12.41-5.64-.33-14.73-2.41-17.31,4.47-2.14,5.72,1,11.72,2.24,17.24l2.44,7.3c1.17,3.07,3,7.23,5.74,13.38,2.65,6,7.92,10.52,14.79,8.76a59.46,59.46,0,0,0,8-3.29l76.58-33.43s13.78-5.13,19.83-8.89C156,94.67,163.86,88.22,164,81.29c.22-11.13-13.69-9.58-21.67-8.66C123.16,74.85,104,76.4,84.68,74.8Z" transform="translate(0 0)" fill="none" stroke="#000" stroke-linecap="round" stroke-linejoin="round" stroke-width="8"/><line x1="92" y1="28" x2="128" y2="56" fill="none" stroke="#000" stroke-linecap="round" stroke-linejoin="round" stroke-width="8"/><line x1="128" y1="28" x2="144" y2="52" fill="none" stroke="#000" stroke-linecap="round" stroke-linejoin="round" stroke-width="8"/></svg>