<svg id="55671e39-cefa-46bf-b0c9-8ca4a8831d80" data-name="ICON" xmlns="http://www.w3.org/2000/svg" width="192" height="192" viewBox="0 0 192 192"><title>camera</title><g id="7e118bdd-ddab-4285-86e6-f6c361ec330e" data-name="Camera_ic"><circle id="35bc65a4-44be-4707-8009-68f4da9ab7c6" data-name="&lt;Pfad&gt;" cx="96" cy="104.36" r="36" fill="none" stroke="#333" stroke-linecap="round" stroke-miterlimit="10" stroke-width="8"/><path d="M20,76A16,16,0,0,1,35.65,60H51.29a11.7,11.7,0,0,0,8.94-4.12L76.84,32a14.42,14.42,0,0,1,10.22-4h17.88c3.54,0,7.67,1.23,10.18,3.72L131.76,56a14.24,14.24,0,0,0,9.75,4h15.3C165.17,60,172,67.31,172,75.66v73.15A15.23,15.23,0,0,1,156.81,164H35.2A15.24,15.24,0,0,1,20,148.8V76Z" fill="none" stroke="#333" stroke-linecap="round" stroke-linejoin="round" stroke-width="8"/><rect width="192" height="192" fill="none"/></g></svg>