<svg id="da7e088b-5710-4955-a192-4cf960d96efa" data-name="ICON" xmlns="http://www.w3.org/2000/svg" width="192" height="192" viewBox="0 0 192 192"><title>car-dongle</title><rect width="192" height="192" fill="none"/><circle cx="56" cy="128" r="20" fill="none" stroke="#333" stroke-linecap="round" stroke-linejoin="round" stroke-width="8"/><circle cx="136" cy="128" r="20" fill="none" stroke="#333" stroke-linecap="round" stroke-linejoin="round" stroke-width="8"/><line x1="75.6" y1="132" x2="116.4" y2="132" fill="none" stroke="#333" stroke-linecap="round" stroke-linejoin="round" stroke-width="8"/><path d="M27,96S40,77.52,44,72c6-8.33,19-20,36-20h8c13,0,24.38,7,31,12,6.2,4.71,22,22,22,22" transform="translate(0 0)" fill="none" stroke="#333" stroke-linecap="round" stroke-linejoin="round" stroke-width="8"/><path d="M156,132h8a8,8,0,0,0,8-8h0c0-22.09-21.91-40-44-40H52a32,32,0,0,0-32,32v8a8,8,0,0,0,8,8h8.4" transform="translate(0 0)" fill="none" stroke="#333" stroke-linecap="round" stroke-linejoin="round" stroke-width="8"/></svg>