<svg id="effe6dfe-20e5-43eb-9f72-0b24b4164c7a" data-name="ICON" xmlns="http://www.w3.org/2000/svg" width="192" height="192" viewBox="0 0 192 192"><title>carer</title><g id="d7a5fdbc-ecb6-4b2a-b4dc-97a3b0b1d5be" data-name="carer"><path d="M115.89,125.77a6.22,6.22,0,0,1-.71,12.4" transform="translate(0 0)" fill="none" stroke="#333" stroke-linecap="round" stroke-linejoin="round" stroke-width="8"/><path d="M116.42,125.85s-28.28-5.59-35.3-7.09c-4-.86-8.56-2.19-12-3.26a30.62,30.62,0,0,0-23.23,1.85C38.61,121.13,28.33,132,25.36,147.2" transform="translate(0 0)" fill="none" stroke="#333" stroke-linecap="round" stroke-linejoin="round" stroke-width="8"/><path d="M115.26,138.17h0" transform="translate(0 0)" fill="none" stroke="#333" stroke-linecap="round" stroke-linejoin="round" stroke-width="8"/><path d="M67.22,143s5.45-4.71,9.61-4.91c5.2-.25,37.48.08,38.43.09" transform="translate(0 0)" fill="none" stroke="#333" stroke-linecap="round" stroke-linejoin="round" stroke-width="8"/><path d="M121,129.69l40.13-18a7.63,7.63,0,0,1,9.65,2.83h0a7.6,7.6,0,0,1-3,10.87c-17.79,9-67.46,35-70.57,36.33l-.87.35c-3.95,1.51-8,1.7-12.44,1.68H42" transform="translate(0 0)" fill="none" stroke="#333" stroke-linecap="round" stroke-linejoin="round" stroke-width="8"/><path d="M154.5,114.72a10.58,10.58,0,0,0-1.19-4.91h0a7.63,7.63,0,0,0-9.65-2.83l-36.9,17" transform="translate(0 0)" fill="none" stroke="#333" stroke-linecap="round" stroke-linejoin="round" stroke-width="8"/><path d="M130.43,113.05a10.35,10.35,0,0,0-1.19-4.88h0a7.63,7.63,0,0,0-9.65-2.83L87.52,120.08" transform="translate(0 0)" fill="none" stroke="#333" stroke-linecap="round" stroke-linejoin="round" stroke-width="8"/><line x1="20" y1="141.84" x2="49.84" y2="171.63" fill="none" stroke="#333" stroke-linecap="round" stroke-linejoin="round" stroke-width="8"/><rect width="192" height="192" fill="none"/><ellipse id="ac350191-0ca8-4724-b6b0-22b5f536de5e" data-name="&lt;Path&gt;" cx="96" cy="37.41" rx="16.91" ry="16.99" fill="none" stroke="#333" stroke-linecap="round" stroke-linejoin="round" stroke-width="8"/><path id="3a7d330c-87c2-48a5-a966-082c0e09daae" data-name="&lt;Path&gt;" d="M123.5,84.42c-3.42-19.85-14.73-30.08-27.33-30.08S71.93,64.56,68.5,84.42" transform="translate(0 0)" fill="none" stroke="#333" stroke-linecap="round" stroke-linejoin="round" stroke-width="8"/></g></svg>