<svg id="e9ffd98a-3ae8-427a-85d9-32670cf13002" data-name="ICON" xmlns="http://www.w3.org/2000/svg" width="192" height="192" viewBox="0 0 192 192"><title>charity-giving</title><g id="9f16f3fa-3b80-469d-8afb-04f868f418f5" data-name="charity_ic 7"><path id="3933d822-67ad-4878-a2f9-50f6979a1209" data-name="&lt;Pfad&gt;" d="M88.35,35.07a22,22,0,0,0-3.08-6.27,21.68,21.68,0,0,0-17.72-9.2c-12,0-22.66,9.85-21.85,21.94C47.58,69.76,85.89,100,85.89,100c42.45-33.73,40.19-57.92,40.19-57.92,0-12.11-9.26-22.46-21.28-22.46A20.89,20.89,0,0,0,86.47,30.7" transform="translate(0 0)" fill="none" stroke="#333" stroke-linecap="round" stroke-linejoin="round" stroke-width="8"/><path d="M115.94,125.79a6.22,6.22,0,0,1-.72,12.41" transform="translate(0 0)" fill="none" stroke="#333" stroke-linecap="round" stroke-linejoin="round" stroke-width="8"/><path d="M116.47,125.87s-28.25-5.6-35.27-7.1c-4-.86-8.55-2.19-12-3.26A30.54,30.54,0,0,0,46,117.36c-7.3,3.79-15,11.31-19.18,26.11" transform="translate(0 0)" fill="none" stroke="#333" stroke-linecap="round" stroke-linejoin="round" stroke-width="8"/><path d="M115.31,138.2h0" transform="translate(0 0)" fill="none" stroke="#333" stroke-linecap="round" stroke-linejoin="round" stroke-width="8"/><path d="M67.3,143s5.44-4.71,9.61-4.91c5.19-.25,37.45.08,38.4.09" transform="translate(0 0)" fill="none" stroke="#333" stroke-linecap="round" stroke-linejoin="round" stroke-width="8"/><path d="M123.5,129l37.67-17.25a7.62,7.62,0,0,1,9.65,2.84h0a7.62,7.62,0,0,1-3,10.88c-17.77,9-67.41,35-70.51,36.35l-.87.35c-4,1.51-8,1.7-12.43,1.68H42.75" transform="translate(0 0)" fill="none" stroke="#333" stroke-linecap="round" stroke-linejoin="round" stroke-width="8"/><path d="M154.51,113.91a7.58,7.58,0,0,0-1.19-4.09h0a7.62,7.62,0,0,0-9.65-2.84L108,123.39" transform="translate(0 0)" fill="none" stroke="#333" stroke-linecap="round" stroke-linejoin="round" stroke-width="8"/><path d="M130.47,112.27a7.58,7.58,0,0,0-1.19-4.09h0a7.62,7.62,0,0,0-9.65-2.84l-31,14.28" transform="translate(0 0)" fill="none" stroke="#333" stroke-linecap="round" stroke-linejoin="round" stroke-width="8"/><line x1="20.12" y1="141.88" x2="49.94" y2="171.69" fill="none" stroke="#333" stroke-linecap="round" stroke-linejoin="round" stroke-width="8"/><rect width="192" height="192" fill="none"/></g></svg>