<svg id="a8ca3c22-55a8-4161-8674-5dd9953f60b6" data-name="ICON" xmlns="http://www.w3.org/2000/svg" width="192" height="192" viewBox="0 0 192 192"><title>chat</title><path id="8b647ed5-50b9-46ea-aeca-c922f27b9e6b" data-name="&lt;Pfad&gt;" d="M143.17,74.56l-2.23-.65a59.39,59.39,0,0,0-18.82-1.8,60,60,0,0,0-18.52,4.1,51.29,51.29,0,0,0-14.84,9,39.29,39.29,0,0,0-9.68,12.56,30.77,30.77,0,0,0-3,14.83A30.28,30.28,0,0,0,80.54,127a38,38,0,0,0,10.88,11.29,49.82,49.82,0,0,0,15.65,7.1,59.3,59.3,0,0,0,18.82,1.8l.61,0a52.84,52.84,0,0,0,6.7,3.88,50.8,50.8,0,0,0,8.81,3.31A48.65,48.65,0,0,0,152.76,156a50.85,50.85,0,0,0,12.51-1s-13.13-7.62-13.5-15.49a48.21,48.21,0,0,0,8.63-6.44,40.36,40.36,0,0,0,6.5-7.82,33.61,33.61,0,0,0,4-8.88,30,30,0,0,0-3.42-24,36.19,36.19,0,0,0-6.63-7.92,62.1,62.1,0,0,0-17.67-9.82" fill="none" stroke="#333" stroke-linecap="round" stroke-linejoin="round" stroke-width="8"/><path id="73e43e76-3723-4c82-a239-629e1c0146f9" data-name="&lt;Pfad&gt;" d="M141.45,74.06s.27-1.42.35-1.89c1.55-9.37-4.76-18.3-4.76-18.3a48.52,48.52,0,0,0-13.92-14.39,64,64,0,0,0-20-9A76.28,76.28,0,0,0,79,28.15a77.06,77.06,0,0,0-23.7,5.22,65.68,65.68,0,0,0-19,11.44,50.1,50.1,0,0,0-12.39,16A39.1,39.1,0,0,0,20,79.72a37.72,37.72,0,0,0,2.6,12,41.64,41.64,0,0,0,6.2,10.63,49.86,49.86,0,0,0,9.27,8.89c3.54,2.64,10.93,5.84,15.23,7.71-5.58,13.1-18.62,20.82-18.62,20.82a65.53,65.53,0,0,0,16-.64,63.26,63.26,0,0,0,11-2.87s4.41-1.57,17-8.52l1.63-.89" fill="none" stroke="#333" stroke-linecap="round" stroke-linejoin="round" stroke-width="8"/><rect width="192" height="192" fill="none"/></svg>