<svg id="e143875d-61a4-4b66-8ed6-5ae95c653f42" data-name="ICON" xmlns="http://www.w3.org/2000/svg" width="192" height="192" viewBox="0 0 192 192"><title>clapping</title><path d="M134.76,66.64V55c0-4.26-3.16-7.75-7-7.75h-.45c-3.86,0-7,3.49-7,7.75V66.36" fill="none" stroke="#333" stroke-linecap="round" stroke-linejoin="round" stroke-width="8"/><path d="M149.26,82.19V66.64c0-4.26-3.16-7.75-7-7.75h-.45c-3.86,0-7,3.49-7,7.75v37.51" fill="none" stroke="#333" stroke-linecap="round" stroke-linejoin="round" stroke-width="8"/><path d="M120.25,104V66.36c0-4.26-3.16-7.75-7-7.75h-.45c-3.86,0-7,3.49-7,7.75,0,0,.3,34.07,0,37.8-.92,11.56-2.37,14.73-4,15.7-3.13,1.88-9.54-8-14.77-12.07-9.25-7.12-15.87-1.14-15.25.63,2.1,5.93,9.52,12.57,30,41.2C113.09,165.45,125,164,130.25,164c10,0,17.53-3.12,24.57-12.11,9.71-12.4,9.18-47.7,9.18-47.7V82.56c0-4.26-3.16-7.75-7-7.75h-.45a7.29,7.29,0,0,0-7.25,7.38v22" fill="none" stroke="#333" stroke-linecap="round" stroke-linejoin="round" stroke-width="8"/><path d="M98.31,144.85c-12.06-.72-26.94-9.39-29.24-11.13C41,112.49,31.94,108.35,28.17,103.32c-1.12-1.5,3.42-9.18,14.37-5.13,6.19,2.29,15.27,9.85,17.69,7.13,1.26-1.42,1.71-4.87-.85-16.18C58.56,85.49,48.15,53,48.15,53c-1.27-4.07.71-8.34,4.4-9.49l.43-.13c3.69-1.15,7.75,1.24,9,5.31L73.24,84.83,58.63,37.91c-1.27-4.07.71-8.34,4.4-9.49l.43-.13c3.69-1.15,7.75,1.24,9,5.31L87.09,80.51,75.93,44.7c-1.27-4.07.71-8.34,4.4-9.49l.43-.13c3.69-1.15,7.75,1.24,9,5.31l2.69,8.3h0a7.29,7.29,0,0,1,4.73-9.2l.43-.13c3.69-1.15,7.75,1.24,9,5.31l4.48,14.17" fill="none" stroke="#333" stroke-linecap="round" stroke-linejoin="round" stroke-width="8"/><rect width="192" height="192" fill="none"/><line x1="92.47" y1="48.68" x2="95.85" y2="60.36" fill="none" stroke="#333" stroke-linecap="round" stroke-linejoin="round" stroke-width="8"/></svg>