<svg id="e8617c90-ca93-4a00-9aaa-adbd1555abae" data-name="ICON" xmlns="http://www.w3.org/2000/svg" width="192" height="192" viewBox="0 0 192 192"><title>colour-palette</title><path d="M21.05,104.65A27.27,27.27,0,0,1,20,96c0-28.71,34-52,76-52s76,23.28,76,52-34,51.08-76,52c-17.88.39-29.53-3.95-30.46-4.34-5.7-2.43-7.53-7.12-1.22-16.94,7.47-11.64,12.91-23.73.68-26.43C54.52,98,43.66,111.19,33.41,112.42A11.25,11.25,0,0,1,21.05,104.65Z" fill="none" stroke="#333" stroke-miterlimit="10" stroke-width="8"/><rect width="192" height="192" fill="none"/><ellipse cx="104" cy="124" rx="5.29" ry="2.63" fill="none" stroke="#333" stroke-miterlimit="10" stroke-width="8"/><ellipse cx="104" cy="124" rx="7.94" ry="3.94" fill="none" stroke="#333" stroke-miterlimit="10" stroke-width="8"/><ellipse cx="104" cy="124" rx="3.31" ry="1.64" fill="none" stroke="#333" stroke-miterlimit="10" stroke-width="8"/><ellipse cx="104" cy="124" rx="1.32" ry="0.66" fill="none" stroke="#333" stroke-miterlimit="10" stroke-width="8"/><ellipse cx="140" cy="108" rx="5.29" ry="2.63" fill="none" stroke="#333" stroke-miterlimit="10" stroke-width="8"/><ellipse cx="140" cy="108" rx="7.94" ry="3.94" fill="none" stroke="#333" stroke-miterlimit="10" stroke-width="8"/><ellipse cx="140" cy="108" rx="3.31" ry="1.64" fill="none" stroke="#333" stroke-miterlimit="10" stroke-width="8"/><ellipse cx="140" cy="108" rx="1.32" ry="0.66" fill="none" stroke="#333" stroke-miterlimit="10" stroke-width="8"/><ellipse cx="132" cy="80" rx="5.29" ry="2.63" fill="none" stroke="#333" stroke-miterlimit="10" stroke-width="8"/><ellipse cx="132" cy="80" rx="7.94" ry="3.94" fill="none" stroke="#333" stroke-miterlimit="10" stroke-width="8"/><ellipse cx="132" cy="80" rx="3.31" ry="1.64" fill="none" stroke="#333" stroke-miterlimit="10" stroke-width="8"/><ellipse cx="132" cy="80" rx="1.32" ry="0.66" fill="none" stroke="#333" stroke-miterlimit="10" stroke-width="8"/><ellipse cx="100" cy="68" rx="5.29" ry="2.63" fill="none" stroke="#333" stroke-miterlimit="10" stroke-width="8"/><ellipse cx="100" cy="68" rx="7.94" ry="3.94" fill="none" stroke="#333" stroke-miterlimit="10" stroke-width="8"/><ellipse cx="100" cy="68" rx="3.31" ry="1.64" fill="none" stroke="#333" stroke-miterlimit="10" stroke-width="8"/><ellipse cx="100" cy="68" rx="1.32" ry="0.66" fill="none" stroke="#333" stroke-miterlimit="10" stroke-width="8"/><ellipse cx="64.1" cy="72.1" rx="5.29" ry="2.63" fill="none" stroke="#333" stroke-miterlimit="10" stroke-width="8"/><ellipse cx="64.1" cy="72.1" rx="7.94" ry="3.94" fill="none" stroke="#333" stroke-miterlimit="10" stroke-width="8"/><ellipse cx="64.1" cy="72.1" rx="3.31" ry="1.64" fill="none" stroke="#333" stroke-miterlimit="10" stroke-width="8"/><ellipse cx="64.1" cy="72.1" rx="1.32" ry="0.66" fill="none" stroke="#333" stroke-miterlimit="10" stroke-width="8"/></svg>