<svg id="922ca346-0a42-4e7a-bcf5-d61eec20f180" data-name="ICON" xmlns="http://www.w3.org/2000/svg" width="192" height="192" viewBox="0 0 192 192"><title>community-or-foundation</title><g id="48064f51-681d-4a9f-ac9a-18bcf5bba640" data-name="Community_or_Foundation"><circle cx="96" cy="153.68" r="17.83" fill="none" stroke="#333" stroke-miterlimit="10" stroke-width="8"/><circle cx="146.17" cy="66.78" r="17.83" transform="translate(-13.81 82.03) rotate(-30)" fill="none" stroke="#333" stroke-miterlimit="10" stroke-width="8"/><circle cx="45.83" cy="66.78" r="17.83" transform="matrix(0.5, -0.87, 0.87, 0.5, -34.92, 73.08)" fill="none" stroke="#333" stroke-miterlimit="10" stroke-width="8"/><path d="M113.59,151a58,58,0,0,0,27.51-18.87" fill="none" stroke="#333" stroke-linecap="round" stroke-linejoin="round" stroke-width="8"/><path d="M50.89,132.08a58,58,0,0,0,27.49,18.87" fill="none" stroke="#333" stroke-linecap="round" stroke-linejoin="round" stroke-width="8"/><path d="M39.39,83.39A58.05,58.05,0,0,0,42,116.65" fill="none" stroke="#333" stroke-linecap="round" stroke-linejoin="round" stroke-width="8"/><path d="M87.09,38.5A57.71,57.71,0,0,0,57,52.91" fill="none" stroke="#333" stroke-linecap="round" stroke-linejoin="round" stroke-width="8"/><path d="M135,52.9A57.71,57.71,0,0,0,104.91,38.5" fill="none" stroke="#333" stroke-linecap="round" stroke-linejoin="round" stroke-width="8"/><path d="M150,116.65a58.05,58.05,0,0,0,2.58-33.25" fill="none" stroke="#333" stroke-linecap="round" stroke-linejoin="round" stroke-width="8"/><rect width="192" height="192" fill="none"/></g></svg>