<svg id="b591ca16-1083-4fbc-b57e-b5eec7701474" data-name="ICON" xmlns="http://www.w3.org/2000/svg" width="192" height="192" viewBox="0 0 192 192"><title>complaints</title><rect width="192" height="192" fill="none"/><path d="M76,132,44,164V132H36.29A16.29,16.29,0,0,1,20,115.71V52.29A16.29,16.29,0,0,1,36.29,36H155.71A16.29,16.29,0,0,1,172,52.29v63.43A16.29,16.29,0,0,1,155.71,132H76Z" fill="none" stroke="#333" stroke-linecap="round" stroke-linejoin="round" stroke-width="8"/><line x1="72" y1="100" x2="120" y2="100" fill="none" stroke="#333" stroke-linecap="round" stroke-linejoin="round" stroke-width="8"/><circle cx="76" cy="68" r="5" fill="none" stroke="#333" stroke-linecap="round" stroke-linejoin="round" stroke-width="8"/><circle cx="76" cy="68" r="3.13" fill="none" stroke="#333" stroke-linecap="round" stroke-linejoin="round" stroke-width="8"/><circle cx="76" cy="68" r="1.25" fill="none" stroke="#333" stroke-linecap="round" stroke-linejoin="round" stroke-width="8"/><circle cx="116" cy="68" r="5" fill="none" stroke="#333" stroke-linecap="round" stroke-linejoin="round" stroke-width="8"/><circle cx="116" cy="68" r="3.13" fill="none" stroke="#333" stroke-linecap="round" stroke-linejoin="round" stroke-width="8"/><circle cx="116" cy="68" r="1.25" fill="none" stroke="#333" stroke-linecap="round" stroke-linejoin="round" stroke-width="8"/></svg>