<svg id="11aeb19c-c8e1-4b50-a392-fe34d26cdc1a" data-name="ICON" xmlns="http://www.w3.org/2000/svg" width="192" height="192" viewBox="0 0 192 192"><title>compass</title><circle cx="96" cy="96" r="75.85" fill="none" stroke="#333" stroke-linecap="round" stroke-linejoin="round" stroke-width="8"/><rect width="192" height="192" fill="none"/><path d="M110.06,97.28l26-35.92a3.86,3.86,0,0,0-.4-5h0a3.86,3.86,0,0,0-5-.4l-36,25.91" fill="none" stroke="#333" stroke-linecap="round" stroke-linejoin="round" stroke-width="8"/><path d="M97.34,110,61.42,136a3.86,3.86,0,0,1-5-.4h0a3.86,3.86,0,0,1-.4-5l25.91-36" fill="none" stroke="#333" stroke-linecap="round" stroke-linejoin="round" stroke-width="8"/><circle cx="96" cy="95.93" r="14.12" fill="none" stroke="#333" stroke-linecap="round" stroke-linejoin="round" stroke-width="8"/><line x1="96" y1="156" x2="96" y2="148" fill="none" stroke="#333" stroke-linecap="round" stroke-linejoin="round" stroke-width="8"/><line x1="96" y1="44" x2="96" y2="36" fill="none" stroke="#333" stroke-linecap="round" stroke-linejoin="round" stroke-width="8"/><line x1="156" y1="96" x2="148" y2="96" fill="none" stroke="#333" stroke-linecap="round" stroke-linejoin="round" stroke-width="8"/><line x1="44" y1="96" x2="36" y2="96" fill="none" stroke="#333" stroke-linecap="round" stroke-linejoin="round" stroke-width="8"/></svg>