<svg id="d50457b6-6e45-44a0-a61b-b15f49928a07" data-name="ICON" xmlns="http://www.w3.org/2000/svg" width="192" height="192" viewBox="0 0 192 192"><title>connectivity</title><path d="M144.34,37.35A76,76,0,1,1,96,20a75.85,75.85,0,0,1,48.34,17.35" fill="none" stroke="#333" stroke-linecap="round" stroke-linejoin="round" stroke-width="8"/><path d="M121.3,63a101.56,101.56,0,0,1,12.49,13.6,103.38,103.38,0,0,1,20.91,67.6" fill="none" stroke="#333" stroke-linecap="round" stroke-linejoin="round" stroke-width="8"/><path d="M49.58,35.82a109.87,109.87,0,0,1,56.09,15.55" fill="none" stroke="#333" stroke-linecap="round" stroke-linejoin="round" stroke-width="8"/><path d="M85.87,145.44A106.41,106.41,0,0,0,94.22,172" fill="none" stroke="#333" stroke-linecap="round" stroke-linejoin="round" stroke-width="8"/><path d="M107.12,64.1A101.18,101.18,0,0,0,84.38,126" fill="none" stroke="#333" stroke-linecap="round" stroke-linejoin="round" stroke-width="8"/><path d="M142.4,35.81a112,112,0,0,0-21.64,14.38" fill="none" stroke="#333" stroke-linecap="round" stroke-linejoin="round" stroke-width="8"/><path d="M123.45,56.48a113.14,113.14,0,0,1,41.69,7.94" fill="none" stroke="#333" stroke-linecap="round" stroke-linejoin="round" stroke-width="8"/><path d="M55.07,82.4a103.25,103.25,0,0,1,49-24.06" fill="none" stroke="#333" stroke-linecap="round" stroke-linejoin="round" stroke-width="8"/><path d="M25.89,125.38A108.72,108.72,0,0,1,41.76,96.63" fill="none" stroke="#333" stroke-linecap="round" stroke-linejoin="round" stroke-width="8"/><path d="M92.76,141.21a108.93,108.93,0,0,0,49.54,15" fill="none" stroke="#333" stroke-linecap="round" stroke-linejoin="round" stroke-width="8"/><path d="M52.12,98A107.53,107.53,0,0,0,77,129.76" fill="none" stroke="#333" stroke-linecap="round" stroke-linejoin="round" stroke-width="8"/><path d="M39.28,45.42A119.76,119.76,0,0,0,44.71,80" fill="none" stroke="#333" stroke-linecap="round" stroke-linejoin="round" stroke-width="8"/><circle cx="48.06" cy="89.18" r="9.75" transform="translate(-49.13 117.76) rotate(-78.06)" fill="none" stroke="#333" stroke-linecap="round" stroke-linejoin="round" stroke-width="8"/><circle cx="84.65" cy="135.77" r="9.75" transform="translate(-65.69 190.51) rotate(-78.06)" fill="none" stroke="#333" stroke-linecap="round" stroke-linejoin="round" stroke-width="8"/><circle cx="113.7" cy="56.9" r="9.75" transform="translate(34.52 156.38) rotate(-78.06)" fill="none" stroke="#333" stroke-linecap="round" stroke-linejoin="round" stroke-width="8"/><rect width="192" height="192" fill="none"/></svg>