<svg id="54691317-0f8e-439e-ba4c-2404a0d7cf26" data-name="ICON" xmlns="http://www.w3.org/2000/svg" width="192" height="192" viewBox="0 0 192 192"><title>connected-car</title><rect width="192" height="192" fill="none"/><circle cx="92" cy="108" r="6" transform="translate(-49.42 96.69) rotate(-45)" fill="#333"/><path d="M80.69,96.69a16,16,0,0,1,22.63,0" transform="translate(0 0)" fill="none" stroke="#333" stroke-linecap="round" stroke-linejoin="round" stroke-width="8"/><path d="M69.37,85.37a32,32,0,0,1,45.25,0" transform="translate(0 0)" fill="none" stroke="#333" stroke-linecap="round" stroke-linejoin="round" stroke-width="8"/><circle cx="56" cy="128" r="20" fill="none" stroke="#333" stroke-linecap="round" stroke-linejoin="round" stroke-width="8"/><circle cx="136" cy="128" r="20" fill="none" stroke="#333" stroke-linecap="round" stroke-linejoin="round" stroke-width="8"/><line x1="75.6" y1="132" x2="116.4" y2="132" fill="none" stroke="#333" stroke-linecap="round" stroke-linejoin="round" stroke-width="8"/><path d="M27,96S40,77.52,44,72c6-8.33,19-20,36-20h8c13,0,24.38,7,31,12,6.2,4.71,22,22,22,22" transform="translate(0 0)" fill="none" stroke="#333" stroke-linecap="round" stroke-linejoin="round" stroke-width="8"/><path d="M27,96a31.87,31.87,0,0,0-7,20v8a8,8,0,0,0,8,8h8.4" transform="translate(0 0)" fill="none" stroke="#333" stroke-linecap="round" stroke-linejoin="round" stroke-width="8"/><path d="M156,132h8a8,8,0,0,0,8-8h0c0-17.7-14.06-32.71-31-38" transform="translate(0 0)" fill="none" stroke="#333" stroke-linecap="round" stroke-linejoin="round" stroke-width="8"/></svg>