<svg id="c0687e64-b341-40d6-8a2d-87eecbe8d125" data-name="ICON" xmlns="http://www.w3.org/2000/svg" width="192" height="192" viewBox="0 0 192 192"><title>converged-proposition</title><rect width="192" height="192" fill="none"/><g id="37ce789a-9179-4a60-bfe3-70e4213ba0ea" data-name="&lt;Gruppe&gt;"><line id="b79b9c56-e976-4115-afb2-59789ce522c5" data-name="&lt;Pfad&gt;" x1="79.31" y1="148" x2="120.75" y2="148" fill="none" stroke="#333" stroke-linecap="round" stroke-linejoin="round" stroke-width="8"/></g><line id="e0094fb5-72d3-491c-8f51-6264e53e6101" data-name="&lt;Pfad&gt;" x1="48.8" y1="132" x2="140" y2="132" fill="none" stroke="#333" stroke-linecap="round" stroke-linejoin="bevel" stroke-width="8"/><path id="684a2fa0-1d08-465f-9007-e88c73de8e7b" data-name="&lt;Pfad&gt;" d="M164,84V56a12.49,12.49,0,0,0-12-12H40A12.49,12.49,0,0,0,28,56V82.65" fill="none" stroke="#333" stroke-linecap="round" stroke-linejoin="round" stroke-width="8"/><line x1="96" y1="148" x2="96" y2="132" fill="none" stroke="#333" stroke-linecap="round" stroke-linejoin="round" stroke-width="8"/><line x1="156" y1="140" x2="164" y2="140" fill="none" stroke="#333" stroke-linecap="round" stroke-linejoin="round" stroke-width="8"/><rect x="140" y="84" width="40" height="72" rx="6" ry="6" fill="none" stroke="#333" stroke-linecap="round" stroke-linejoin="round" stroke-width="8"/><path id="63d7d15b-97ae-412c-b275-7b44fe9c4894" data-name="&lt;Pfad&gt;" d="M105.5,99.88a13.47,13.47,0,0,0-19,0" fill="none" stroke="#333" stroke-linecap="round" stroke-linejoin="round" stroke-width="8"/><path id="9a49d324-136b-4c27-a44e-7eb98dce18d6" data-name="&lt;Pfad&gt;" d="M115,87.93l0,0h0a26.94,26.94,0,0,0-38.07,0" fill="none" stroke="#333" stroke-linecap="round" stroke-linejoin="round" stroke-width="8"/><path id="432c97e9-7f2a-4443-a4c1-cde9e28cf26b" data-name="&lt;Pfad&gt;" d="M124.53,75.89a40.41,40.41,0,0,0-57.06-.05" fill="none" stroke="#333" stroke-linecap="round" stroke-linejoin="round" stroke-width="8"/><path id="2c2661f0-b350-44f0-84a7-cc204a155c9e" data-name="&lt;Pfad&gt;" d="M54.42,137.81l6.76-3.49c1.72-.54,3.39-.47,4.27.3,1.34,1.15,12.44,11.51,13.38,12.42s1.06,3.07-.76,4.85-10,8.66-12.78,8.08-14.59-2.87-32.93-28.5-16.52-37.22-16.11-40,9.8-7.92,12.13-9,4.36-.16,4.92,1c.63,1.28,6.7,15,7.35,16.54.45,1.07-.07,2.63-1.18,4s-5.61,6.7-5.61,6.7,1.7,4.47,8.48,13.93C45.54,129.21,54.42,137.81,54.42,137.81Z" fill="none" stroke="#333" stroke-linecap="round" stroke-linejoin="round" stroke-width="8"/></svg>