<svg id="52bf20c5-d060-423b-9bdf-0c359ea73790" data-name="ICON" xmlns="http://www.w3.org/2000/svg" width="192" height="192" viewBox="0 0 192 192"><title>country-or-international</title><g id="b891d03a-d654-4a04-a157-e28b8d56b34b" data-name="Country_or_International_ic"><path id="49040b86-9a6f-4772-a826-475df6e0e20b" data-name="&lt;Pfad&gt;" d="M102.24,20.22C124.33,39.9,140,66.54,140,96c0,29.13-16.1,56.17-37.76,75.78" transform="translate(0 0)" fill="none" stroke="#333" stroke-linecap="round" stroke-linejoin="round" stroke-width="8"/><path id="97fb4027-f08c-4df5-9a9d-c3a77dfa9935" data-name="&lt;Pfad&gt;" d="M89.76,20.22C67.67,39.9,52,66.54,52,96c0,29.13,16.1,56.17,37.76,75.78" transform="translate(0 0)" fill="none" stroke="#333" stroke-linecap="round" stroke-linejoin="round" stroke-width="8"/><line id="eda3c070-4fea-47b2-bbe0-96a13a6d2db2" data-name="&lt;Pfad&gt;" x1="20" y1="96" x2="172" y2="96" fill="none" stroke="#333" stroke-linecap="round" stroke-linejoin="round" stroke-width="8"/><line id="510cb99e-b750-4354-a439-7da9584eadc0" data-name="&lt;Pfad&gt;" x1="96" y1="172" x2="96" y2="20" fill="none" stroke="#333" stroke-linecap="round" stroke-linejoin="round" stroke-width="8"/><path id="e316a602-f12a-49ea-8044-7bc467d3c5bd" data-name="&lt;Pfad&gt;" d="M154.27,47.19C137,59.61,117.8,68,96,68c-21.52,0-40.92-8.44-58.26-20.81" transform="translate(0 0)" fill="none" stroke="#333" stroke-linecap="round" stroke-linejoin="round" stroke-width="8"/><path id="27926529-0b25-49fe-9f99-3796074da005" data-name="&lt;Pfad&gt;" d="M37.76,144.81C55,132.39,74.22,124,96,124c21.52,0,40.92,8.44,58.26,20.81" transform="translate(0 0)" fill="none" stroke="#333" stroke-linecap="round" stroke-linejoin="round" stroke-width="8"/><circle cx="96" cy="96" r="76" fill="none" stroke="#333" stroke-linecap="round" stroke-linejoin="round" stroke-width="8"/><rect width="192" height="192" fill="none"/></g></svg>