<svg id="38ef7c2d-ee43-4e87-a7ea-76f0cdfa7094" data-name="ICON" xmlns="http://www.w3.org/2000/svg" width="192" height="192" viewBox="0 0 192 192"><title>deals</title><g id="1f1e5cf6-cd86-4da5-99e8-aba8d46d2744" data-name="Deal_ic 4"><path d="M135.78,110.39l17,9.79a9.79,9.79,0,0,1,3.58,13.37h0a9.79,9.79,0,0,1-13.37,3.58l-42.39-24.47" transform="translate(0 0)" fill="none" stroke="#333" stroke-linecap="round" stroke-linejoin="round" stroke-width="8"/><path d="M134.47,132.25A9.79,9.79,0,0,1,138,145.62h0a9.79,9.79,0,0,1-13.37,3.58L90.76,129.62" transform="translate(0 0)" fill="none" stroke="#333" stroke-linecap="round" stroke-linejoin="round" stroke-width="8"/><path d="M116.2,144.31a9.79,9.79,0,0,1,3.58,13.37h0a9.79,9.79,0,0,1-13.37,3.58l-1.13-.65L39.72,122.76l-1.13-.65A39.16,39.16,0,0,1,24.25,68.61l9.79-17A39.16,39.16,0,0,1,87.53,37.32l3.41,2" transform="translate(0 0)" fill="none" stroke="#333" stroke-linecap="round" stroke-linejoin="round" stroke-width="8"/><path d="M162.52,103.23l1.22-2.12a39.16,39.16,0,0,0-14.33-53.49l-17-9.79A39.16,39.16,0,0,0,79,52.16L52.63,96l7,2.63A12,12,0,0,0,72,96.2L88.92,77.85c11.63,4.95,19.59,1.74,26.14-2l47.49,27.4a9.79,9.79,0,0,1,3.58,13.37h0a9.79,9.79,0,0,1-13.37,3.58L110.34,95.71" transform="translate(0 0)" fill="none" stroke="#333" stroke-linecap="round" stroke-linejoin="round" stroke-width="8"/><rect width="192" height="192" fill="none"/></g></svg>