<svg id="1862943b-95b0-428b-9d2d-5fc186e296c2" data-name="Ebene 5" xmlns="http://www.w3.org/2000/svg" width="192" height="192" viewBox="0 0 192 192"><title>device-diagnostics</title><path d="M140,113a12,12,0,1,1,12-12A12,12,0,0,1,140,113Z" fill="none" stroke="#333" stroke-linecap="round" stroke-linejoin="round" stroke-width="8"/><path d="M48,108.5V136a20,20,0,0,0,20,20h0a20,20,0,0,0,20-20V86.92A26,26,0,0,1,113.95,61h.1A26,26,0,0,1,140,86.92v2" fill="none" stroke="#333" stroke-linecap="round" stroke-linejoin="round" stroke-width="8"/><path d="M39.63,39H35.37A1.43,1.43,0,0,1,34,37.53v-.06A1.43,1.43,0,0,1,35.37,36h4.26A1.43,1.43,0,0,1,41,37.47v.06A1.43,1.43,0,0,1,39.63,39Z" fill="none" stroke="#333" stroke-linecap="round" stroke-linejoin="round" stroke-width="8"/><path d="M63.41,38.06C73.26,40,76.82,50.37,75.11,61.24l-4.9,26.86C67.7,103,58.14,108.21,48,108.18S28.31,102.94,25.73,88l-5-26.88C18.92,50.24,22.43,39.88,32.27,38" fill="none" stroke="#333" stroke-linecap="round" stroke-linejoin="round" stroke-width="8"/><path d="M56.37,39h4.26A1.43,1.43,0,0,0,62,37.53v-.06A1.43,1.43,0,0,0,60.63,36H56.37A1.43,1.43,0,0,0,55,37.47v.06A1.43,1.43,0,0,0,56.37,39Z" fill="none" stroke="#333" stroke-linecap="round" stroke-linejoin="round" stroke-width="8"/><line x1="132" y1="140" x2="148" y2="140" fill="none" stroke="#333" stroke-linecap="round" stroke-linejoin="round" stroke-width="8"/><path d="M108,48a12,12,0,0,1,12-12h40a12,12,0,0,1,12,12v96a12,12,0,0,1-12,12H120a12,12,0,0,1-12-12V76" fill="none" stroke="#333" stroke-linecap="round" stroke-linejoin="round" stroke-width="8"/><rect width="192" height="192" fill="none"/></svg>