<svg id="a86673e7-84ec-4a58-a36d-f6b799a489bb" data-name="ICON" xmlns="http://www.w3.org/2000/svg" width="192" height="192" viewBox="0 0 192 192"><title>device-overview-iot</title><rect width="192" height="192" fill="none"/><path d="M76,164H28a8,8,0,0,1-8-8h0a8,8,0,0,1,8-8h8.4" transform="translate(0)" fill="none" stroke="#333" stroke-linecap="round" stroke-linejoin="round" stroke-width="8"/><circle cx="56" cy="128" r="28" fill="none" stroke="#333" stroke-miterlimit="10" stroke-width="8"/><path d="M75.6,148H126a30,30,0,0,0,30-30V58a30,30,0,0,0-30-30H66A30,30,0,0,0,36,58v50.4" transform="translate(0)" fill="none" stroke="#333" stroke-linecap="round" stroke-linejoin="round" stroke-width="8"/><polyline points="156 116 172 116 172 60 156 60" fill="none" stroke="#333" stroke-linecap="round" stroke-linejoin="round" stroke-width="8"/></svg>