<svg id="db55093a-0afd-46cf-9b87-c389586ed4c4" data-name="ICON" xmlns="http://www.w3.org/2000/svg" width="192" height="192" viewBox="0 0 192 192"><title>diagnostics</title><g id="c6b9841e-ceda-43aa-829a-929e3b2888bd" data-name="SIM_ic"><g id="11565a48-57bd-44da-a87f-edf556c82382" data-name="Payment_ic"><path d="M160,136a12,12,0,1,1,12-12A12,12,0,0,1,160,136Z" fill="none" stroke="#333" stroke-linecap="round" stroke-linejoin="round" stroke-width="8"/><path d="M60,116v26a30,30,0,0,0,30,30h0a30,30,0,0,0,30-30V80a20,20,0,0,1,20-20h0a20,20,0,0,1,20,20v32" fill="none" stroke="#333" stroke-linecap="round" stroke-linejoin="round" stroke-width="8"/><rect x="42" y="19.8" width="10" height="4" rx="1.96" ry="1.96" fill="none" stroke="#333" stroke-linecap="round" stroke-linejoin="round" stroke-width="8"/><path d="M78.22,22.32C92.55,24.69,102.12,37.53,99.6,51L92.37,84.25C88.67,102.75,74.74,116,60,116S31.33,102.75,27.63,84.25L20.37,51c-2.53-13.46,7-26.29,21.37-28.67" fill="none" stroke="#333" stroke-linecap="round" stroke-linejoin="round" stroke-width="8"/><rect x="67.97" y="19.8" width="10" height="4" rx="1.96" ry="1.96" fill="none" stroke="#333" stroke-linecap="round" stroke-linejoin="round" stroke-width="8"/></g></g><rect width="192" height="192" fill="none"/></svg>