<svg id="534ed8ff-3411-4a6c-b15e-d6638aa69290" data-name="ICON" xmlns="http://www.w3.org/2000/svg" width="192" height="192" viewBox="0 0 192 192"><title>dislike</title><g id="1a40c217-1008-418b-bbae-447ac73acf4a" data-name="Dislike 2"><rect width="192" height="192" fill="none"/><g id="438d4a9b-85b5-4719-96b5-cbf35ce3a57f" data-name="Like_ic"><path d="M43.21,20H145.58c11.53,0,21,8.94,15.87,21.45C173.2,55,167,65.25,167,65.25s11.11,12.06.32,23.8c2.79,7.85,4.4,14.79-5.84,21.73s-34.54.18-43.42-.91c-11.9,3.8,23.55,61.14-14.19,62.13-.16-.41-4.4,1-3.2-13.88,0-15.53-29.31-50.11-38.9-63.57" fill="none" stroke="#333" stroke-linejoin="round" stroke-width="8"/><path d="M68,20H40A20,20,0,0,0,20,40V80a20,20,0,0,0,20,20h8A20,20,0,0,0,68,80Z" fill="none" stroke="#333" stroke-linecap="round" stroke-linejoin="round" stroke-width="8"/></g></g></svg>