<svg id="b27c2cfc-6ba4-4ae8-97f4-76848181f699" data-name="ICON" xmlns="http://www.w3.org/2000/svg" width="192" height="192" viewBox="0 0 192 192"><title>document-png</title><path d="M58.74,118.4V93.2h7.35s7.35-.53,7.35,7.35-7.35,7.35-7.35,7.35H58.74" fill="none" stroke="#333" stroke-linecap="round" stroke-linejoin="round" stroke-width="8"/><path d="M127.51,107.5h5.25v10.37s-14.32,4.89-16.39-7.71c-2.1-12.79,6.08-15.43,7.68-15.81.94-.22,6.4-1,8.19,3.05" fill="none" stroke="#333" stroke-linecap="round" stroke-linejoin="round" stroke-width="8"/><polyline points="86.07 118.4 86.07 93.2 102.87 118.4 102.87 93.2" fill="none" stroke="#333" stroke-linecap="round" stroke-linejoin="round" stroke-width="8"/><rect width="192" height="192" fill="none"/><path d="M148,52,116,20H56A12,12,0,0,0,44,32V160a12,12,0,0,0,12,12h80a12,12,0,0,0,12-12V52Z" fill="none" stroke="#333" stroke-linejoin="round" stroke-width="8"/><polyline points="116 20 116 52 148 52" fill="none" stroke="#333" stroke-linecap="round" stroke-linejoin="round" stroke-width="8"/></svg>