<svg id="dafd01e5-7eb9-462e-9f2f-25e8ca0d99ce" data-name="ICON" xmlns="http://www.w3.org/2000/svg" width="192" height="192" viewBox="0 0 192 192"><title>document-svg</title><rect width="192" height="192" fill="none"/><path d="M59.78,117.31s3,2.47,8.51,2.14c2.78-.17,6.64-1.93,6-7a6.53,6.53,0,0,0-2.76-4.08,25.53,25.53,0,0,0-7.61-3.65s-4.08-1.12-4.12-5.1A6.24,6.24,0,0,1,66,93a10.71,10.71,0,0,1,7.74,2.25" fill="none" stroke="#333" stroke-linecap="round" stroke-linejoin="round" stroke-width="8"/><path d="M127,107.5h5.25V118s-14.32,4.89-16.39-7.71c-2.1-12.79,6.08-15.43,7.68-15.81.94-.22,6.4-1,8.19,3.05" fill="none" stroke="#333" stroke-linecap="round" stroke-linejoin="round" stroke-width="8"/><polyline points="85.8 94.39 95.25 118.54 104.17 94.39" fill="none" stroke="#333" stroke-linecap="round" stroke-linejoin="round" stroke-width="8"/><path d="M148,52,116,20H56A12,12,0,0,0,44,32V160a12,12,0,0,0,12,12h80a12,12,0,0,0,12-12V52Z" fill="none" stroke="#333" stroke-linejoin="round" stroke-width="8"/><polyline points="116 20 116 52 148 52" fill="none" stroke="#333" stroke-linecap="round" stroke-linejoin="round" stroke-width="8"/></svg>