<svg id="d20ba1fb-469b-46d6-b809-4441eca7983b" data-name="ICON" xmlns="http://www.w3.org/2000/svg" width="192" height="192" viewBox="0 0 192 192"><title>document-zip</title><rect width="192" height="192" fill="none"/><line x1="95.24" y1="118.6" x2="95.24" y2="93.4" fill="none" stroke="#333" stroke-linecap="round" stroke-linejoin="round" stroke-width="8"/><path d="M111.26,118.6V93.4h7.35s7.35-.53,7.35,7.35-7.35,7.35-7.35,7.35h-7.35" fill="none" stroke="#333" stroke-linecap="round" stroke-linejoin="round" stroke-width="8"/><polyline points="64.53 93.4 81.33 93.4 64.53 118.6 81.33 118.6" fill="none" stroke="#333" stroke-linecap="round" stroke-linejoin="round" stroke-width="8"/><path d="M148,52,116,20H56A12,12,0,0,0,44,32V160a12,12,0,0,0,12,12h80a12,12,0,0,0,12-12V52Z" fill="none" stroke="#333" stroke-linejoin="round" stroke-width="8"/><polyline points="116 20 116 52 148 52" fill="none" stroke="#333" stroke-linecap="round" stroke-linejoin="round" stroke-width="8"/></svg>