<svg id="3a60ce0f-5614-4617-85f3-ef126573ccf3" data-name="ICON" xmlns="http://www.w3.org/2000/svg" width="192" height="192" viewBox="0 0 192 192"><title>document-jpg</title><rect width="192" height="192" fill="none"/><path d="M85.59,118.25V93.05h7.35s7.35-.53,7.35,7.35-7.35,7.35-7.35,7.35H85.59" fill="none" stroke="#333" stroke-linecap="round" stroke-linejoin="round" stroke-width="8"/><path d="M69.84,93.05v21.09a4.16,4.16,0,0,1-1.43,3.17c-1.58,1.35-4.52,2.7-9.07.42" fill="none" stroke="#333" stroke-linecap="round" stroke-linejoin="round" stroke-width="8"/><path d="M123.84,107.5h5.25v10.23s-14.32,4.89-16.39-7.71c-2.1-12.79,6.08-15.43,7.68-15.81.94-.22,6.4-1,8.19,3.05" fill="none" stroke="#333" stroke-linecap="round" stroke-linejoin="round" stroke-width="8"/><path d="M148,52,116,20H56A12,12,0,0,0,44,32V160a12,12,0,0,0,12,12h80a12,12,0,0,0,12-12V52Z" fill="none" stroke="#333" stroke-linejoin="round" stroke-width="8"/><polyline points="116 20 116 52 148 52" fill="none" stroke="#333" stroke-linecap="round" stroke-linejoin="round" stroke-width="8"/></svg>