<svg id="07f61c59-e061-407f-99bf-61a22c3f4aaf" data-name="ICON" xmlns="http://www.w3.org/2000/svg" width="192" height="192" viewBox="0 0 192 192"><title>document-xls</title><rect width="192" height="192" fill="none"/><polyline points="90.4 93.34 90.4 118.54 103 118.54" fill="none" stroke="#333" stroke-linecap="round" stroke-linejoin="round" stroke-width="8"/><line x1="60.75" y1="93.34" x2="76.5" y2="118.54" fill="none" stroke="#333" stroke-linecap="round" stroke-linejoin="round" stroke-width="8"/><line x1="60.22" y1="118.54" x2="75.97" y2="93.34" fill="none" stroke="#333" stroke-linecap="round" stroke-linejoin="round" stroke-width="8"/><path d="M115.44,117.07s3,2.47,8.51,2.14c2.78-.17,6.64-1.93,6-7s-10.37-7.73-10.37-7.73-4.08-1.12-4.12-5.1a6.24,6.24,0,0,1,6.24-6.63A10.71,10.71,0,0,1,129.41,95" fill="none" stroke="#333" stroke-linecap="round" stroke-linejoin="round" stroke-width="8"/><path d="M148,52,116,20H56A12,12,0,0,0,44,32V160a12,12,0,0,0,12,12h80a12,12,0,0,0,12-12V52Z" fill="none" stroke="#333" stroke-linejoin="round" stroke-width="8"/><polyline points="116 20 116 52 148 52" fill="none" stroke="#333" stroke-linecap="round" stroke-linejoin="round" stroke-width="8"/></svg>