<svg id="fbb81b99-57ca-440d-a3cf-5e60b618f81d" data-name="ICON" xmlns="http://www.w3.org/2000/svg" width="192" height="192" viewBox="0 0 192 192"><title>document-rtf</title><rect width="192" height="192" fill="none"/><line x1="97.01" y1="118.6" x2="97.01" y2="93.4" fill="none" stroke="#333" stroke-linecap="round" stroke-linejoin="round" stroke-width="8"/><path d="M62.89,118.6V93.4h7.35s7.35-.53,7.35,7.35-7.35,7.35-7.35,7.35H62.89" fill="none" stroke="#333" stroke-linecap="round" stroke-linejoin="round" stroke-width="8"/><line x1="88.61" y1="93.4" x2="105.41" y2="93.4" fill="none" stroke="#333" stroke-linecap="round" stroke-linejoin="round" stroke-width="8"/><line x1="70.76" y1="108.1" x2="76.54" y2="118.6" fill="none" stroke="#333" stroke-linecap="round" stroke-linejoin="round" stroke-width="8"/><polyline points="118.01 118.6 118.01 93.4 130.61 93.4" fill="none" stroke="#333" stroke-linecap="round" stroke-linejoin="round" stroke-width="8"/><line x1="118.01" y1="106" x2="128.51" y2="106" fill="none" stroke="#333" stroke-linecap="round" stroke-linejoin="round" stroke-width="8"/><path d="M148,52,116,20H56A12,12,0,0,0,44,32V160a12,12,0,0,0,12,12h80a12,12,0,0,0,12-12V52Z" fill="none" stroke="#333" stroke-linejoin="round" stroke-width="8"/><polyline points="116 20 116 52 148 52" fill="none" stroke="#333" stroke-linecap="round" stroke-linejoin="round" stroke-width="8"/></svg>