<svg id="95e62dca-a30f-402d-aa96-bca0bd8d734f" data-name="ICON" xmlns="http://www.w3.org/2000/svg" width="192" height="192" viewBox="0 0 192 192"><title>document-pdf</title><rect width="192" height="192" fill="none"/><polyline points="118.06 118.6 118.06 93.4 130.66 93.4" fill="none" stroke="#333" stroke-linecap="round" stroke-linejoin="round" stroke-width="8"/><path d="M89.19,93.4v25.2s15.23,2.1,15.23-12.6S89.19,93.4,89.19,93.4Z" fill="none" stroke="#333" stroke-linecap="round" stroke-linejoin="round" stroke-width="8"/><path d="M60.84,118.6V93.4h7.35s7.35-.53,7.35,7.35-7.35,7.35-7.35,7.35H60.84" fill="none" stroke="#333" stroke-linecap="round" stroke-linejoin="round" stroke-width="8"/><line x1="118.06" y1="106" x2="128.56" y2="106" fill="none" stroke="#333" stroke-linecap="round" stroke-linejoin="round" stroke-width="8"/><path d="M148,52,116,20H56A12,12,0,0,0,44,32V160a12,12,0,0,0,12,12h80a12,12,0,0,0,12-12V52Z" fill="none" stroke="#333" stroke-linejoin="round" stroke-width="8"/><polyline points="116 20 116 52 148 52" fill="none" stroke="#333" stroke-linecap="round" stroke-linejoin="round" stroke-width="8"/></svg>