<svg id="78514ff2-83c6-4979-9195-b9b3b900469c" data-name="ICON" xmlns="http://www.w3.org/2000/svg" width="192" height="192" viewBox="0 0 192 192"><title>cloud-download</title><g id="ea531758-bf67-4275-a57c-b126455816b6" data-name="Cloud_download"><g id="52e39435-eac0-4fc3-8747-febefe78d60d" data-name="&lt;Gruppe&gt;"><path id="c799f7ea-080d-45c2-8385-e9a05b643951" data-name="&lt;Pfad&gt;" d="M118.35,124s22.44.86,31.19-3a38.28,38.28,0,0,0,22.28-31c1.31-13.09-4.66-27.47-15.95-34.43-5.61-3.46-12.16-4.85-18.71-5.42a77.58,77.58,0,0,0-11.19.51A43.8,43.8,0,0,0,88.06,20.12a42.57,42.57,0,0,0-35.72,15.1,44.13,44.13,0,0,0-8.91,17.46c-.43,1.69-1.28,6.43-1.28,6.43A33.47,33.47,0,0,0,30.28,65.9C19.77,75.3,17.21,91.36,23.09,104c5.34,11.48,16.81,20,29.57,20h21" fill="none" stroke="#333" stroke-linecap="round" stroke-linejoin="round" stroke-width="8"/></g><line x1="96" y1="88" x2="96" y2="172" fill="none" stroke="#333" stroke-linecap="round" stroke-linejoin="round" stroke-width="8"/><rect width="192" height="192" fill="none"/><polyline points="122 144 96 172 70 144" fill="none" stroke="#333" stroke-linecap="round" stroke-linejoin="round" stroke-width="8"/></g></svg>