<svg id="11dd0f24-ec2f-4656-9548-775259b7987e" data-name="Ebene 5" xmlns="http://www.w3.org/2000/svg" width="192" height="192" viewBox="0 0 192 192"><title>dwdm-muxer</title><path d="M95.87,96l19.61-32.91a5.48,5.48,0,0,1,4.7-2.67h20.74" fill="none" stroke="#333" stroke-linecap="round" stroke-linejoin="round" stroke-width="8"/><path d="M95.87,96l-19,32.85a5.48,5.48,0,0,1-4.74,2.74H50.79" fill="none" stroke="#333" stroke-linecap="round" stroke-linejoin="round" stroke-width="8"/><path d="M95.87,96l-19-32.85a5.48,5.48,0,0,0-4.74-2.74H50.79" fill="none" stroke="#333" stroke-linecap="round" stroke-linejoin="round" stroke-width="8"/><polyline points="61.8 49.41 50.79 60.41 61.8 71.42" fill="none" stroke="#333" stroke-linecap="round" stroke-linejoin="round" stroke-width="8"/><polyline points="130.2 71.42 141.21 60.41 130.2 49.41" fill="none" stroke="#333" stroke-linecap="round" stroke-linejoin="round" stroke-width="8"/><polyline points="61.8 120.58 50.79 131.59 61.8 142.59" fill="none" stroke="#333" stroke-linecap="round" stroke-linejoin="round" stroke-width="8"/><polyline points="130.2 142.59 141.21 131.59 130.2 120.58" fill="none" stroke="#333" stroke-linecap="round" stroke-linejoin="round" stroke-width="8"/><path d="M95.87,96l19.61,32.91a5.48,5.48,0,0,0,4.7,2.67h20.74" fill="none" stroke="#333" stroke-linecap="round" stroke-linejoin="round" stroke-width="8"/><rect width="192" height="192" fill="none"/><rect x="28" y="28" width="136" height="136" rx="12" ry="12" fill="none" stroke="#333" stroke-linecap="round" stroke-linejoin="round" stroke-width="8"/></svg>