<svg id="834874e9-ef05-4048-9fc7-88368dc921ab" data-name="ICON" xmlns="http://www.w3.org/2000/svg" width="192" height="192" viewBox="0 0 192 192"><title>entertainment</title><g id="9ef45046-d0ed-496f-a5b0-0be82d4ce66b" data-name="Entertainment_ic"><path d="M68.61,109.67,80,57.15c.85-2.81,2.86-4.48,4.33-4.48a1.87,1.87,0,0,1,.7.14A293.06,293.06,0,0,0,169.3,72.69,2.32,2.32,0,0,1,171,73.76a7,7,0,0,1,.79,5.63l-10.64,45.13c-4.21,15.15-19.47,30.32-44.14,43.86a21.33,21.33,0,0,1-27.78-6.56c-13.79-19.92-20.8-37.74-20.6-52.15" fill="none" stroke="#333" stroke-linecap="round" stroke-linejoin="round" stroke-width="8"/><path d="M68.61,109.65a16.22,16.22,0,0,1-2.41-.91A116.2,116.2,0,0,1,48.58,98.63c-9.79-7-16.05-14.5-18.39-22.26L20.17,43c-.51-2.18.18-4.06,1.16-4.62a1.43,1.43,0,0,1,.52-.18,223.93,223.93,0,0,0,63.32-19,1.77,1.77,0,0,1,1.52.07,5.37,5.37,0,0,1,2.67,3.42L100.6,58.5" fill="none" stroke="#333" stroke-linecap="round" stroke-linejoin="round" stroke-width="8"/><path d="M93.53,130.58s2.92,7.95,15.92,11.22,18.77-2.49,18.77-2.49" fill="none" stroke="#333" stroke-linecap="round" stroke-linejoin="round" stroke-width="8"/><line id="a3227bb3-16a4-47d7-863b-ffcfd17406c3" data-name="&lt;Pfad&gt;" x1="104.41" y1="93.85" x2="95.47" y2="93.85" fill="none" stroke="#333" stroke-linecap="round" stroke-miterlimit="10" stroke-width="8"/><line id="365b88a8-61c3-49ef-b945-867dc73368f5" data-name="&lt;Pfad&gt;" x1="140.34" y1="107.58" x2="134.02" y2="101.25" fill="none" stroke="#333" stroke-linecap="round" stroke-miterlimit="10" stroke-width="8"/><rect width="192" height="192" fill="none"/></g></svg>