<svg id="ad0c9a4a-db58-4bda-8b33-5cd29d7e9138" data-name="ICON" xmlns="http://www.w3.org/2000/svg" width="192" height="192" viewBox="0 0 192 192"><title>enterprise</title><g id="68290bd9-1d1d-41e2-bd6c-257a8c1b6f4e" data-name="Enterprise_ic 2"><g id="cd84d74e-4027-49e3-808b-fe8c72951841" data-name="icons"><line x1="20" y1="172" x2="172" y2="172" fill="none" stroke="#333" stroke-linecap="round" stroke-linejoin="round" stroke-width="8"/><line x1="56.73" y1="172" x2="56.73" y2="140" fill="none" stroke="#333" stroke-linecap="round" stroke-linejoin="round" stroke-width="8"/><rect width="192" height="192" fill="none"/><path d="M52,65V32A12,12,0,0,1,64,20h64a12,12,0,0,1,12,12V99.5" fill="none" stroke="#333" stroke-miterlimit="10" stroke-width="8"/><path d="M28,172V80A12,12,0,0,1,40,68H72A12,12,0,0,1,84,80v92" fill="none" stroke="#333" stroke-linejoin="round" stroke-width="8"/><path d="M108,172V112a12,12,0,0,1,12-12h32a12,12,0,0,1,12,12v60" fill="none" stroke="#333" stroke-linejoin="round" stroke-width="8"/></g></g></svg>