<svg id="515bd197-c834-4505-b3c5-0ddad5020e94" data-name="ICON" xmlns="http://www.w3.org/2000/svg" width="192" height="192" viewBox="0 0 192 192"><title>error-simple</title><path d="M96,121a4,4,0,0,1-4-4V39a4,4,0,0,1,8,0v78A4,4,0,0,1,96,121Z" fill="none" stroke="#333" stroke-miterlimit="10" stroke-width="8"/><path d="M96,119a2.5,2.5,0,0,1-2.5-2.5v-77a2.5,2.5,0,0,1,5,0v77A2.5,2.5,0,0,1,96,119Z" fill="none" stroke="#333" stroke-miterlimit="10" stroke-width="8"/><path d="M96,117a1,1,0,0,1-1-1V40a1,1,0,0,1,2,0v76A1,1,0,0,1,96,117Z" fill="none" stroke="#333" stroke-miterlimit="10" stroke-width="8"/><rect width="192" height="192" fill="none"/><circle cx="96" cy="150" r="4" fill="none" stroke="#333" stroke-linecap="round" stroke-linejoin="round" stroke-width="8"/><circle cx="96" cy="150" r="6" fill="none" stroke="#333" stroke-linecap="round" stroke-linejoin="round" stroke-width="8"/><circle cx="96" cy="150" r="2.5" fill="none" stroke="#333" stroke-linecap="round" stroke-linejoin="round" stroke-width="8"/><circle cx="96" cy="150" r="1" fill="none" stroke="#333" stroke-linecap="round" stroke-linejoin="round" stroke-width="8"/></svg>