<svg id="1e26eebb-baa7-47ee-a9d1-ee2235dca635" data-name="ICON" xmlns="http://www.w3.org/2000/svg" width="192" height="192" viewBox="0 0 192 192"><title>family</title><g id="4fecdfe1-bd53-47cf-9962-67902891576e" data-name="Family"><rect width="192" height="192" fill="none"/><rect width="192" height="192" fill="none"/><circle cx="72" cy="64" r="28" fill="none" stroke="#333" stroke-linecap="round" stroke-linejoin="round" stroke-width="8"/><circle cx="132" cy="72" r="20" fill="none" stroke="#333" stroke-linecap="round" stroke-linejoin="round" stroke-width="8"/><path d="M67,91.49" transform="translate(0 0)" fill="none" stroke="#333" stroke-linecap="round" stroke-linejoin="round" stroke-width="8"/><path d="M28,140c4.88-29.77,22.34-47.94,44-47.94a36.73,36.73,0,0,1,19.08,5.28l.31.19" transform="translate(0 0)" fill="none" stroke="#333" stroke-linecap="round" stroke-miterlimit="10" stroke-width="8"/><path d="M116.29,96.81A27.75,27.75,0,0,1,132,92c15.75,0,28.44,12.62,32,33.27" transform="translate(0 0)" fill="none" stroke="#333" stroke-linecap="round" stroke-miterlimit="10" stroke-width="8"/><g id="fe6d20c6-2e24-49ee-927d-3c1a7a0394d7" data-name="Family_ic 8"><circle id="7c183511-8c03-4773-a0a8-5edac6a84ae5" data-name="&lt;Pfad&gt;" cx="104" cy="108.93" r="17.01" fill="none" stroke="#333" stroke-linecap="round" stroke-linejoin="round" stroke-width="8"/><path id="12ee3f3c-90e4-4e18-a968-4a34ab8a3fdb" data-name="&lt;Pfad&gt;" d="M131.65,156c-3.44-19.88-14.81-30.12-27.48-30.12S79.79,136.12,76.35,156" transform="translate(0 0)" fill="none" stroke="#333" stroke-linecap="round" stroke-linejoin="round" stroke-width="8"/><rect width="192" height="192" fill="none"/></g><path d="M116.07,96.9" transform="translate(0 0)" fill="none" stroke="#333" stroke-linecap="round" stroke-miterlimit="10" stroke-width="8"/></g></svg>