<svg id="3cd43a95-c872-49d7-aa98-a2f2e80ae14b" data-name="ICON" xmlns="http://www.w3.org/2000/svg" width="192" height="192" viewBox="0 0 192 192"><title>fitness-tracker</title><rect width="192" height="192" fill="none"/><path d="M72,140l3.34,26.74a6,6,0,0,0,6,5.26H110.7a6,6,0,0,0,6-5.26L120,140" fill="none" stroke="#333" stroke-linecap="round" stroke-linejoin="round" stroke-width="8"/><rect x="52" y="52" width="88" height="88" rx="18" ry="18" fill="none" stroke="#333" stroke-linecap="round" stroke-linejoin="round" stroke-width="8"/><path d="M72,52l3.34-26.74a6,6,0,0,1,6-5.26H110.7a6,6,0,0,1,6,5.26L120,52" fill="none" stroke="#333" stroke-linecap="round" stroke-linejoin="round" stroke-width="8"/><path id="5a24c8ed-b8b3-40ca-8900-60e17e434bcc" data-name="60ad332e-2c09-4d6a-b449-786e9202bb97" d="M97.23,83.7a10.93,10.93,0,0,0-1.53-3.12A10.79,10.79,0,0,0,86.89,76c-6,0-11.27,4.9-10.87,10.92C77,101,96,116,96,116c21.11-16.78,20-28.82,20-28.82,0-6-4.61-11.18-10.58-11.18a10.37,10.37,0,0,0-9.11,5.53" fill="none" stroke="#333" stroke-linecap="round" stroke-linejoin="round" stroke-width="8"/></svg>