<svg id="1a90f3c8-d905-4d50-82f3-8851a992272c" data-name="ICON" xmlns="http://www.w3.org/2000/svg" width="192" height="192" viewBox="0 0 192 192"><title>forum</title><path d="M140.93,147.41a27.58,27.58,0,0,0,12.44,15.8c-11.53,2.59-26.08-1.27-33.72-5.46-1.55-.85-6-3.78-6-3.78" fill="none" stroke="#333" stroke-linecap="round" stroke-linejoin="round" stroke-width="8"/><path d="M65.79,97.1c-6.85,3.18-21.45,7.37-31,5.17A22,22,0,0,0,45.17,89l-.4-.46C34.55,82.3,28,72.62,28,62c0-18.41,19.7-34,44-34s44,15.58,44,34a26,26,0,0,1-3.19,12.58c-.2.36-.81,1.42-.81,1.42" fill="none" stroke="#333" stroke-linecap="round" stroke-linejoin="round" stroke-width="8"/><rect width="192" height="192" fill="none"/><path d="M113.66,154,112,154c-28.72,0-52-17.46-52-39s23.28-39,52-39,52,17.46,52,39c0,13.51-9.16,25.41-23.07,32.41" fill="none" stroke="#333" stroke-linecap="round" stroke-linejoin="round" stroke-width="8"/><circle cx="88.13" cy="116.13" r="1.94" fill="none" stroke="#333" stroke-linecap="round" stroke-linejoin="round" stroke-width="8"/><circle cx="88.13" cy="116.13" r="0.77" fill="none" stroke="#333" stroke-linecap="round" stroke-linejoin="round" stroke-width="8"/><circle cx="112.12" cy="116.13" r="1.94" fill="none" stroke="#333" stroke-linecap="round" stroke-linejoin="round" stroke-width="8"/><circle cx="112.13" cy="116.13" r="0.77" fill="none" stroke="#333" stroke-linecap="round" stroke-linejoin="round" stroke-width="8"/><circle cx="136.22" cy="116.13" r="1.94" fill="none" stroke="#333" stroke-linecap="round" stroke-linejoin="round" stroke-width="8"/><circle cx="136.23" cy="116.13" r="0.77" fill="none" stroke="#333" stroke-linecap="round" stroke-linejoin="round" stroke-width="8"/></svg>