<svg id="0590fcb8-09ef-4f6b-91ec-0ea8cd419a41" data-name="ICON" xmlns="http://www.w3.org/2000/svg" width="192" height="192" viewBox="0 0 192 192"><title>generic-device-iot</title><rect width="192" height="192" fill="none"/><path d="M124,166V98a6,6,0,0,1,6-6h26l16,16v58a6,6,0,0,1-6,6H130A6,6,0,0,1,124,166Z" transform="translate(0)" fill="none" stroke="#333" stroke-linecap="round" stroke-linejoin="round" stroke-width="8"/><rect x="140" y="124" width="16" height="32" rx="4" ry="4" fill="none" stroke="#333" stroke-linecap="round" stroke-linejoin="round" stroke-width="8"/><path d="M124,143.37A298,298,0,0,1,96,172S36,120,36,80a60,60,0,0,1,120,0,49,49,0,0,1-1.6,12" transform="translate(0)" fill="none" stroke="#333" stroke-linecap="round" stroke-linejoin="round" stroke-width="8"/></svg>