<svg id="f0c20e4a-4900-4f21-a13d-400613a98965" data-name="ICON" xmlns="http://www.w3.org/2000/svg" width="192" height="192" viewBox="0 0 192 192"><title>GIGA_TV_A</title><line x1="78.67" y1="84" x2="78.67" y2="52" fill="none" stroke="#333" stroke-linecap="round" stroke-linejoin="round" stroke-width="8"/><path id="ddb62123-576c-4077-8757-f2a81ea9ba56" data-name="&lt;Pfad&gt;" d="M20.07,81.17" fill="none" stroke="#333" stroke-linecap="round" stroke-linejoin="round" stroke-width="8"/><rect x="20" y="28" width="152" height="136" rx="8" ry="8" fill="none" stroke="#333" stroke-linecap="round" stroke-linejoin="round" stroke-width="8"/><line x1="112.02" y1="140" x2="122.44" y2="108.01" fill="none" stroke="#333" stroke-linecap="round" stroke-linejoin="round" stroke-width="8"/><line x1="112.02" y1="140" x2="102" y2="108.01" fill="none" stroke="#333" stroke-linecap="round" stroke-linejoin="round" stroke-width="8"/><line x1="79.5" y1="140" x2="79.5" y2="108" fill="none" stroke="#333" stroke-linecap="round" stroke-linejoin="round" stroke-width="8"/><line x1="88" y1="108" x2="71" y2="108" fill="none" stroke="#333" stroke-linecap="round" stroke-linejoin="round" stroke-width="8"/><path d="M57,68H67.11v8.73A6.38,6.38,0,0,1,62.05,83C56.07,84.45,44,85.42,44,67.55c0-19.36,19.18-17,22-12.14" fill="none" stroke="#333" stroke-linecap="round" stroke-linejoin="round" stroke-width="8"/><line x1="136.2" y1="52.51" x2="123.93" y2="83.99" fill="none" stroke="#333" stroke-linecap="round" stroke-linejoin="round" stroke-width="8"/><line x1="136.2" y1="52.51" x2="148" y2="83.99" fill="none" stroke="#333" stroke-linecap="round" stroke-linejoin="round" stroke-width="8"/><line x1="128" y1="76" x2="144.43" y2="76" fill="none" stroke="#333" stroke-linecap="round" stroke-linejoin="round" stroke-width="8"/><path d="M103.22,68h10.11v8.73A6.38,6.38,0,0,1,108.28,83c-6,1.48-18.05,2.45-18.05-15.42,0-19.36,19.18-17,22-12.14" fill="none" stroke="#333" stroke-linecap="round" stroke-linejoin="round" stroke-width="8"/><rect width="192" height="192" fill="none"/></svg>