<svg id="2e16e5f2-9c1d-4e89-97ee-1be2e4978672" data-name="ICON" xmlns="http://www.w3.org/2000/svg" width="192" height="192" viewBox="0 0 192 192"><title>GIGA_TV_B</title><path d="M144,164H48.13c-6.63,0-12-6-12-13.33L36,97.34C36,90,41.35,84,48,84h95.9c6.63,0,12,6,12,13.33l.1,53.33C156,158,150.65,164,144,164Z" fill="none" stroke="#333" stroke-linecap="round" stroke-linejoin="round" stroke-width="8"/><line x1="75.93" y1="60" x2="75.93" y2="28" fill="none" stroke="#333" stroke-linecap="round" stroke-linejoin="round" stroke-width="8"/><line x1="112.02" y1="140" x2="124" y2="108.01" fill="none" stroke="#333" stroke-linecap="round" stroke-linejoin="round" stroke-width="8"/><line x1="112.02" y1="140" x2="100" y2="108.01" fill="none" stroke="#333" stroke-linecap="round" stroke-linejoin="round" stroke-width="8"/><line x1="76" y1="140" x2="76" y2="108" fill="none" stroke="#333" stroke-linecap="round" stroke-linejoin="round" stroke-width="8"/><line x1="84.5" y1="108" x2="67.5" y2="108" fill="none" stroke="#333" stroke-linecap="round" stroke-linejoin="round" stroke-width="8"/><path d="M50.81,44.3H60.92V53a6.38,6.38,0,0,1-5.05,6.23c-6,1.48-19.5,2.45-19.5-15.42,0-19.36,20.62-17,23.47-12.14" fill="none" stroke="#333" stroke-linecap="round" stroke-linejoin="round" stroke-width="8"/><line x1="142.2" y1="28.51" x2="128" y2="60" fill="none" stroke="#333" stroke-linecap="round" stroke-linejoin="round" stroke-width="8"/><line x1="142.2" y1="28.51" x2="155" y2="60" fill="none" stroke="#333" stroke-linecap="round" stroke-linejoin="round" stroke-width="8"/><line x1="134" y1="52.01" x2="150.43" y2="52.01" fill="none" stroke="#333" stroke-linecap="round" stroke-linejoin="round" stroke-width="8"/><path d="M106.81,44.3h10.11V53a6.38,6.38,0,0,1-5.05,6.23c-6,1.48-19.5,2.45-19.5-15.42,0-19.36,20.62-17,23.47-12.14" fill="none" stroke="#333" stroke-linecap="round" stroke-linejoin="round" stroke-width="8"/><rect width="192" height="192" fill="none"/></svg>