<svg id="70d5282c-4da1-4d99-84e3-0bb1e857dfae" data-name="ICON" xmlns="http://www.w3.org/2000/svg" width="192" height="192" viewBox="0 0 192 192"><title>help-at-hand</title><g id="be863728-f42a-4b1f-97db-157574716203" data-name="help-at-hand"><rect width="192" height="192" transform="translate(192 192) rotate(-180)" fill="none"/><rect width="192" height="192" transform="translate(192 192) rotate(-180)" fill="none"/><path d="M147.78,43.88" transform="translate(0 0)" fill="none" stroke="#333" stroke-linejoin="round" stroke-width="8"/><path d="M116,124V56a12,12,0,0,0-12-12H32A12,12,0,0,0,20,56v56a12,12,0,0,0,12,12h4.48v0A13,13,0,0,0,36,127.5,12.26,12.26,0,0,0,48,140a12.26,12.26,0,0,0,12-12.5,13.64,13.64,0,0,0-.49-3.5h64.62l0,0a13,13,0,0,0-.47,3.48,12,12,0,1,0,24,0,23.77,23.77,0,0,0-.45-3.42l0-.08H160a12,12,0,0,0,12-12V88L162,60H116" transform="translate(0 0)" fill="none" stroke="#333" stroke-linejoin="round" stroke-width="8"/><line x1="68" y1="68" x2="68" y2="100" fill="none" stroke="#333" stroke-linecap="round" stroke-linejoin="round" stroke-width="8"/><line x1="84" y1="84" x2="52" y2="84" fill="none" stroke="#333" stroke-linecap="round" stroke-linejoin="round" stroke-width="8"/></g></svg>