<svg id="7391aa0a-70b5-4983-bbc9-7a9a10b807a5" data-name="ICON" xmlns="http://www.w3.org/2000/svg" width="192" height="192" viewBox="0 0 192 192"><title>insurance</title><g id="feb813a9-a28c-4576-8c37-dfca4168e9e1" data-name="Insurance_ic"><path d="M60.24,156c0,9.88,7.89,16,17.76,16s18-6.12,18-16V82.59c-6.3,0-12.17,1-17.16,4.14l-.58.33a20.53,20.53,0,0,0-6.85,6.26C67.27,87,57.82,82.59,46.82,82.59c-9.18,0-17.28,3.08-22.12,7.77A71.54,71.54,0,0,1,83,25.68a17.82,17.82,0,0,1,26.09,0A71.54,71.54,0,0,1,167.3,90.36c-4.84-4.69-12.94-7.77-22.12-7.77-11,0-20.45,4.42-24.59,10.73a20.87,20.87,0,0,0-7.4-6.58,31.6,31.6,0,0,0-7.2-2.87,38.71,38.71,0,0,0-10-1.28" transform="translate(0 0)" fill="none" stroke="#333" stroke-linecap="round" stroke-linejoin="round" stroke-width="8"/><rect width="192" height="192" fill="none"/></g></svg>