<svg id="b227dd6d-6e67-4791-bf1a-2782ad439167" data-name="ICON" xmlns="http://www.w3.org/2000/svg" width="192" height="192" viewBox="0 0 192 192"><title>landline-or-call</title><g id="f9016051-ba1d-4fce-8b8e-1f357c8273f2" data-name="Landline_or_Call_ic+"><path id="00c634f3-a7dd-444a-bbbb-7210f5ff74ce" data-name="&lt;Pfad&gt;" d="M115.81,129.17l12.85-9.7c3.39-1.74,6.88-2.16,9-.87,3.19,2,30,19.88,32.23,21.47s3.29,6.09.13,10.47S152.33,172.23,146.25,172s-31.39-1-78.61-48.47S20.13,51,20,45,37.62,24.88,42.1,21.84s9-1.86,10.59.31c1.77,2.47,19.22,29.17,21.14,32.23,1.31,2.09.79,5.56-1,8.88s-9.33,16-9.33,16S68.58,88.13,86,105.67C94.3,114.17,115.81,129.17,115.81,129.17Z" fill="none" stroke="#333" stroke-linecap="round" stroke-linejoin="round" stroke-width="8"/><rect width="192" height="192" fill="none"/><rect width="192" height="192" fill="none"/></g></svg>