<svg id="7ce221d0-0d5b-4b99-9bd8-bfa3bf40da2f" data-name="ICON" xmlns="http://www.w3.org/2000/svg" width="192" height="192" viewBox="0 0 192 192"><title>lateral-movement</title><rect width="192" height="192" fill="none"/><path d="M140.14,68.12,130.17,40A14.81,14.81,0,0,0,118,28.15L66.66,20.58a14.75,14.75,0,0,0-14.92,7.54L32.65,52.26" transform="translate(0 0)" fill="none" stroke="#333" stroke-linecap="round" stroke-linejoin="round" stroke-width="8"/><polyline points="141.68 86.3 136.17 123.65 119.63 121.21 122.06 104.76" fill="none" stroke="#333" stroke-linecap="round" stroke-linejoin="round" stroke-width="8"/><polyline points="39.39 92.52 36.96 108.97 20.42 106.53 25.77 70.25" fill="none" stroke="#333" stroke-linecap="round" stroke-linejoin="round" stroke-width="8"/><path d="M37.84,56.87h91.93A12.54,12.54,0,0,1,142.31,69.4V98.66a0,0,0,0,1,0,0H25.3a0,0,0,0,1,0,0V69.4A12.54,12.54,0,0,1,37.84,56.87Z" transform="translate(12.25 -11.4) rotate(8.39)" fill="none" stroke="#333" stroke-linecap="round" stroke-linejoin="round" stroke-width="8"/><path d="M116,136c-9,5-12,17-2.47,26L124,172" transform="translate(0 0)" fill="none" stroke="#333" stroke-linecap="round" stroke-linejoin="round" stroke-width="8"/><path d="M28,124h0c1,14,8.45,21.9,12,24,22,13,60.54,0,88,0,20,0,32,7,44,24h0" transform="translate(0 0)" fill="none" stroke="#333" stroke-linecap="round" stroke-linejoin="round" stroke-width="8"/></svg>