<svg id="c095e627-3d12-4d6a-842f-809fdbaca0cc" data-name="ICON" xmlns="http://www.w3.org/2000/svg" width="192" height="192" viewBox="0 0 192 192"><title>like</title><g id="dfbb48cd-8135-422e-beb2-f81293bae682" data-name="Like_ic"><g id="1f3335dd-fd79-4b79-9746-773d2421d43c" data-name="Dislike 2"><rect width="192" height="192" fill="none"/></g><path d="M43.21,172H145.58c11.53,0,21-8.94,15.87-21.45C173.2,137,167,126.75,167,126.75s11.11-12.06.32-23.8c2.79-7.85,4.4-14.79-5.84-21.73S126.9,81,118,82.13C106.12,78.33,141.58,21,103.84,20c-.16.41-4.4-1-3.2,13.88,0,15.53-29.32,50.12-38.91,63.58" fill="none" stroke="#333" stroke-linejoin="round" stroke-width="8"/><path d="M68,172H40a20,20,0,0,1-20-20V112A20,20,0,0,1,40,92h8a20,20,0,0,1,20,20Z" fill="none" stroke="#333" stroke-linecap="round" stroke-linejoin="round" stroke-width="8"/></g></svg>