<svg id="8ae08607-94d7-4726-ae95-736717a068b2" data-name="ICON" xmlns="http://www.w3.org/2000/svg" width="192" height="192" viewBox="0 0 192 192"><title>link-insert-edit</title><path d="M93,80.65a13.11,13.11,0,0,1,0-18.48L123.3,31.81a13.1,13.1,0,0,1,18.47,0l18.42,18.43a13.11,13.11,0,0,1,0,18.48L129.85,99.08a13.1,13.1,0,0,1-18.47,0" fill="none" stroke="#333" stroke-linecap="round" stroke-linejoin="round" stroke-width="8"/><path d="M99,111.26a13.15,13.15,0,0,1,0,18.51L68.7,160.18a13.08,13.08,0,0,1-18.47,0L31.81,141.71a13.15,13.15,0,0,1,0-18.51L62.15,92.79a13.08,13.08,0,0,1,18.47,0" fill="none" stroke="#333" stroke-linecap="round" stroke-linejoin="round" stroke-width="8"/><line x1="120.63" y1="71.28" x2="71.28" y2="120.65" fill="none" stroke="#333" stroke-linecap="round" stroke-linejoin="round" stroke-width="8"/><rect width="192" height="192" fill="none"/></svg>