<svg id="2745181b-d62c-4d37-8417-bcd6e0699204" data-name="ICON" xmlns="http://www.w3.org/2000/svg" width="192" height="192" viewBox="0 0 192 192"><title>minutes-sms</title><g id="19512fde-b545-4db8-adb8-ebc1e4cd1617" data-name="Minutes_sms 2"><path id="02d1d4e8-d862-46e5-b7f3-3c15a9fb7468" data-name="&lt;Pfad&gt;" d="M107.81,129.17l12.85-9.7c3.39-1.74,6.88-2.16,9-.87,3.19,2,30,19.88,32.23,21.47s3.29,6.09.13,10.47S144.33,172.23,138.25,172s-31.39-1-78.61-48.47S12.13,51,12,45,29.62,24.88,34.1,21.84s9-1.86,10.59.31c1.77,2.47,19.22,29.17,21.14,32.23,1.31,2.09.79,5.56-1,8.88s-9.33,16-9.33,16S60.58,88.13,78,105.67C86.3,114.17,107.81,129.17,107.81,129.17Z" transform="translate(0.03 0)" fill="none" stroke="#333" stroke-linecap="round" stroke-linejoin="round" stroke-width="8"/><rect width="192" height="192" fill="none"/><rect width="192" height="192" fill="none"/><line id="d14d9ea6-8e7e-4884-ab09-36bc295ec9b4" data-name="&lt;Pfad&gt;" x1="156.03" y1="36" x2="108.03" y2="36" fill="none" stroke="#333" stroke-linecap="round" stroke-miterlimit="10" stroke-width="8"/><line id="b26b58ea-c343-407a-9e47-a5b6380f7096" data-name="&lt;Pfad&gt;" x1="156.03" y1="52" x2="108.03" y2="52" fill="none" stroke="#333" stroke-linecap="round" stroke-miterlimit="10" stroke-width="8"/><rect width="192" height="192" fill="none"/><path d="M168,76a12,12,0,0,0,12-12V24a12,12,0,0,0-12-12H96A12,12,0,0,0,84,24V64A12,12,0,0,0,96,76h44.77L164,97.91V76Z" transform="translate(0.03 0)" fill="none" stroke="#333" stroke-linecap="round" stroke-linejoin="round" stroke-width="8"/></g></svg>