<svg id="bcba250e-dcf2-4710-b207-b1770c33544d" data-name="ICON" xmlns="http://www.w3.org/2000/svg" width="192" height="192" viewBox="0 0 192 192"><title>my-trips</title><rect width="192" height="192" fill="none"/><ellipse cx="64.75" cy="87.18" rx="23.29" ry="23.77" fill="none" stroke="#333" stroke-linecap="round" stroke-linejoin="round" stroke-width="8"/><path d="M77.44,156.84C90.29,140.65,108,113.1,108,89.52,108,64.26,89.77,43,64.75,43S21.5,63.51,21.5,88.76c0,35.23,43.25,83.29,43.25,83.29S74.37,160.72,77.44,156.84Z" fill="none" stroke="#333" stroke-linecap="round" stroke-linejoin="round" stroke-width="8"/><ellipse cx="147.09" cy="43.84" rx="7.91" ry="8.07" fill="none" stroke="#333" stroke-linecap="round" stroke-linejoin="round" stroke-width="8"/><path d="M154,81.55c7-8.77,16.54-23.68,16.54-36.45,0-13.67-9.87-25.16-23.41-25.16S123.67,31,123.67,44.7c0,19.07,23.41,45.09,23.41,45.09S152.29,83.65,154,81.55Z" fill="none" stroke="#333" stroke-linecap="round" stroke-linejoin="round" stroke-width="8"/><path d="M64.75,172.05h52c68.09,0,61.36-38.16,30.37-47.82-26.89-8.39-17-30.85-.53-34.17" fill="none" stroke="#333" stroke-linecap="round" stroke-linejoin="round" stroke-width="8"/></svg>