<svg id="5b73ef3c-97e4-42dc-9ad2-bdc988444ff1" data-name="ICON" xmlns="http://www.w3.org/2000/svg" width="192" height="192" viewBox="0 0 192 192"><title>network-signal</title><g id="50fc2aff-5fd0-47a2-aaec-6a3c63c52603" data-name="network_1"><polyline points="124.09 172 96 76 67.91 172 111.83 130.1" fill="none" stroke="#333" stroke-linecap="round" stroke-linejoin="round" stroke-width="8"/><polyline points="67.91 172 96 76 124.09 172 80.16 130.13" fill="none" stroke="#333" stroke-linecap="round" stroke-linejoin="round" stroke-width="8"/><path d="M76.95,52.62a30.46,30.46,0,0,0,0,43.12" fill="none" stroke="#333" stroke-linecap="round" stroke-linejoin="round" stroke-width="8"/><path d="M59.34,37.22a52.21,52.21,0,0,0,0,73.93" fill="none" stroke="#333" stroke-linecap="round" stroke-linejoin="round" stroke-width="8"/><path d="M41.73,21.82a74,74,0,0,0,0,104.73" fill="none" stroke="#333" stroke-linecap="round" stroke-linejoin="round" stroke-width="8"/><rect width="192" height="192" fill="none"/><path d="M115.05,52.62a30.46,30.46,0,0,1,0,43.12" fill="none" stroke="#333" stroke-linecap="round" stroke-linejoin="round" stroke-width="8"/><path d="M132.66,37.22a52.21,52.21,0,0,1,0,73.93" fill="none" stroke="#333" stroke-linecap="round" stroke-linejoin="round" stroke-width="8"/><path d="M150.27,21.82a74,74,0,0,1,0,104.73" fill="none" stroke="#333" stroke-linecap="round" stroke-linejoin="round" stroke-width="8"/></g></svg>