<svg xmlns="http://www.w3.org/2000/svg" width="192" height="192" viewBox="0 0 192 192"><title>NFC</title><g id="9102c0af-7e2a-4671-a95e-ff43252f8f4c" data-name="ICON"><rect width="192" height="192" fill="none"/></g><g id="726aaff9-da81-412d-a7b0-4f135c242f21" data-name="Ebene 5"><path d="M152,16H127.81l.1.09A54.58,54.58,0,0,1,144,54.94V171.61l-66-65V87l50,49.25V54.94A38.95,38.95,0,0,0,89.05,16H40A24.07,24.07,0,0,0,16,40V152a24.07,24.07,0,0,0,24,24H64.19l-.1-.09A54.58,54.58,0,0,1,48,137.06V20.39l66,65V105L64,55.75v81.31A38.95,38.95,0,0,0,102.95,176H152a24.07,24.07,0,0,0,24-24V40A24.07,24.07,0,0,0,152,16Z" fill="#333"/></g></svg>