<svg id="03dc9ade-1ad3-45f1-be49-5d4888589659" data-name="ICON" xmlns="http://www.w3.org/2000/svg" width="192" height="192" viewBox="0 0 192 192"><title>notification</title><polyline points="192 0 192 192 0 192 0 0" fill="none"/><path id="44bfeb87-ee3c-4b20-914d-005fac323137" data-name="93ff4d18-3497-45db-b877-d4ab9e8b4a69" d="M33.41,158.59" transform="translate(0 0)" fill="none" stroke="#333" stroke-linecap="round" stroke-linejoin="round" stroke-width="8"/><circle cx="96" cy="167" r="5" fill="none" stroke="#333" stroke-linecap="round" stroke-linejoin="round" stroke-width="8"/><circle cx="96" cy="167" r="3.13" fill="none" stroke="#333" stroke-linecap="round" stroke-linejoin="round" stroke-width="8"/><circle cx="96" cy="167" r="1.25" fill="none" stroke="#333" stroke-linecap="round" stroke-linejoin="round" stroke-width="8"/><path d="M96,36c-16,0-23.19,7.71-24,8.44-5.22,4.71-7.5,10.3-8.44,17.39l-.18,5.81L63,79.24a105,105,0,0,1-10.12,41.23c-.61,1.21-1.1,2.57-1.76,3.74h0c-.42.77-.85,1.63-1.29,2.38a30.22,30.22,0,0,1-4.63,6h0C39.61,138.21,37,141.22,35,148.7l-.81,2.67A3.77,3.77,0,0,0,38,156.09H153.61a3.77,3.77,0,0,0,3.81-4.72l-.81-2.67c-2-7.48-4.65-10.49-10.26-16.13a30.22,30.22,0,0,1-4.63-6c-.44-.75-.87-1.61-1.29-2.38-.66-1.18-1.14-2.53-1.75-3.75a105.16,105.16,0,0,1-10.12-41.22L128.2,67.6,128,61.88c-.93-7.11-1.79-12.72-7-17.44C120.19,43.71,112,36,96,36Z" transform="translate(0 0)" fill="none" stroke="#333" stroke-linecap="round" stroke-linejoin="round" stroke-width="8"/><path d="M107.9,36V32A11.83,11.83,0,0,0,96,20,12,12,0,0,0,84,32v4" transform="translate(0 0)" fill="none" stroke="#333" stroke-linecap="round" stroke-linejoin="round" stroke-width="8"/></svg>