<svg id="5ba915a1-7b8c-49b2-add5-2492e648cc36" data-name="ICON" xmlns="http://www.w3.org/2000/svg" width="192" height="192" viewBox="0 0 192 192"><title>numbered-view</title><line id="f4028e8e-8446-41a2-8b39-5516135d53c3" data-name="&lt;Pfad&gt;" x1="172" y1="44" x2="76" y2="44" fill="none" stroke="#333" stroke-linecap="round" stroke-miterlimit="10" stroke-width="8"/><line id="28d13287-8f94-40ff-8472-6e40f4c13538" data-name="&lt;Pfad&gt;" x1="172" y1="96" x2="76" y2="96" fill="none" stroke="#333" stroke-linecap="round" stroke-miterlimit="10" stroke-width="8"/><rect width="192" height="192" fill="none"/><line id="c61ad2fd-4810-48f8-b1ef-3bda8ada6063" data-name="&lt;Pfad&gt;" x1="172" y1="148" x2="76" y2="148" fill="none" stroke="#333" stroke-linecap="round" stroke-miterlimit="10" stroke-width="8"/><path d="M43.67,143.47a8.91,8.91,0,0,1,1.67-.16c4.23,0,7.66,2.94,7.66,6.56s-3.43,7-7.66,7a7.15,7.15,0,0,1-6.34-3.5" fill="none" stroke="#333" stroke-linecap="round" stroke-linejoin="round" stroke-width="8"/><polyline points="39 135 52.13 135 43.65 143.47" fill="none" stroke="#333" stroke-linecap="round" stroke-linejoin="round" stroke-width="8"/><polyline points="40 39.5 48 34 48 55.5" fill="none" stroke="#333" stroke-linecap="round" stroke-linejoin="round" stroke-width="8"/><path d="M50,95.1a5.08,5.08,0,0,0,2.07-4c0-3-2.82-5.76-6.3-5.76a5.89,5.89,0,0,0-5.22,2.88" fill="none" stroke="#333" stroke-linecap="round" stroke-linejoin="round" stroke-width="8"/><path d="M53,107H40a7.11,7.11,0,0,1,2.46-5.38L50.09,95" fill="none" stroke="#333" stroke-linecap="round" stroke-linejoin="round" stroke-width="8"/></svg>