<svg id="d0381ad2-51d3-46a5-b2d3-742ae8803db7" data-name="ICON" xmlns="http://www.w3.org/2000/svg" width="192" height="192" viewBox="0 0 192 192"><title>pet-collar</title><path d="M116,45c32.27,3,56,13.08,56,25.06,0,14.34-34,26-76,26s-76-11.63-76-26C20,58.09,43.73,48,76,45" transform="translate(0 0)" fill="none" stroke="#333" stroke-miterlimit="10" stroke-width="8"/><line x1="20" y1="70.1" x2="20" y2="98.57" fill="none" stroke="#333" stroke-linecap="round" stroke-linejoin="round" stroke-width="8"/><line x1="172" y1="71.16" x2="172" y2="98.57" fill="none" stroke="#333" stroke-linecap="round" stroke-linejoin="round" stroke-width="8"/><path d="M172,98.57C172,112.62,138,124,96,124S20,112.62,20,98.57" transform="translate(0 0)" fill="none" stroke="#333" stroke-miterlimit="10" stroke-width="8"/><path d="M116.51,68.78c20.41,1.72,37.44,6.29,47.1,12.37" transform="translate(0 0)" fill="none" stroke="#333" stroke-linecap="round" stroke-linejoin="round" stroke-width="8"/><path d="M33.38,81.08c9-5.61,24.23-9.92,42.62-11.88" transform="translate(0 0)" fill="none" stroke="#333" stroke-linecap="round" stroke-linejoin="round" stroke-width="8"/><circle cx="96.1" cy="136" r="11.82" fill="none" stroke="#333" stroke-miterlimit="10" stroke-width="8"/><rect x="76" y="41.12" width="40" height="32" rx="5.49" ry="5.49" fill="none" stroke="#333" stroke-miterlimit="10" stroke-width="8"/><circle cx="156.03" cy="100.37" r="2.03" fill="none" stroke="#333" stroke-linecap="round" stroke-miterlimit="10" stroke-width="4"/><circle cx="156.03" cy="100.37" r="2.03" fill="#333"/><circle cx="136.03" cy="106.39" r="2.03" fill="none" stroke="#333" stroke-linecap="round" stroke-miterlimit="10" stroke-width="4"/><circle cx="136.03" cy="106.39" r="2.03" fill="#333"/><circle cx="116.03" cy="109.31" r="2.03" fill="none" stroke="#333" stroke-linecap="round" stroke-miterlimit="10" stroke-width="4"/><circle cx="116.03" cy="109.31" r="2.03" fill="#333"/><circle cx="96.03" cy="110.16" r="2.03" fill="none" stroke="#333" stroke-linecap="round" stroke-miterlimit="10" stroke-width="4"/><circle cx="96.03" cy="110.16" r="2.03" fill="#333"/><circle cx="76.03" cy="109.31" r="2.03" fill="none" stroke="#333" stroke-linecap="round" stroke-miterlimit="10" stroke-width="4"/><circle cx="76.03" cy="109.31" r="2.03" fill="#333"/><circle cx="56.03" cy="106.39" r="2.03" fill="none" stroke="#333" stroke-linecap="round" stroke-miterlimit="10" stroke-width="4"/><circle cx="56.03" cy="106.39" r="2.03" fill="#333"/><circle cx="36.03" cy="100.37" r="2.03" fill="none" stroke="#333" stroke-linecap="round" stroke-miterlimit="10" stroke-width="4"/><circle cx="36.03" cy="100.37" r="2.03" fill="#333"/><rect width="192" height="192" fill="none"/></svg>