<svg id="076e4f05-2333-4cb3-ba5c-d8658b35550d" data-name="ICON" xmlns="http://www.w3.org/2000/svg" width="192" height="192" viewBox="0 0 192 192"><title>price-promise</title><rect width="192" height="192" fill="none"/><polyline points="118 80 86.15 112 74 100" fill="none" stroke="#333" stroke-linecap="round" stroke-linejoin="round" stroke-width="8"/><path d="M164.56,78.69a25.59,25.59,0,0,1-.53,36.6,25.6,25.6,0,0,1-18.76,31.43,25.6,25.6,0,0,1-32,17.84,25.6,25.6,0,0,1-36.6-.53,25.6,25.6,0,0,1-31.43-18.76,25.6,25.6,0,0,1-17.84-32A25.6,25.6,0,0,1,28,76.71,25.6,25.6,0,0,1,46.73,45.28a25.6,25.6,0,0,1,32-17.84,25.6,25.6,0,0,1,36.6.53,25.59,25.59,0,0,1,31.43,18.76,25.59,25.59,0,0,1,17.84,32Z" fill="none" stroke="#333" stroke-linecap="round" stroke-linejoin="round" stroke-width="8"/><circle cx="96" cy="96" r="52" fill="none" stroke="#333" stroke-linecap="round" stroke-linejoin="round" stroke-width="8"/></svg>