<svg id="dba874a3-7ee7-4c1b-b73c-866bd5f8a400" data-name="ICON" xmlns="http://www.w3.org/2000/svg" width="192" height="192" viewBox="0 0 192 192"><title>print</title><g id="cf6fa3b7-8a08-4288-867d-267ec38e0dbf" data-name="Print_ic"><rect width="192" height="192" fill="none"/><line id="d7a92b62-0827-45d7-8f2c-84a2b6be56ea" data-name="&lt;Pfad&gt;" x1="124" y1="124" x2="68" y2="124" fill="none" stroke="#333" stroke-linecap="round" stroke-linejoin="round" stroke-width="8"/><line id="cdfd9202-1932-40dc-b501-18ca4a2342f4" data-name="&lt;Pfad&gt;" x1="124" y1="148" x2="68" y2="148" fill="none" stroke="#333" stroke-linecap="round" stroke-linejoin="round" stroke-width="8"/><path d="M52,132H32a12,12,0,0,1-12-12V64A12,12,0,0,1,32,52H160a12,12,0,0,1,12,12v56a12,12,0,0,1-12,12H140" transform="translate(0)" fill="none" stroke="#333" stroke-linecap="round" stroke-linejoin="round" stroke-width="8"/><path d="M52,52V33.33a14,14,0,0,1,14-14h60a14,14,0,0,1,14,14V52" transform="translate(0)" fill="none" stroke="#333" stroke-linejoin="round" stroke-width="8"/><polygon points="126 172 52 172 52 100 140 100 140 158 126 172" fill="none" stroke="#333" stroke-linecap="round" stroke-linejoin="round" stroke-width="8"/></g></svg>