<svg id="da71dbf4-7eb3-403e-a5ac-ac9c12405064" data-name="ICON" xmlns="http://www.w3.org/2000/svg" width="192" height="192" viewBox="0 0 192 192"><title>privacy-or-confidential</title><g id="e4664ed1-24c6-43b5-8d82-29b7f9df3b7c" data-name="Privacy_or_Confidential_ic"><path id="568771c3-26ce-4060-b41f-92255546e277" data-name="&lt;Pfad&gt;" d="M96,20,36,33.41v77.32c0,6.88,4.88,14.31,10.8,22.1,5.25,6.89,12.68,13.94,22.08,21C80.62,162.53,90.19,169,96,172c5.82-3,15.38-9.47,27.12-18.21,9.41-7,16.83-14.07,22.07-21C151.11,125,156,117.61,156,110.73V33.41Z" fill="none" stroke="#333" stroke-linecap="round" stroke-linejoin="round" stroke-width="8"/><path d="M105.47,85a17.88,17.88,0,1,0-18.94,0l-8.41,40.21A6.36,6.36,0,0,0,84.82,132h22.35a6.39,6.39,0,0,0,6.71-6.77l-4.35-18.36Z" fill="none" stroke="#333" stroke-linecap="round" stroke-linejoin="round" stroke-width="8"/><rect width="192" height="192" fill="none"/></g></svg>