<svg id="1f2b9aef-3c32-429f-9a7c-a9be6e1d8ee3" data-name="ICON" xmlns="http://www.w3.org/2000/svg" width="192" height="192" viewBox="0 0 192 192"><title>rank-scout</title><path d="M116,87.83v-50a9.89,9.89,0,0,1,9.83-10h0a10,10,0,0,1,10,10l.17,78.39" fill="none" stroke="#333" stroke-linecap="round" stroke-linejoin="round" stroke-width="8"/><path d="M96,42V30a9.89,9.89,0,0,1,9.83-10h0A10.18,10.18,0,0,1,116,30v7.83" fill="none" stroke="#333" stroke-linecap="round" stroke-linejoin="round" stroke-width="8"/><path d="M76,70V42a9.89,9.89,0,0,1,9.83-10h0A10.18,10.18,0,0,1,96,42V87.83" fill="none" stroke="#333" stroke-linecap="round" stroke-linejoin="round" stroke-width="8"/><path d="M76,87.32V70c0-5.5-3-10-8.47-10h0c-5.5,0-11.7,1.72-11.7,14.06,0,0-1.13,43-1,46.23S52.23,172,96,172c48.23,0,42.24-49.81,40.24-55.4-4-6.43-9-5.29-16.24-2.6-6.5,2.43-11.27,2.77-20,1-11.6-2.35-16.93-8-23-8-5,0-14.74,9.49,4.25,21.75,14.38,9.28,27.5,10.42,39,10.25" fill="none" stroke="#333" stroke-linecap="round" stroke-linejoin="round" stroke-width="8"/><rect width="192" height="192" fill="none"/></svg>