<svg id="b2cfca13-957a-4bff-9e0b-a575adbd35c3" data-name="ICON" xmlns="http://www.w3.org/2000/svg" width="192" height="192" viewBox="0 0 192 192"><title>rank-pro</title><path id="750dffd7-719e-4a6c-92a7-b70b75bff2b8" data-name="&lt;Pfad&gt;" d="M44,20v97c0,6.16,2.68,12.81,8,19.77,4.7,6.16,11.34,12.47,19.76,18.76,10.5,7.82,19.07,13.64,24.27,16.29,5.21-2.65,13.76-8.47,24.26-16.29,8.42-6.28,15.06-12.59,19.75-18.76,5.3-7,8-13.61,8-19.77V20Z" fill="none" stroke="#333" stroke-linecap="round" stroke-linejoin="round" stroke-width="8"/><polyline points="64 64 96 48 128 64" fill="none" stroke="#333" stroke-linecap="round" stroke-linejoin="round" stroke-width="8"/><polyline points="64 88 96 72 128 88" fill="none" stroke="#333" stroke-linecap="round" stroke-linejoin="round" stroke-width="8"/><polyline points="64 112 96 96 128 112" fill="none" stroke="#333" stroke-linecap="round" stroke-linejoin="round" stroke-width="8"/><rect width="192" height="192" fill="none"/></svg>