<svg id="9173afdb-ebda-4f55-bdf7-84084e43f69e" data-name="ICON" xmlns="http://www.w3.org/2000/svg" width="192" height="192" viewBox="0 0 192 192"><title>writer</title><path d="M104,60l30-30a6.66,6.66,0,0,1,9,0l19,19a6.66,6.66,0,0,1,0,9L132,88Z" fill="none" stroke="#333" stroke-linecap="round" stroke-linejoin="round" stroke-width="8"/><path d="M104,88,94,78S78,91.46,48,88L28,164h0l76-20c-3.46-30,10-46,10-46Z" fill="none" stroke="#333" stroke-linecap="round" stroke-linejoin="round" stroke-width="8"/><line x1="68" y1="124" x2="28" y2="164" fill="none" stroke="#333" stroke-linecap="round" stroke-linejoin="round" stroke-width="8"/><rect width="192" height="192" fill="none"/><line x1="114" y1="98" x2="128" y2="84" fill="none" stroke="#333" stroke-linecap="round" stroke-linejoin="round" stroke-width="8"/><line x1="94" y1="78" x2="108" y2="64" fill="none" stroke="#333" stroke-linecap="round" stroke-linejoin="round" stroke-width="8"/><circle cx="69.36" cy="122.7" r="1.94" fill="none" stroke="#333" stroke-linecap="round" stroke-linejoin="round" stroke-width="8"/><circle cx="69.36" cy="122.7" r="4" fill="none" stroke="#333" stroke-linecap="round" stroke-linejoin="round" stroke-width="8"/><circle cx="69.36" cy="122.7" r="5.98" fill="none" stroke="#333" stroke-linecap="round" stroke-linejoin="round" stroke-width="8"/><circle cx="69.36" cy="122.7" r="0.77" fill="none" stroke="#333" stroke-linecap="round" stroke-linejoin="round" stroke-width="8"/></svg>