<svg id="16e791f4-806c-4d81-b289-d4fe5d23b3ed" data-name="ICON" xmlns="http://www.w3.org/2000/svg" width="192" height="192" viewBox="0 0 192 192"><title>rank-savvy</title><path d="M52,80S31.83,97.67,28,112c0,0,25,3.33,52,24.67l.34.27" fill="none" stroke="#333" stroke-linecap="round" stroke-linejoin="round" stroke-width="8"/><path d="M148.5,88S164,60.17,152,36c0,0-19.15-3.53-40,32a30.42,30.42,0,0,0-16-4,32.56,32.56,0,0,0-16,4C59.15,32.47,40,36,40,36c-12,24.17,3.5,52,3.5,52" fill="none" stroke="#333" stroke-linecap="round" stroke-linejoin="round" stroke-width="8"/><path d="M140,80s20.17,17.67,24,32c0,0-25,3.33-52,24.67l-.28.23" fill="none" stroke="#333" stroke-linecap="round" stroke-linejoin="round" stroke-width="8"/><path d="M128,100c-8,3.17-16,8.5-16,20,0,13.25.23,28.2-4.83,33.83-3.26,3.62-7.46,3.61-11.17,3.61-2.91,0-8.13,0-11.17-3.61C80,148,80,133.25,80,120c0-11.5-8-16.83-16-20" fill="none" stroke="#333" stroke-linecap="round" stroke-linejoin="round" stroke-width="8"/><line x1="92" y1="140" x2="100" y2="140" fill="none" stroke="#333" stroke-linecap="round" stroke-linejoin="round" stroke-width="8"/><line x1="96" y1="140" x2="96" y2="157.45" fill="none" stroke="#333" stroke-linecap="round" stroke-linejoin="round" stroke-width="8"/><rect width="192" height="192" fill="none"/></svg>