<svg id="6f83ec3b-b7e8-40f6-9713-ddc30f332649" data-name="ICON" xmlns="http://www.w3.org/2000/svg" width="192" height="192" viewBox="0 0 192 192"><title>rank-genius</title><path d="M113.48,38.35c5.72,13.94,9.35,34.6,9.35,57.65,0,42-12,76-26.82,76S69.18,138,69.18,96,81.19,20,96,20a11.16,11.16,0,0,1,6.41,2.18" fill="none" stroke="#333" stroke-linecap="round" stroke-linejoin="round" stroke-width="8"/><path d="M113.48,38.35" fill="none" stroke="#333" stroke-linecap="round" stroke-linejoin="round" stroke-width="8"/><path d="M102.41,22.18" fill="none" stroke="#333" stroke-linecap="round" stroke-linejoin="round" stroke-width="8"/><path d="M123,148.52" fill="none" stroke="#333" stroke-linecap="round" stroke-linejoin="round" stroke-width="8"/><path d="M142.37,152.91" fill="none" stroke="#333" stroke-linecap="round" stroke-linejoin="round" stroke-width="8"/><path d="M138.22,153.12l4.15-.21a11.75,11.75,0,0,0,7.37-3.17c10.48-10.48-5.09-43-34.77-72.71S52.74,31.78,42.26,42.26,47.35,85.29,77,115c15.76,15.76,32.32,27.53,46,33.55l3.75,1.61" fill="none" stroke="#333" stroke-linecap="round" stroke-linejoin="round" stroke-width="8"/><ellipse cx="96" cy="96" rx="76" ry="26.82" fill="none" stroke="#333" stroke-linecap="round" stroke-linejoin="round" stroke-width="8"/><path d="M43.76,122.37" fill="none" stroke="#333" stroke-linecap="round" stroke-linejoin="round" stroke-width="8"/><path d="M39,141.68" fill="none" stroke="#333" stroke-linecap="round" stroke-linejoin="round" stroke-width="8"/><path d="M42,126.08l1.76-3.71C49.86,108.85,61.52,92.55,77,77c29.68-29.68,62.23-45.25,72.71-34.77S144.65,85.29,115,115s-62.23,45.25-72.71,34.77A12.08,12.08,0,0,1,39,141.68l-.14-4.21" fill="none" stroke="#333" stroke-linecap="round" stroke-linejoin="round" stroke-width="8"/><circle cx="40.3" cy="131.76" r="5.93" fill="none" stroke="#333" stroke-linecap="round" stroke-miterlimit="10" stroke-width="8"/><circle cx="40.3" cy="131.76" r="3" fill="none" stroke="#333" stroke-linecap="round" stroke-miterlimit="10" stroke-width="8"/><rect width="192" height="192" fill="none"/><circle cx="132.42" cy="151.87" r="5.93" fill="none" stroke="#333" stroke-linecap="round" stroke-miterlimit="10" stroke-width="8"/><circle cx="132.42" cy="151.87" r="3" fill="none" stroke="#333" stroke-linecap="round" stroke-miterlimit="10" stroke-width="8"/><circle cx="109.6" cy="29.18" r="5.93" fill="none" stroke="#333" stroke-linecap="round" stroke-miterlimit="10" stroke-width="8"/><circle cx="109.6" cy="29.18" r="3" fill="none" stroke="#333" stroke-linecap="round" stroke-miterlimit="10" stroke-width="8"/><line x1="102.41" y1="22.18" x2="105.81" y2="24.62" fill="none" stroke="#333" stroke-linecap="round" stroke-linejoin="round" stroke-width="8"/><line x1="113.48" y1="38.35" x2="111.92" y2="34.64" fill="none" stroke="#333" stroke-linecap="round" stroke-linejoin="round" stroke-width="8"/></svg>