<svg id="84d2b983-5dda-4385-83f5-1039454b8637" data-name="ICON" xmlns="http://www.w3.org/2000/svg" width="192" height="192" viewBox="0 0 192 192"><title>rank-ace</title><path d="M96,28s64.82,28.25,68,76c1.36,20.45-14.06,41.11-34.4,41.11a36.69,36.69,0,0,1-30-15.57A21.37,21.37,0,0,1,96,120v44" fill="none" stroke="#333" stroke-linecap="round" stroke-linejoin="round" stroke-width="8"/><path d="M96,28S31.18,56.25,28,104c-1.36,20.45,14.06,41.11,34.4,41.11a36.69,36.69,0,0,0,30-15.57A21.37,21.37,0,0,0,96,120" fill="none" stroke="#333" stroke-linecap="round" stroke-linejoin="round" stroke-width="8"/><line x1="76" y1="164" x2="116" y2="164" fill="none" stroke="#333" stroke-linecap="round" stroke-linejoin="round" stroke-width="8"/><rect width="192" height="192" fill="none"/></svg>