<svg id="3b7dcc1e-2571-4837-9be0-8bc6afac84f0" data-name="ICON" xmlns="http://www.w3.org/2000/svg" width="192" height="192" viewBox="0 0 192 192"><title>rank-master</title><ellipse cx="90" cy="92" rx="70" ry="52" fill="none" stroke="#333" stroke-miterlimit="10" stroke-width="8"/><line x1="159.58" y1="86.29" x2="172" y2="78" fill="none" stroke="#333" stroke-linecap="round" stroke-miterlimit="10" stroke-width="8"/><line x1="160" y1="92" x2="172" y2="98" fill="none" stroke="#333" stroke-linecap="round" stroke-miterlimit="10" stroke-width="8"/><path d="M90,100.3c-5.29,0-7.52,3.39-11.53,7.15-16.2,15.18-39.29,1.49-36.14-15.7C46,71.38,75,66,89.82,66h.36C105,66,134,71.38,137.71,91.75c3.16,17.19-19.94,30.88-36.14,15.7-4-3.76-6.23-7.15-11.53-7.15Z" fill="none" stroke="#333" stroke-linecap="round" stroke-miterlimit="10" stroke-width="8"/><circle cx="65.83" cy="92" r="3.92" fill="none" stroke="#333" stroke-miterlimit="10" stroke-width="8"/><circle cx="65.83" cy="92" r="1.92" fill="none" stroke="#333" stroke-miterlimit="10" stroke-width="8"/><circle cx="113.83" cy="92" r="3.92" fill="none" stroke="#333" stroke-miterlimit="10" stroke-width="8"/><circle cx="113.83" cy="92" r="1.92" fill="none" stroke="#333" stroke-miterlimit="10" stroke-width="8"/><rect width="192" height="192" fill="none"/></svg>