<svg id="490441b7-6973-4c8a-870c-2821d69bcdce" data-name="ICON" xmlns="http://www.w3.org/2000/svg" width="192" height="192" viewBox="0 0 192 192"><title>return-product</title><rect width="192" height="192" fill="none"/><rect width="192" height="192" fill="none"/><rect width="192" height="192" fill="none"/><rect width="192" height="192" fill="none"/><path d="M44.22,43.88" transform="translate(0 0)" fill="none" stroke="#333" stroke-linejoin="round" stroke-width="8"/><path d="M76,124V56A12,12,0,0,1,88,44h72a12,12,0,0,1,12,12v56a12,12,0,0,1-12,12h-4.48v0a13,13,0,0,1,.47,3.48,12,12,0,1,1-24,0,13.64,13.64,0,0,1,.49-3.5H67.88l0,0a13,13,0,0,1,.47,3.48,12,12,0,1,1-24,0,23.77,23.77,0,0,1,.45-3.42l0-.08H32a12,12,0,0,1-12-12V88L30,60H76" transform="translate(0 0)" fill="none" stroke="#333" stroke-linejoin="round" stroke-width="8"/><line x1="99.9" y1="71.97" x2="111.85" y2="83.92" fill="none" stroke="#333" stroke-linecap="round" stroke-linejoin="round" stroke-width="8"/><path d="M104,104h28A16,16,0,0,0,132,72H99.9" transform="translate(0 0)" fill="none" stroke="#333" stroke-linecap="round" stroke-linejoin="round" stroke-width="8"/><line x1="111.88" y1="60" x2="99.9" y2="71.97" fill="none" stroke="#333" stroke-linecap="round" stroke-linejoin="round" stroke-width="8"/></svg>