<svg id="c8e7b2f7-ad0a-4445-a078-07c32c020087" data-name="ICON" xmlns="http://www.w3.org/2000/svg" width="192" height="192" viewBox="0 0 192 192"><title>roaming</title><g id="99cd46cc-53d1-4b7b-8909-678ab4ca547c" data-name="Roaming_ic 2"><path d="M86,75.68l-33.6,11.9-20-10.72a8.6,8.6,0,0,0-6.57-.38l-6,2.53,13,16c9.57,11.47,23.74,15.81,37.85,10.89l84.74-30.2a26.18,26.18,0,0,0,16.72-18.13h0A26.18,26.18,0,0,0,147.8,53.8L114.44,65.62" fill="none" stroke="#333" stroke-linecap="round" stroke-linejoin="round" stroke-width="8"/><path d="M92.1,81.84,58.4,47.6l9.39-3.27a10,10,0,0,1,7.75.51L123.9,70.69" fill="none" stroke="#333" stroke-linecap="round" stroke-linejoin="round" stroke-width="8"/><line x1="27.9" y1="148.15" x2="164.25" y2="148.15" fill="none" stroke="#333" stroke-linecap="round" stroke-linejoin="round" stroke-width="8"/><rect width="192" height="192" fill="none"/></g></svg>