<svg id="3efd5ddd-dfab-4c40-ab30-abde8d8a66a7" data-name="ICON" xmlns="http://www.w3.org/2000/svg" width="192" height="192" viewBox="0 0 192 192"><title>saving</title><g id="012705f3-d8dc-4075-b325-edea6733e893" data-name="Top_up_ic"><path d="M131.92,104.73l-.32.83c-2.59,6-25.54,10.64-43.6,10.64-19.88,0-44-5.6-44-12.5,0-4.31,6.3-8.12,15.87-10.37l.13,0" fill="none" stroke="#333" stroke-miterlimit="10" stroke-width="8"/><path d="M132,104.71v26.59c-4.7,5.5-27,8.39-44,8.39s-39.3-4-44-9.5V103.63" fill="none" stroke="#333" stroke-linecap="round" stroke-linejoin="round" stroke-width="8"/><path d="M132,120.24c5,2.15,8,4.88,8,7.86" fill="none" stroke="#333" stroke-miterlimit="10" stroke-width="8"/><path d="M140,128.1v27.6c-4.7,5.5-27,8.39-44,8.39s-39.3-4-44-9.5v-20" fill="none" stroke="#333" stroke-linecap="round" stroke-linejoin="round" stroke-width="8"/><path d="M140,47.8c0,6.9-24.12,12.5-44,12.5s-44-5.6-44-12.5S76.12,35.3,96,35.3,140,40.9,140,47.8Z" fill="none" stroke="#333" stroke-miterlimit="10" stroke-width="8"/><path d="M140,47.8v27.6c-4.7,5.5-27,8.39-44,8.39s-39.3-4-44-9.5V47.8" fill="none" stroke="#333" stroke-linecap="round" stroke-linejoin="round" stroke-width="8"/><path d="M140,67.24c5,2.15,8,4.88,8,7.86" fill="none" stroke="#333" stroke-miterlimit="10" stroke-width="8"/><path d="M148,75.1v23.6c-4.7,5.5-27,8.39-44,8.39s-39.3-4-44-9.5V78.65" fill="none" stroke="#333" stroke-linecap="round" stroke-linejoin="round" stroke-width="8"/></g><rect width="192" height="192" fill="none"/></svg>