<svg id="b0889e4e-bff9-4048-90c5-448675732133" data-name="Layer 1" xmlns="http://www.w3.org/2000/svg" width="192" height="192" viewBox="0 0 192 192"><title>secure-fit</title><rect width="192" height="192" fill="none"/><path d="M63.83,120.67" transform="translate(0 0)" fill="none" stroke="#333" stroke-linecap="round" stroke-linejoin="round" stroke-width="8"/><path d="M50.25,91.08" transform="translate(0 0)" fill="none" stroke="#333" stroke-linecap="round" stroke-linejoin="round" stroke-width="8"/><path d="M66.46,120" transform="translate(0 0)" fill="none" stroke="#000" stroke-linecap="round" stroke-linejoin="round" stroke-width="8"/><path d="M72,120H50.25A22.32,22.32,0,0,1,28,97.75V94.25A22.32,22.32,0,0,1,50.25,72H85.75A22.32,22.32,0,0,1,108,94.25V100" transform="translate(0 0)" fill="none" stroke="#000" stroke-linecap="round" stroke-linejoin="round" stroke-width="8"/><path d="M142.06,100.92" transform="translate(0 0)" fill="none" stroke="#333" stroke-linecap="round" stroke-linejoin="round" stroke-width="8"/><path d="M120,72h21.75A22.32,22.32,0,0,1,164,94.25v3.49A22.32,22.32,0,0,1,141.75,120H106.25A22.32,22.32,0,0,1,84,97.75V92" transform="translate(0 0)" fill="none" stroke="#000" stroke-linecap="round" stroke-linejoin="round" stroke-width="8"/></svg>