<svg id="4b8f2cb3-e699-4134-8ce9-676c2e32a2a0" data-name="ICON" xmlns="http://www.w3.org/2000/svg" width="192" height="192" viewBox="0 0 192 192"><title>senior</title><rect x="0.25" width="191.75" height="191.75" fill="none"/><path id="611870db-9c61-4b82-83e5-6bca53a3a7e6" data-name="&lt;Pfad&gt;" d="M106.88,148.06c-4.68-31.71-24.23-46.24-43.35-46.24s-38.67,14.54-43.35,46.24" fill="none" stroke="#333" stroke-linecap="round" stroke-linejoin="round" stroke-width="8"/><rect y="0.25" width="191.75" height="191.75" fill="none"/><path d="M92.53,57.18c0,6-12.94,10.84-28.9,10.84s-28.9-4.85-28.9-10.84" fill="none" stroke="#333" stroke-linecap="round" stroke-linejoin="round" stroke-width="8"/><path id="b9679322-9e96-4ba8-a92b-aaaa3e71b1ee" data-name="&lt;Pfad&gt;" d="M73.48,37.11a2.88,2.88,0,0,0-3.06-.8l-4,1.34a8.67,8.67,0,0,1-5.71-.08l-3.34-1.21a2.88,2.88,0,0,0-3.09.73C51,40.58,39,66.83,39,66.83a26.08,26.08,0,1,0,49,0S76.64,40.63,73.48,37.11Z" fill="none" stroke="#333" stroke-linecap="round" stroke-linejoin="round" stroke-width="8"/><path id="710c6e08-2121-49ed-8eb7-a3efd84e3a44" data-name="&lt;Pfad&gt;" d="M171.73,148.06c-4.68-31.71-24.23-46.24-43.35-46.24-11.87,0-23.89,5.59-32.43,17.41" fill="none" stroke="#333" stroke-linecap="round" stroke-linejoin="round" stroke-width="8"/><circle cx="128.37" cy="75.85" r="25.97" fill="none" stroke="#333" stroke-linecap="round" stroke-linejoin="round" stroke-width="8"/><path d="M115.84,53.1l-.31-1.41a16.6,16.6,0,0,1-.21-2.65,13,13,0,0,1,26,0A16.2,16.2,0,0,1,141,52L140.78,53" fill="none" stroke="#333" stroke-linecap="round" stroke-linejoin="round" stroke-width="8"/></svg>