<svg id="7b31d959-020f-4535-a7ec-4571e4bf74df" data-name="ICON" xmlns="http://www.w3.org/2000/svg" width="192" height="192" viewBox="0 0 192 192"><title>settings</title><g id="6ae70b10-ccae-4a6e-addb-d5c0c6f1bd84" data-name="Settings_ic"><path id="622ed3f9-81c0-4219-8b01-bcbd8f596c75" data-name="&lt;Pfad&gt;" d="M135.45,141l17.11,9.92,19.06-32.2L152.5,107.63a56.7,56.7,0,0,0,.21-22.06L172,74.63,153.25,42.25,134.11,53.1a58,58,0,0,0-19.32-11.18V20H77.08V41.85A57.93,57.93,0,0,0,57.91,52.79L39.1,41.88,20,74.08l19,11A56.67,56.67,0,0,0,39,107l-19,10.8,18.75,32.38L58,139.32a57.94,57.94,0,0,0,19.12,10.89V172h37.71V150.14A40.67,40.67,0,0,0,135.45,141Z" fill="none" stroke="#333" stroke-linecap="round" stroke-linejoin="round" stroke-width="8"/><path id="ec65c131-82ae-44a4-a87e-b620c5c291c4" data-name="&lt;Pfad&gt;" d="M123.94,94.18A28,28,0,1,1,97.82,68.06,28,28,0,0,1,123.94,94.18Z" fill="none" stroke="#333" stroke-linecap="round" stroke-linejoin="round" stroke-width="8"/><rect width="192" height="192" fill="none"/></g></svg>