<svg id="d0cf4a6f-8fc6-4771-a57d-f8a0e9834608" data-name="ICON" xmlns="http://www.w3.org/2000/svg" width="192" height="192" viewBox="0 0 192 192"><title>setup</title><g id="91987eb2-345c-4cfe-a838-c734948222c6" data-name="Number_portability_ic"><rect width="192" height="192" fill="none"/><g id="ec62f545-ddae-452a-aa56-8dfa26214797" data-name="Mobile_ic"><line x1="60" y1="156" x2="76" y2="156" fill="none" stroke="#333" stroke-linecap="round" stroke-linejoin="round" stroke-width="8"/><line x1="108" y1="140" x2="132" y2="140" fill="none" stroke="#333" stroke-linecap="round" stroke-linejoin="round" stroke-width="8"/><path d="M108,117v43a12,12,0,0,1-12,12H40a12,12,0,0,1-12-12V48A12,12,0,0,1,40,36H96a12,12,0,0,1,12,12V68.1" transform="translate(0 0)" fill="none" stroke="#333" stroke-linecap="round" stroke-linejoin="round" stroke-width="8"/><path d="M84,36V32A12,12,0,0,1,96,20h56a12,12,0,0,1,12,12V144a12,12,0,0,1-12,12H108" transform="translate(0 0)" fill="none" stroke="#333" stroke-linejoin="round" stroke-width="8"/></g></g><line x1="137.9" y1="92.07" x2="53.9" y2="92.07" fill="none" stroke="#333" stroke-linecap="round" stroke-linejoin="round" stroke-width="8"/><polyline points="81.73 117.74 53.73 91.74 81.73 65.74" fill="none" stroke="#333" stroke-linecap="round" stroke-linejoin="round" stroke-width="8"/></svg>