<svg id="c6f79fcf-4419-4f9d-90fa-5ccd18490a2c" data-name="ICON" xmlns="http://www.w3.org/2000/svg" width="192" height="192" viewBox="0 0 192 192"><title>shake</title><g id="0bb99bca-25bd-429a-8f3c-6eb7d7a64130" data-name="Shake_ic 3"><rect width="192" height="192" fill="none"/><path d="M158,134a27.44,27.44,0,0,1-19.38,33.57" transform="translate(0 0)" fill="none" stroke="#333" stroke-linecap="round" stroke-linejoin="round" stroke-width="8"/><path d="M34,58A27.44,27.44,0,0,1,53.43,24.44" transform="translate(0 0)" fill="none" stroke="#333" stroke-linecap="round" stroke-linejoin="round" stroke-width="8"/><path id="0c03f810-723b-4895-9333-70f96e156f19" data-name="&lt;Pfad&gt;" d="M142.33,137.93l.06.22a11.3,11.3,0,0,1-8,13.84l-43.66,11.7a11.3,11.3,0,0,1-13.84-8L49.61,53.84A11.3,11.3,0,0,1,57.6,40l43.66-11.7a11.3,11.3,0,0,1,13.84,8l27.29,101.86" transform="translate(0 0)" fill="none" stroke="#333" stroke-linecap="round" stroke-linejoin="round" stroke-width="8"/><line x1="97.76" y1="146.22" x2="119.59" y2="140.37" fill="none" stroke="#333" stroke-linecap="round" stroke-linejoin="round" stroke-width="8"/></g></svg>