<svg id="e4167f69-1671-40cf-b288-1574ddaf4e7a" data-name="ICON" xmlns="http://www.w3.org/2000/svg" width="192" height="192" viewBox="0 0 192 192"><title>sim-swap</title><g id="66e7a38c-ee89-4edb-9af4-2150f2bd078e" data-name="Sim_1"><path id="26dc3e99-e035-4b85-9d45-3c263532ca4b" data-name="&lt;Pfad&gt;" d="M108,56v0a12,12,0,0,0-3.52-8.48l-16-16h0A12,12,0,0,0,80,28H48A12,12,0,0,0,36,40v96a12,12,0,0,0,12,12H96a12,12,0,0,0,12-12Z" fill="none" stroke="#333" stroke-linecap="round" stroke-linejoin="round" stroke-width="8"/><path id="d8100cbe-8ceb-41e3-9f74-e7ca67a70596" data-name="&lt;Pfad&gt;" d="M88,122a6,6,0,0,1-6,6H62a6,6,0,0,1-6-6V90a6,6,0,0,1,6-6H82a6,6,0,0,1,6,6Z" fill="none" stroke="#333" stroke-linecap="round" stroke-linejoin="round" stroke-width="8"/><path id="b62f7b1c-3f65-41d8-8f8a-572dc3ec65e1" data-name="&lt;Pfad&gt;" d="M84,148.5V152a12,12,0,0,0,12,12h48a12,12,0,0,0,12-12V72a12,12,0,0,0-3.52-8.48l-16-16h0A12,12,0,0,0,128,44H101" fill="none" stroke="#333" stroke-linecap="round" stroke-linejoin="round" stroke-width="8"/><path id="00636809-ce10-4ccf-b048-d08d1812825e" data-name="&lt;Pfad&gt;" d="M108,100h22a6,6,0,0,1,6,6v32a6,6,0,0,1-6,6H110a6,6,0,0,1-4-1.47" fill="none" stroke="#333" stroke-linecap="round" stroke-linejoin="round" stroke-width="8"/><rect width="192" height="192" fill="none"/></g></svg>