<svg id="7d86aade-196b-458f-b508-88590eae6da9" data-name="ICON" xmlns="http://www.w3.org/2000/svg" width="192" height="192" viewBox="0 0 192 192"><title>smart-plug</title><rect width="192" height="192" fill="none"/><path d="M56,16H97.15A38.85,38.85,0,0,1,136,54.85v26.3A38.85,38.85,0,0,1,97.15,120H56a0,0,0,0,1,0,0V16A0,0,0,0,1,56,16Z" transform="translate(28 164) rotate(-90)" fill="none" stroke="#333" stroke-linecap="round" stroke-linejoin="round" stroke-width="8"/><line x1="76" y1="132" x2="76" y2="164" fill="none" stroke="#333" stroke-linecap="round" stroke-linejoin="round" stroke-width="8"/><line x1="116" y1="132" x2="116" y2="164" fill="none" stroke="#333" stroke-linecap="round" stroke-linejoin="round" stroke-width="8"/><rect x="84" y="76" width="24" height="88" transform="translate(-24 216) rotate(-90)" fill="none" stroke="#333" stroke-linecap="round" stroke-linejoin="round" stroke-width="8"/><circle cx="96" cy="84" r="3" transform="translate(-31.28 92.49) rotate(-45)" fill="none" stroke="#333" stroke-linecap="round" stroke-linejoin="round" stroke-width="8"/><circle cx="96" cy="84" r="3" transform="translate(-31.28 92.49) rotate(-45)" fill="#333"/><path d="M84,71a17.07,17.07,0,0,1,24.14,0h0" transform="translate(0 0)" fill="none" stroke="#333" stroke-linecap="round" stroke-linejoin="round" stroke-width="8"/><path d="M74,59a30.74,30.74,0,0,1,43.46,0" transform="translate(0 0)" fill="none" stroke="#333" stroke-linecap="round" stroke-linejoin="round" stroke-width="8"/></svg>