<svg id="f1acc209-18e4-4621-87d3-022e56915a2c" data-name="ICON" xmlns="http://www.w3.org/2000/svg" width="192" height="192" viewBox="0 0 192 192"><title>sms</title><g id="44cc72ac-5736-43f4-9688-6d6a884273a6" data-name="Text_ic"><rect width="192" height="192" fill="none"/><g id="e4dc12b1-9323-46fb-83f6-5246e206a52c" data-name="Isolationsmodus"><path d="M49.5,107.75" transform="translate(0 0)" fill="none" stroke="#333" stroke-linecap="round" stroke-linejoin="round" stroke-width="8"/><path d="M75.67,108H60.24L37.88,130.35V108H32A12,12,0,0,1,20,96V48A12,12,0,0,1,32,36h72a12,12,0,0,1,12,12V76" transform="translate(0 0)" fill="none" stroke="#333" stroke-linejoin="round" stroke-width="8"/><path d="M131.76,148l22.35,22.35V148H160a12,12,0,0,0,12-12V88a12,12,0,0,0-12-12H88A12,12,0,0,0,76,88v48a12,12,0,0,0,12,12Z" transform="translate(0 0)" fill="none" stroke="#333" stroke-linecap="round" stroke-linejoin="round" stroke-width="8"/><line id="6d9b5fb1-86da-4e6b-98dc-c9f0e1499f56" data-name="&lt;Pfad&gt;" x1="148" y1="100" x2="100" y2="100" fill="none" stroke="#333" stroke-linecap="round" stroke-miterlimit="10" stroke-width="8"/><line id="c161f67a-b84a-47e7-a275-2367591ced36" data-name="&lt;Pfad&gt;" x1="148" y1="124" x2="100" y2="124" fill="none" stroke="#333" stroke-linecap="round" stroke-miterlimit="10" stroke-width="8"/></g></g></svg>