<svg id="d2091bf1-aff5-4c86-bcc6-1eefff1b4dc7" data-name="Layer 3" xmlns="http://www.w3.org/2000/svg" width="192" height="192" viewBox="0 0 192 192"><title>social-youtube</title><path d="M174.2,62.6a20.6,20.6,0,0,0-17.9-18.1,468.12,468.12,0,0,0-120.6,0A20.5,20.5,0,0,0,17.9,62.6a299.31,299.31,0,0,0,0,66.9,20.5,20.5,0,0,0,17.8,18.1,468.8,468.8,0,0,0,60.4,3.9,467.26,467.26,0,0,0,60.3-3.9,20.5,20.5,0,0,0,17.8-18.1A288.13,288.13,0,0,0,176.1,96,286.42,286.42,0,0,0,174.2,62.6ZM119.3,99.2,86.5,122.3a2.89,2.89,0,0,1-4-.7,2.62,2.62,0,0,1-.5-1.7V72a2.88,2.88,0,0,1,2.8-2.9,3.37,3.37,0,0,1,1.7.5l32.8,23.1a3.89,3.89,0,0,1,.9,5.5A3,3,0,0,1,119.3,99.2Z" fill="#333"/><rect width="192" height="192" fill="none"/></svg>