<svg id="4f23f089-2fa1-4fe3-9e74-6f83fcdac465" data-name="ICON" xmlns="http://www.w3.org/2000/svg" width="192" height="192" viewBox="0 0 192 192"><title>social-paypal</title><g id="4ca26808-7e47-4d8b-b3c8-e35ebcf8de9e" data-name="Social_Twitter_ic"><rect width="192" height="192" fill="none"/><path d="M157.06,88.69c0-.06,0-.12,0-.18A22.64,22.64,0,0,0,148.65,71c.13-.57.26-1.13.37-1.7a52,52,0,0,0,1-10V55.43a31.38,31.38,0,0,0-29.18-31.32,4,4,0,0,0-1-.12H62.16a9.62,9.62,0,0,0-9.54,8.11L34,145.91A6.94,6.94,0,0,0,41,154H68.17l-1.71,9.95A3.53,3.53,0,0,0,70,168H91.75a5.59,5.59,0,0,0,5.58-4.65L102,134.78a6,6,0,0,1,2-3.06,5.43,5.43,0,0,1,3.05-1.06c5.78.09,5-.09,10.75,0,.37,0,.74,0,1.11,0s.54.09.82.08H120v-.08c17.82-.67,37.09-17.85,37.09-41.16C157.09,89.23,157.07,89,157.06,88.69ZM82.17,101a3.33,3.33,0,0,0-.61,0l-.16,0A9.72,9.72,0,0,0,76,103.17a11.34,11.34,0,0,0-3.73,5.78c0,.13-.06.26-.08.39l-2.35,14-4,22.71H42.06L60.53,33.38A1.64,1.64,0,0,1,62.15,32h57a4,4,0,0,0,.54.06A23.38,23.38,0,0,1,142,55.42v1.09a58.3,58.3,0,0,1-.42,8.75c-4.16,21.84-22.56,35.52-38,35.73H82.17Z" fill="#333"/></g></svg>