<svg id="c8d04fb4-c2a4-4fae-9cd0-31ff96e9eac6" data-name="social_" xmlns="http://www.w3.org/2000/svg" width="192" height="192" viewBox="0 0 192 192"><title>social-twitter</title><path id="74d32803-ddf9-423f-8a12-190e35fc49ec" data-name="fa228603-252a-45d1-a270-4e4d7ea9eaa1" d="M164.83,53.31a58.63,58.63,0,0,1-16.18,4.46A28.73,28.73,0,0,0,161.1,42.11,55.47,55.47,0,0,1,143.15,49,28.29,28.29,0,0,0,95,74.78a80.24,80.24,0,0,1-58.3-29.57A28.34,28.34,0,0,0,45.53,83a27.38,27.38,0,0,1-12.76-3.53v.31a28.22,28.22,0,0,0,22.62,27.7,29.42,29.42,0,0,1-12.76.52A28.27,28.27,0,0,0,69,127.59a57.06,57.06,0,0,1-41.81,11.62A80.15,80.15,0,0,0,70.43,152c52,0,80.4-43.05,80.4-80.4,0-1.24,0-2.49-.1-3.63A54.09,54.09,0,0,0,164.83,53.31Z" fill="#333"/><rect width="192" height="192" fill="none"/></svg>