<svg id="774ce669-26ac-49ee-946b-f444ead958f7" data-name="ICON" xmlns="http://www.w3.org/2000/svg" width="192" height="192" viewBox="0 0 192 192"><title>social-facebook</title><g id="c2863dd2-b3b6-4df9-a43e-89df22d62776" data-name="Social_Chat_ic"><rect width="192" height="192" fill="none"/></g><rect width="192" height="192" fill="none"/><path d="M152,16H40A24.07,24.07,0,0,0,16,40V152a24.07,24.07,0,0,0,24,24h61V109H87V86h14V72.58C101,54.11,108.28,43,129.88,43H149V66H137.75c-8.3,0-8.75,2.73-8.75,8.76V86h19.35l-2.43,23H129v67h23a24.07,24.07,0,0,0,24-24V40A24.07,24.07,0,0,0,152,16Z" fill="#333"/></svg>