<svg id="992f5823-5fe8-455f-8180-2ac44a9989be" data-name="Layer 8" xmlns="http://www.w3.org/2000/svg" width="192" height="192" viewBox="0 0 192 192"><title>social-pinterest</title><path d="M16,100.67V91.26c.39-2.89.69-5.79,1.18-8.66a79.92,79.92,0,0,1,95.31-64.87c40.18,8.42,67,46.06,63.14,85.65-1.44,14.76-6.19,28.34-15.26,40.05-19.35,25-44.85,35.73-76.31,31.76-3.59-.45-7.11-1.44-11-2.26C81.64,161.09,83.12,147.15,87,134c.16.06.29.07.34.14,3.42,5.09,8.4,7.82,14.23,8.87,9.86,1.78,18.88-.66,27-6.29,7.74-5.33,12.89-12.74,16.27-21.39C149,104.56,151,93.3,149,81.83,146.07,65,135.92,53.7,120.46,47.08,109.76,42.51,98.55,42,87.22,43.93,71.51,46.58,58.59,54,49.8,67.53c-8.41,13-10.33,27-5,41.64a23.7,23.7,0,0,0,13,14.14c2.36,1,3.83.32,4.5-2.14.51-1.92.91-3.87,1.5-5.76a4.58,4.58,0,0,0-1.07-4.76A19.28,19.28,0,0,1,58,100.26c-1.81-14.14,2.45-26.17,13.58-35.15s23.83-10.49,37.2-6.88,21.4,14.43,21.34,28.4A90.78,90.78,0,0,1,129,99.9c-1.17,7.62-3.66,14.81-8.36,21.06-3.48,4.63-7.83,8-13.76,8.76-7.21,1-13.66-3.07-14.81-9.68a17.81,17.81,0,0,1,.5-7.24c1.6-6.22,3.57-12.34,5.3-18.53a27,27,0,0,0,1.15-10.53C98.26,77,93,73,86.33,74.22c-4.67.85-7.91,3.73-10.1,7.74-4.3,7.87-4,16-1.15,24.28a4.58,4.58,0,0,1,.16,2.38c-2.31,10-4.75,20-7,30.06-1.51,6.72-3,13.46-4.06,20.26-.52,3.3-.09,6.76-.09,10.08-.41.08-.53.14-.61.11a4.73,4.73,0,0,1-.73-.27c-23.85-11.53-38.94-30.12-44.91-56C16.92,108.88,16.6,104.74,16,100.67Z" fill="#333"/><rect width="192" height="192" fill="none"/></svg>