<svg id="1dd99bdf-0a7a-4192-89b5-de14788b41a3" data-name="Layer 4" xmlns="http://www.w3.org/2000/svg" width="192" height="192" viewBox="0 0 192 192"><title>social-google-plus</title><path id="b90dff8f-b119-4c5d-88cc-fc1def6e7ece" data-name="4cc9f06a-00c5-43ef-9697-d53f220c77a9" d="M66.7,146a50.51,50.51,0,1,1,34-87.78L85.91,72.86a29.66,29.66,0,1,0,3.48,41.8A27.17,27.17,0,0,0,94.46,106H66V85h50.06a50.64,50.64,0,0,1-39,60A45.09,45.09,0,0,1,66.7,146ZM176,100H158v18H145V100H128V87h17V69h13V87h17V99.8Z" fill="#333"/><rect width="192" height="192" fill="none"/></svg>