<svg id="5ba4d743-b207-454e-bff9-ba3146419751" data-name="Layer 9" xmlns="http://www.w3.org/2000/svg" width="192" height="192" viewBox="0 0 192 192"><title>social-linkedin</title><path d="M26,72H56v96H26ZM41.2,24A17.35,17.35,0,1,1,23.8,41.4,17.33,17.33,0,0,1,41.2,24h0" fill="#333"/><path d="M74,72h29V85h.4c4-7.6,13.91-15.5,28.42-15.5,30.53,0,36.18,19.9,36.18,45.8V168H138V121.2c0-11.2-.2-25.5-15.73-25.5-15.83,0-18.27,12.2-18.27,24.7V168H74Z" fill="#333"/><g id="2d605e4e-3acd-4e8f-94c4-f541020ddc05" data-name="450c9201-441d-4262-8ff7-443a58ff6493"><rect width="192" height="192" fill="none"/></g></svg>