<svg id="55c29f5a-bcbd-4926-b294-5726aa448c51" data-name="ICON" xmlns="http://www.w3.org/2000/svg" width="192" height="192" viewBox="0 0 192 192"><title>soho</title><path id="36104a2a-8ae5-49d9-a566-7dba743f413e" data-name="&lt;Pfad&gt;" d="M44,76V96.2c0,11.37,11,12.17,11,12.17h1" fill="none" stroke="#333" stroke-linecap="round" stroke-linejoin="round" stroke-width="8"/><path id="da35d256-fbeb-4616-9b72-685318ab43f0" data-name="&lt;Pfad&gt;" d="M148,76V96.2c0,11.37-11,12.17-11,12.17h-1" fill="none" stroke="#333" stroke-linecap="round" stroke-linejoin="round" stroke-width="8"/><rect width="192" height="192" fill="none"/><line x1="96" y1="116" x2="96" y2="164.92" fill="none" stroke="#333" stroke-linejoin="round" stroke-width="8"/><rect x="68" y="20" width="56" height="80" rx="12" ry="12" fill="none" stroke="#333" stroke-miterlimit="10" stroke-width="8"/><polyline points="60.34 167.27 69.26 144.98 122.74 144.98 131.66 167.27" fill="none" stroke="#333" stroke-linejoin="round" stroke-width="8"/><rect x="56" y="100" width="80" height="16" rx="4" ry="4" fill="none" stroke="#333" stroke-linecap="round" stroke-linejoin="round" stroke-width="8"/><circle cx="60" cy="168" r="4" fill="none" stroke="#333" stroke-linejoin="round" stroke-width="8"/><circle cx="60" cy="168" r="2.5" fill="none" stroke="#333" stroke-linejoin="round" stroke-width="8"/><circle cx="60" cy="168" r="1" fill="none" stroke="#333" stroke-linejoin="round" stroke-width="8"/><circle cx="96" cy="168" r="4" fill="none" stroke="#333" stroke-linejoin="round" stroke-width="8"/><circle cx="96" cy="168" r="2.5" fill="none" stroke="#333" stroke-linejoin="round" stroke-width="8"/><circle cx="96" cy="168" r="1" fill="none" stroke="#333" stroke-linejoin="round" stroke-width="8"/><circle cx="131.5" cy="168" r="4" fill="none" stroke="#333" stroke-linejoin="round" stroke-width="8"/><circle cx="131.5" cy="168" r="2.5" fill="none" stroke="#333" stroke-linejoin="round" stroke-width="8"/><circle cx="131.5" cy="168" r="1" fill="none" stroke="#333" stroke-linejoin="round" stroke-width="8"/></svg>