<svg id="70575139-8db8-43ea-9e9b-d42e53c5e5fb" data-name="ICON" xmlns="http://www.w3.org/2000/svg" width="192" height="192" viewBox="0 0 192 192"><title>cornering</title><rect width="192" height="192" fill="none"/><circle cx="96" cy="96" r="76" transform="translate(-39.76 96) rotate(-45)" fill="none" stroke="#333" stroke-linecap="round" stroke-linejoin="round" stroke-width="8"/><path d="M140.26,68.71,129.94,79a24,24,0,0,0,0,33.94l10.32,10.32A52.06,52.06,0,0,0,140.26,68.71Z" transform="translate(0)" fill="none" stroke="#333" stroke-linecap="round" stroke-linejoin="round" stroke-width="9.18"/><path d="M79,129.94,68.71,140.26a52.06,52.06,0,0,0,54.58,0L113,129.94A24,24,0,0,0,79,129.94Z" transform="translate(0)" fill="none" stroke="#333" stroke-linecap="round" stroke-linejoin="round" stroke-width="9.18"/><path d="M55.26,128.3c9.16-12.51,24.55-33.07,32.26-40.78s28.28-23.1,40.78-32.26a52,52,0,0,0-73,73Z" transform="translate(0)" fill="none" stroke="#333" stroke-linecap="round" stroke-linejoin="round" stroke-width="8.92"/></svg>