<svg id="a0425ccf-70ce-41ad-a7cf-306e696f18ca" data-name="ICON" xmlns="http://www.w3.org/2000/svg" width="192" height="192" viewBox="0 0 192 192"><title>student</title><g id="20f0bbf1-2eeb-4b19-a113-35ecc89af516" data-name="Student_ic+"><path id="0ebdef7a-5835-405a-bb10-ee180590ecd5" data-name="&lt;Pfad&gt;" d="M18.83,76.8c-4.75-2.4-4.75-6.21,0-8.61L87.51,29.8c4.75-2.4,12.44-2.4,17.19,0l68.47,36.58c4.75,2.4,4.75,6.21,0,8.61l-68.38,39.53c-4.75,2.4-12.42,2.4-17.16,0Z" transform="translate(0 0)" fill="none" stroke="#333" stroke-linecap="round" stroke-linejoin="round" stroke-width="8"/><path id="26e4c500-4ecc-49fe-8e22-3943d8bb1853" data-name="&lt;Pfad&gt;" d="M148,89.56V133.7c0,4.29-.7,4.75-4.59,8.22S119.91,164,96,164s-44.11-18.74-47.71-22.08S44,138,44,133.7V93.45c0-1.58,1.09-3.29,3.49-4.5l36-20.61" transform="translate(0 0)" fill="none" stroke="#333" stroke-linecap="round" stroke-linejoin="round" stroke-width="8"/><rect width="192" height="192" fill="none"/></g></svg>