<svg id="1a844ec1-e239-49de-b904-6ff64f39fb99" data-name="ICON" xmlns="http://www.w3.org/2000/svg" width="192" height="192" viewBox="0 0 192 192"><title>superstar</title><path d="M124,145H108V111a15.17,15.17,0,0,0,10-14V66c0-7.84-7-14-15-14H89c-7.92,0-15,6-15,14V97a15.17,15.17,0,0,0,10,14v34H68l-8,27h72Z" fill="none" stroke="#333" stroke-linecap="round" stroke-linejoin="round" stroke-width="8"/><path d="M96,20h0A12,12,0,0,0,84,32h0A12,12,0,0,0,96,44h0a12,12,0,0,0,12-12h0A12,12,0,0,0,96,20Z" fill="none" stroke="#333" stroke-linecap="round" stroke-linejoin="round" stroke-width="8"/><line x1="84" y1="145" x2="108" y2="145" fill="none" stroke="#333" stroke-linecap="round" stroke-linejoin="round" stroke-width="8"/><rect width="192" height="192" fill="none"/></svg>