<svg id="f8f61357-bac8-4e2c-9817-d649f7e07cdd" data-name="ICON" xmlns="http://www.w3.org/2000/svg" width="192" height="192" viewBox="0 0 192 192"><title>top-up</title><g id="69b5329b-fc9b-43fe-91fc-ca5e2c4f3980" data-name="top_up_1"><line x1="84" y1="156" x2="108" y2="156" fill="none" stroke="#333" stroke-linecap="round" stroke-linejoin="round" stroke-width="8"/><rect width="192" height="192" fill="none"/><ellipse cx="48" cy="135.5" rx="36" ry="12.5" fill="none" stroke="#333" stroke-miterlimit="10" stroke-width="8"/><path d="M84,135.5v23.6c-4.7,5.5-19,8.39-36,8.39s-31.3-4-36-9.5V135" fill="none" stroke="#333" stroke-linecap="round" stroke-linejoin="round" stroke-width="8"/><path d="M20,163v16c4.7,5.5,19,9,36,9s31.3-2.5,36-8V160s0-4-8-4" fill="none" stroke="#333" stroke-linejoin="round" stroke-width="8"/><path d="M52,123.08V32A12,12,0,0,1,64,20h64a12,12,0,0,1,12,12V160a12,12,0,0,1-12,12H92" fill="none" stroke="#333" stroke-linejoin="round" stroke-width="8"/><line id="8f285222-504a-46b7-bbc0-a24c5456d584" data-name="&lt;Pfad&gt;" x1="95.99" y1="64" x2="95.99" y2="112" fill="none" stroke="#333" stroke-linecap="round" stroke-linejoin="round" stroke-width="8"/><polyline id="b1048aee-b73f-4f51-ab08-ddffa10cf647" data-name="&lt;Pfad&gt;" points="114 82 95.99 64 78 82" fill="none" stroke="#333" stroke-linecap="round" stroke-linejoin="round" stroke-width="8"/></g></svg>