<svg id="b60c9742-b5b7-4541-97a4-1a3b893a0f8f" data-name="ICON" xmlns="http://www.w3.org/2000/svg" width="192" height="192" viewBox="0 0 192 192"><title>topics</title><path d="M53.55,134.33C33.31,123.89,20,106.19,20,86.12,20,54,54,28,96,28s76,26,76,58.12-34,58.12-76,58.12H94.38l-9.55,5.47c-11.52,5.48-32.43,11.88-49.28,8.06a37.77,37.77,0,0,0,17.9-22.38l.26-1Z" fill="none" stroke="#333" stroke-linecap="round" stroke-linejoin="round" stroke-width="8"/><rect width="192" height="192" fill="none"/><circle cx="96" cy="88" r="4" fill="none" stroke="#333" stroke-linecap="round" stroke-linejoin="round" stroke-width="8"/><circle cx="96" cy="88" r="2.5" fill="none" stroke="#333" stroke-linecap="round" stroke-linejoin="round" stroke-width="8"/><circle cx="96" cy="88" r="1" fill="none" stroke="#333" stroke-linecap="round" stroke-linejoin="round" stroke-width="8"/><circle cx="128" cy="88" r="4" fill="none" stroke="#333" stroke-linecap="round" stroke-linejoin="round" stroke-width="8"/><circle cx="128" cy="88" r="2.5" fill="none" stroke="#333" stroke-linecap="round" stroke-linejoin="round" stroke-width="8"/><circle cx="128" cy="88" r="1" fill="none" stroke="#333" stroke-linecap="round" stroke-linejoin="round" stroke-width="8"/><circle cx="64" cy="88" r="4" fill="none" stroke="#333" stroke-linecap="round" stroke-linejoin="round" stroke-width="8"/><circle cx="64" cy="88" r="2.5" fill="none" stroke="#333" stroke-linecap="round" stroke-linejoin="round" stroke-width="8"/><circle cx="64" cy="88" r="1" fill="none" stroke="#333" stroke-linecap="round" stroke-linejoin="round" stroke-width="8"/></svg>