<svg id="77811e17-1123-40fa-bd31-14cd47b3fd4f" data-name="ICON" xmlns="http://www.w3.org/2000/svg" width="192" height="192" viewBox="0 0 192 192"><title>touch-screen</title><path d="M92,132V68a8,8,0,0,1,8-8h0a8,8,0,0,1,8,8v40" fill="none" stroke="#333" stroke-linecap="round" stroke-linejoin="round" stroke-width="8"/><path d="M108,108v-8a8,8,0,0,1,8-8h0a8,8,0,0,1,8,8v8" fill="none" stroke="#333" stroke-linecap="round" stroke-linejoin="round" stroke-width="8"/><path d="M124,108a8,8,0,0,1,8-8h0a8,8,0,0,1,8,8v8" fill="none" stroke="#333" stroke-linecap="round" stroke-linejoin="round" stroke-width="8"/><path d="M140,116a8,8,0,0,1,8-8h0a8,8,0,0,1,8,8v32a32,32,0,0,1-32,32H108a32,32,0,0,1-32-32V128a12,12,0,0,1,12-12h4" fill="none" stroke="#333" stroke-linecap="round" stroke-linejoin="round" stroke-width="8"/><rect width="192" height="192" fill="none"/><path d="M77,75A24,24,0,1,1,123,75" fill="none" stroke="#333" stroke-linecap="round" stroke-linejoin="round" stroke-width="8"/></svg>