<svg id="1e6da312-84d1-4380-8bfa-44b7fe8873b3" data-name="ICON" xmlns="http://www.w3.org/2000/svg" width="192" height="192" viewBox="0 0 192 192"><title>TV_bluetooth_remote_B</title><line x1="83.67" y1="52" x2="83.67" y2="124.26" fill="none" stroke="#333" stroke-linecap="round" stroke-miterlimit="10" stroke-width="8"/><polyline points="76 97.16 106 71.87 83.67 52" fill="none" stroke="#333" stroke-linecap="round" stroke-miterlimit="10" stroke-width="8"/><polyline points="83.67 124.26 106 104.39 76 79.1" fill="none" stroke="#333" stroke-linecap="round" stroke-miterlimit="10" stroke-width="8"/><path d="M93.57,36" fill="none" stroke="#333" stroke-linecap="round" stroke-miterlimit="10" stroke-width="8"/><path d="M152.54,117" fill="none" stroke="#333" stroke-linecap="round" stroke-miterlimit="10" stroke-width="8"/><line x1="148" y1="74" x2="148" y2="73" fill="none" stroke="#333" stroke-linecap="round" stroke-miterlimit="10" stroke-width="8"/><line x1="140" y1="92" x2="148" y2="92" fill="none" stroke="#333" stroke-linecap="round" stroke-miterlimit="10" stroke-width="8"/><path d="M148,164h0c-3.37,0-23.3,0-23.85-14.45L124,82.29a6.43,6.43,0,0,1,6.66-6.19l34.45-.1a6.46,6.46,0,0,1,6.73,6.14l.16,67.41C172,164,151.7,164,148,164Z" fill="none" stroke="#333" stroke-linecap="round" stroke-linejoin="round" stroke-width="8"/><polyline points="156 124 148 116 140 124" fill="none" stroke="#333" stroke-linecap="round" stroke-linejoin="round" stroke-width="8"/><polyline points="156 140 148 148 140 140" fill="none" stroke="#333" stroke-linecap="round" stroke-linejoin="round" stroke-width="8"/><path d="M93.57,36" fill="none" stroke="#333" stroke-linecap="round" stroke-miterlimit="10" stroke-width="8"/><path d="M152.54,117" fill="none" stroke="#333" stroke-linecap="round" stroke-miterlimit="10" stroke-width="8"/><path d="M123,140H28a8,8,0,0,1-8-8V44a8,8,0,0,1,8-8H156a8,8,0,0,1,8,8V75" fill="none" stroke="#333" stroke-linecap="round" stroke-linejoin="round" stroke-width="8"/><line x1="60" y1="156" x2="124" y2="156" fill="none" stroke="#333" stroke-linecap="round" stroke-linejoin="round" stroke-width="8"/><line x1="96" y1="144" x2="96" y2="154" fill="none" stroke="#333" stroke-linecap="round" stroke-linejoin="round" stroke-width="8"/><rect width="192" height="192" fill="none"/></svg>