<svg id="26a3a99a-b71c-4685-971c-b65ba17c92cf" data-name="ICON" xmlns="http://www.w3.org/2000/svg" width="192" height="192" viewBox="0 0 192 192"><title>TV_bluetooth_remote_A</title><line x1="87.49" y1="67.99" x2="87.49" y2="147.99" fill="none" stroke="#333" stroke-linecap="round" stroke-miterlimit="10" stroke-width="8"/><polyline points="79.56 117.99 110.56 89.99 87.49 67.99" fill="none" stroke="#333" stroke-linecap="round" stroke-miterlimit="10" stroke-width="8"/><polyline points="87.49 147.99 110.56 125.99 79.56 97.99" fill="none" stroke="#333" stroke-linecap="round" stroke-miterlimit="10" stroke-width="8"/><line x1="96.06" y1="25" x2="96.06" y2="25" fill="none" stroke="#333" stroke-linecap="round" stroke-miterlimit="10" stroke-width="8"/><line x1="76" y1="44" x2="84" y2="44" fill="none" stroke="#333" stroke-linecap="round" stroke-miterlimit="10" stroke-width="8"/><path d="M112.06,91" fill="none" stroke="#333" stroke-linecap="round" stroke-miterlimit="10" stroke-width="8"/><path d="M95.74,172h0c-4.69,0-34.8,0-35.56-22.19L60,37.88a9.46,9.46,0,0,1,9.27-9.71L122.43,28a9.42,9.42,0,0,1,9.36,9.48l.2,112.17C132,172,100.89,172,95.74,172Z" fill="none" stroke="#333" stroke-linecap="round" stroke-linejoin="round" stroke-width="8"/><rect width="192" height="192" fill="none"/></svg>