<svg id="91fe2e9e-b397-4285-b94c-48679d4c261d" data-name="ICON" xmlns="http://www.w3.org/2000/svg" width="192" height="192" viewBox="0 0 192 192"><title>TV_cloud_DVR</title><path d="M60,70.6v27A2.4,2.4,0,0,0,62.33,100a2.49,2.49,0,0,0,1.55-.47l.34-.23L82.4,86.45l.54-.38a2.18,2.18,0,0,0,.67-3.12,2.31,2.31,0,0,0-.69-.65l-.52-.37L64.28,69.11a2.67,2.67,0,0,0-2.78-.56A2.45,2.45,0,0,0,60,70.79V71" fill="none" stroke="#333" stroke-linecap="round" stroke-linejoin="round" stroke-width="8"/><line x1="107.97" y1="68" x2="107.97" y2="100" fill="none" stroke="#333" stroke-linecap="round" stroke-linejoin="round" stroke-width="8"/><line x1="123.97" y1="68" x2="124" y2="92" fill="none" stroke="#333" stroke-linecap="round" stroke-linejoin="round" stroke-width="8"/><path d="M56.56,74" fill="none" stroke="#333" stroke-linecap="round" stroke-miterlimit="10" stroke-width="8"/><path d="M68.56,67" fill="none" stroke="#333" stroke-linecap="round" stroke-miterlimit="10" stroke-width="8"/><path d="M93.57,36" fill="none" stroke="#333" stroke-linecap="round" stroke-miterlimit="10" stroke-width="8"/><path d="M104,75" fill="none" stroke="#333" stroke-linecap="round" stroke-miterlimit="10" stroke-width="8"/><path d="M152.54,117" fill="none" stroke="#333" stroke-linecap="round" stroke-miterlimit="10" stroke-width="8"/><path d="M56.56,74" fill="none" stroke="#333" stroke-linecap="round" stroke-miterlimit="10" stroke-width="8"/><path d="M93.57,36" fill="none" stroke="#333" stroke-linecap="round" stroke-miterlimit="10" stroke-width="8"/><path d="M152.54,117" fill="none" stroke="#333" stroke-linecap="round" stroke-miterlimit="10" stroke-width="8"/><path d="M92,140H28a8,8,0,0,1-8-8V44a8,8,0,0,1,8-8H156a8,8,0,0,1,8,8v79" fill="none" stroke="#333" stroke-linecap="round" stroke-linejoin="round" stroke-width="8"/><line x1="60" y1="156" x2="124" y2="156" fill="none" stroke="#333" stroke-linecap="round" stroke-linejoin="round" stroke-width="8"/><path d="M146,104.77" fill="none" stroke="#333" stroke-linecap="round" stroke-linejoin="round" stroke-width="8"/><path d="M171.85,141.16" fill="none" stroke="#333" stroke-linecap="round" stroke-linejoin="round" stroke-width="8"/><path d="M111,156a26.93,26.93,0,0,1-7-2,19.32,19.32,0,0,1-11.89-16,18.37,18.37,0,0,1,8.39-17.48,22.07,22.07,0,0,1,9.84-2.88,40.58,40.58,0,0,1,5.89.27,23.16,23.16,0,0,1,20-16.22,22.3,22.3,0,0,1,18.79,8,23.5,23.5,0,0,1,4.69,9.28c.23.9.67,3.42.67,3.42a17.56,17.56,0,0,1,6.24,3.6,17.21,17.21,0,0,1,3.78,19.91A16.92,16.92,0,0,1,155,156Z" fill="none" stroke="#333" stroke-linecap="round" stroke-linejoin="round" stroke-width="8"/><line x1="96" y1="149" x2="96" y2="154" fill="none" stroke="#333" stroke-linecap="round" stroke-linejoin="round" stroke-width="8"/><rect width="192" height="192" fill="none"/></svg>