<svg id="4e47814a-7a7b-411a-9186-d73e85a42220" data-name="ICON" xmlns="http://www.w3.org/2000/svg" width="192" height="192" viewBox="0 0 192 192"><title>TV_Channel_variety</title><path d="M60,73.72v28.43a2.47,2.47,0,0,0,2.33,2.5,2.4,2.4,0,0,0,1.55-.49l.34-.24L82.4,90.39l.54-.4a2.37,2.37,0,0,0,0-4l-.52-.39L64.28,72.15A2.47,2.47,0,0,0,60,73.92v.19" fill="none" stroke="#333" stroke-linecap="round" stroke-linejoin="round" stroke-width="8"/><path d="M123.7,140l-94.86-8.67a8.62,8.62,0,0,1-8.57-8.67V53.33a8.62,8.62,0,0,1,8.57-8.67L123.7,36a8.62,8.62,0,0,1,8.57,8.67v86.67A8.62,8.62,0,0,1,123.7,140Z" fill="none" stroke="#333" stroke-linecap="round" stroke-linejoin="round" stroke-width="8"/><line x1="39" y1="148" x2="105" y2="156" fill="none" stroke="#333" stroke-linecap="round" stroke-linejoin="round" stroke-width="8"/><line x1="72" y1="139" x2="72" y2="149" fill="none" stroke="#333" stroke-linecap="round" stroke-linejoin="round" stroke-width="8"/><path d="M133.53,132h8a7,7,0,0,0,7-7.33V51.33c0-4.05-3.92-7.33-8-7.33h-7" fill="none" stroke="#333" stroke-linecap="round" stroke-linejoin="round" stroke-width="8"/><path d="M151.53,52h6.23c3.3,0,6.47,2.69,6.47,6v60a5.73,5.73,0,0,1-5.66,6h-7" fill="none" stroke="#333" stroke-linecap="round" stroke-linejoin="round" stroke-width="8"/><rect width="192" height="192" fill="none"/></svg>