<svg id="110a6fdf-1692-4478-ab4d-db7fb8c835b7" data-name="ICON" xmlns="http://www.w3.org/2000/svg" width="192" height="192" viewBox="0 0 192 192"><title>TV_discovery</title><path id="193d6418-e283-4460-a397-f1101786b932" data-name="&lt;Pfad&gt;" d="M20.07,73.17" fill="none" stroke="#333" stroke-linecap="round" stroke-linejoin="round" stroke-width="8"/><rect x="20" y="36" width="152" height="104" rx="8" ry="8" fill="none" stroke="#333" stroke-linecap="round" stroke-linejoin="round" stroke-width="8"/><line x1="60" y1="156" x2="132" y2="156" fill="none" stroke="#333" stroke-linecap="round" stroke-linejoin="round" stroke-width="8"/><line x1="96" y1="144" x2="96" y2="154" fill="none" stroke="#333" stroke-linecap="round" stroke-linejoin="round" stroke-width="8"/><path d="M56,95" fill="none" stroke="#333" stroke-linecap="round" stroke-linejoin="round" stroke-width="8"/><path d="M56,89" fill="none" stroke="#333" stroke-linecap="round" stroke-linejoin="round" stroke-width="8"/><g id="9cb7d259-2e4d-4293-b8c2-41be297520a8" data-name="c2595f44-f93f-43ec-b759-a0b973203da5"><path id="44180d0d-b731-44d5-afd6-8a7dedeecbc0" data-name="6912a2de-4b2f-4be4-a6f8-6996f9d1e9f1" d="M96,115.37c-27.1,0-39.36-25.27-39.83-26.43a3.26,3.26,0,0,1,0-2.11C56.64,85.89,68.9,60.63,96,60.63s39.36,25.27,39.83,26.43a3.26,3.26,0,0,1,0,2.11C135.36,90.11,123.1,115.37,96,115.37Z" fill="none" stroke="#333" stroke-linecap="round" stroke-linejoin="round" stroke-width="8"/><path id="440a559f-89b5-41cf-8bad-2a12b394f233" data-name="f8a4c271-6901-4a56-ba85-ea4dbe37ea73" d="M96,100a11.95,11.95,0,1,1,.1,0Z" fill="none" stroke="#333" stroke-linecap="round" stroke-linejoin="round" stroke-width="8"/></g><rect width="192" height="192" fill="none"/></svg>