<svg id="d01809b2-ed47-458c-b531-5b1c0a8e024c" data-name="ICON" xmlns="http://www.w3.org/2000/svg" width="192" height="192" viewBox="0 0 192 192"><title>TV_everywhere</title><line x1="55.94" y1="164" x2="71.89" y2="164" fill="none" stroke="#333" stroke-linecap="round" stroke-linejoin="round" stroke-width="8"/><line x1="63.94" y1="164" x2="63.94" y2="100" fill="none" stroke="#333" stroke-linecap="round" stroke-miterlimit="10" stroke-width="8"/><path d="M100,87.75C100,74.63,89.77,64,77.14,64S54.49,74.44,54.3,87.4a13.2,13.2,0,0,0-4.59-.83A14,14,0,0,0,36,100.81a14.16,14.16,0,0,0,10.24,13.77A19.58,19.58,0,0,0,45.14,121c0,10.49,8.19,19,18.29,19s18.29-8.51,18.29-19a19.45,19.45,0,0,0-2.53-9.61C90.85,110.32,100,100.15,100,87.75Z" fill="none" stroke="#333" stroke-linecap="round" stroke-miterlimit="10" stroke-width="8" fill-rule="evenodd"/><line x1="63.98" y1="99.04" x2="74.06" y2="88.96" fill="none" stroke="#333" stroke-linecap="round" stroke-linejoin="round" stroke-width="8"/><line x1="63.1" y1="112" x2="53.94" y2="102.84" fill="none" stroke="#333" stroke-linecap="round" stroke-miterlimit="10" stroke-width="8"/><g id="62116395-685a-4f3c-880e-7081fa00ac76" data-name="39bbb6be-0d7a-4bfa-8252-1f40bf874658"><line x1="137.79" y1="148" x2="150.74" y2="148" fill="none" stroke="#333" stroke-linecap="round" stroke-linejoin="round" stroke-width="8"/><path d="M123.64,76h40.73c4.22,0,7.64,3.11,7.64,6.95v74.11c0,3.84-3.42,6.95-7.64,6.95H123.64c-4.22,0-7.64-3.11-7.64-6.95V82.95C116,79.11,119.42,76,123.64,76Z" fill="none" stroke="#333" stroke-linecap="round" stroke-linejoin="round" stroke-width="8"/></g><line x1="82" y1="140" x2="92" y2="140" fill="none" stroke="#333" stroke-linecap="round" stroke-linejoin="round" stroke-width="8"/><line id="998dd319-dd97-4d45-b662-ba8fabc814cf" data-name="b493255f-edd2-469b-8f82-6d8f944da046" x1="103.37" y1="124" x2="83" y2="124" fill="none" stroke="#333" stroke-linecap="round" stroke-miterlimit="10" stroke-width="8"/><path d="M113,140H31.37C25.09,140,20,134.63,20,128V48c0-6.63,5.09-12,11.37-12H152.63C158.91,36,164,41.37,164,48V74" fill="none" stroke="#333" stroke-linecap="round" stroke-linejoin="round" stroke-width="8"/><rect width="192" height="192" fill="none"/></svg>