<svg id="55e3a924-b34f-42b2-9ef2-ea8da824580e" data-name="ICON" xmlns="http://www.w3.org/2000/svg" width="192" height="192" viewBox="0 0 192 192"><title>TV_EPG_backwards</title><path id="06f69357-6bf4-475c-ad2a-0c95f318027e" data-name="&lt;Pfad&gt;" d="M21,73.23" fill="none" stroke="#333" stroke-linecap="round" stroke-linejoin="round" stroke-width="8"/><path d="M21.5,90.06" fill="none" stroke="#333" stroke-linecap="round" stroke-linejoin="round" stroke-width="8"/><path id="07920943-1085-48f9-bdd9-992bc7245892" data-name="&lt;Pfad&gt;" d="M21.07,73.23" fill="none" stroke="#333" stroke-linecap="round" stroke-linejoin="round" stroke-width="8"/><path d="M32,123.06" fill="none" stroke="#333" stroke-linecap="round" stroke-miterlimit="10" stroke-width="8"/><line x1="59.5" y1="124.06" x2="27.5" y2="124.06" fill="none" stroke="#333" stroke-linecap="round" stroke-miterlimit="10" stroke-width="8"/><polyline points="36.47 107.06 19.5 124.03 36.47 141" fill="none" stroke="#333" stroke-linecap="round" stroke-linejoin="round" stroke-width="8"/><path d="M20,92.06v-48a8,8,0,0,1,8-8H164a8,8,0,0,1,8,8v88a8,8,0,0,1-8,8H68" fill="none" stroke="#333" stroke-linecap="round" stroke-linejoin="round" stroke-width="8"/><line x1="60" y1="156.06" x2="132" y2="156.06" fill="none" stroke="#333" stroke-linecap="round" stroke-linejoin="round" stroke-width="8"/><line x1="96" y1="144.06" x2="96" y2="154.06" fill="none" stroke="#333" stroke-linecap="round" stroke-linejoin="round" stroke-width="8"/><path id="740ae13b-7f20-4921-9ad4-733a0a335395" data-name="b493255f-edd2-469b-8f82-6d8f944da046" d="M83.74,92.06" fill="none" stroke="#333" stroke-linecap="round" stroke-miterlimit="10" stroke-width="8"/><line id="c45be5bf-2d1d-4160-a721-0350962aa154" data-name="b493255f-edd2-469b-8f82-6d8f944da046" x1="84" y1="92.06" x2="44" y2="92.06" fill="none" stroke="#333" stroke-linecap="round" stroke-miterlimit="10" stroke-width="8"/><line id="6db5257e-3904-4711-ae26-abe6e94e784f" data-name="b493255f-edd2-469b-8f82-6d8f944da046" x1="84" y1="76.06" x2="44" y2="76.06" fill="none" stroke="#333" stroke-linecap="round" stroke-miterlimit="10" stroke-width="8"/><line id="609df5cd-5231-4b45-9f9d-bd1ecc62921f" data-name="b493255f-edd2-469b-8f82-6d8f944da046" x1="84" y1="60.06" x2="44" y2="60.06" fill="none" stroke="#333" stroke-linecap="round" stroke-miterlimit="10" stroke-width="8"/><line id="cbbf7d26-592f-4d0d-81ab-1f65ba0952d8" data-name="b493255f-edd2-469b-8f82-6d8f944da046" x1="84" y1="108.06" x2="52" y2="108.06" fill="none" stroke="#333" stroke-linecap="round" stroke-miterlimit="10" stroke-width="8"/><line id="fc7d0b35-edbc-4fc7-a7b8-fa8b83bec80b" data-name="b493255f-edd2-469b-8f82-6d8f944da046" x1="148" y1="92.06" x2="108" y2="92.06" fill="none" stroke="#333" stroke-linecap="round" stroke-miterlimit="10" stroke-width="8"/><line id="dda282fc-da1f-4a6c-8a76-02c44c517a3e" data-name="b493255f-edd2-469b-8f82-6d8f944da046" x1="148" y1="76.06" x2="108" y2="76.06" fill="none" stroke="#333" stroke-linecap="round" stroke-miterlimit="10" stroke-width="8"/><line id="be58f7bc-f76c-4f18-a0cf-1614bd7dae90" data-name="b493255f-edd2-469b-8f82-6d8f944da046" x1="148" y1="60.06" x2="108" y2="60.06" fill="none" stroke="#333" stroke-linecap="round" stroke-miterlimit="10" stroke-width="8"/><rect width="192" height="192" fill="none"/></svg>