<svg id="7fe14128-53db-42c6-9a48-641905e22a9b" data-name="ICON" xmlns="http://www.w3.org/2000/svg" width="192" height="192" viewBox="0 0 192 192"><title>TV_everywhere_home</title><path d="M89.51,39.53" fill="none" stroke="#333" stroke-linecap="round" stroke-linejoin="round" stroke-width="8"/><path id="e88dc49c-2f30-457d-9990-5d5b50178d61" data-name="68faea70-de1c-4ed4-abc7-939342b292b1" d="M92.32,107.55H102l-9.68-9.86V72.9H77.79V87.58L61.41,70.05c-2.59-2.79-8.34-2.68-10.82,0L10,107.55h9.68v51.56A4.87,4.87,0,0,0,24.53,164H43.84V132h24v32h18.5c2.68,0,6-2.8,6-5.51V107.55" fill="none" stroke="#333" stroke-linecap="round" stroke-linejoin="round" stroke-width="8"/><g id="6adaba08-f5a7-402c-bf19-07e9812ae4c7" data-name="39bbb6be-0d7a-4bfa-8252-1f40bf874658"><line x1="137.79" y1="148" x2="150.74" y2="148" fill="none" stroke="#333" stroke-linecap="round" stroke-linejoin="round" stroke-width="8"/><path d="M123.64,76h40.73c4.22,0,7.64,3.11,7.64,6.95v74.11c0,3.84-3.42,6.95-7.64,6.95H123.64c-4.22,0-7.64-3.11-7.64-6.95V82.95C116,79.11,119.42,76,123.64,76Z" fill="none" stroke="#333" stroke-linecap="round" stroke-linejoin="round" stroke-width="8"/></g><line id="65f97a5b-743a-4459-992a-8b447b362eb5" data-name="b493255f-edd2-469b-8f82-6d8f944da046" x1="103.37" y1="124" x2="93" y2="124" fill="none" stroke="#333" stroke-linecap="round" stroke-miterlimit="10" stroke-width="8"/><path d="M20.16,159.53V48c0-6.63,5.09-12,11.37-12H152.79c6.28,0,11.37,5.37,11.37,12V74" fill="none" stroke="#333" stroke-linecap="round" stroke-linejoin="round" stroke-width="8"/><line x1="113" y1="140" x2="93" y2="140" fill="none" stroke="#333" stroke-linecap="round" stroke-linejoin="round" stroke-width="8"/><rect width="192" height="192" fill="none"/></svg>