<svg id="f75753ab-88c6-4f9f-b165-473e1ee27a57" data-name="ICON" xmlns="http://www.w3.org/2000/svg" width="192" height="192" viewBox="0 0 192 192"><title>TV_for_you</title><path id="e14bab9f-febf-4004-aeb8-28bb9a8655d3" data-name="&lt;Pfad&gt;" d="M20.07,73.17" fill="none" stroke="#333" stroke-linecap="round" stroke-linejoin="round" stroke-width="8"/><path id="66660c34-4658-4918-9a0e-3ab52c8fcb7f" data-name="a81263fa-f966-4105-aec6-c72aa5bb390e" d="M128,124.38c-3.46-23.4-17.69-34.26-31.81-34.26S67.46,101,64,124.37" fill="none" stroke="#333" stroke-linecap="round" stroke-linejoin="round" stroke-width="8"/><circle id="d0fc1d0f-e6f0-4d56-b044-0e2051fd6d6b" data-name="f3f8aabf-e28d-4471-9027-cc0f6d5b2d2d" cx="96" cy="70.92" r="19.2" fill="none" stroke="#333" stroke-linecap="round" stroke-linejoin="round" stroke-width="8"/><path d="M48,72.64s11.42-5,12-13.4c.24-3.6-2.48-7.25-6.06-7.25a6.47,6.47,0,0,0-5.29,2.74c-.34.5-.56,0-.63.58-.07-.6-.29-.08-.63-.58A6.47,6.47,0,0,0,42.08,52c-3.59,0-6.3,3.64-6.06,7.25.56,8.42,12,13.4,12,13.4" fill="none" stroke="#333" stroke-linecap="round" stroke-linejoin="round" stroke-width="8"/><rect x="20" y="36" width="152" height="104" rx="8" ry="8" fill="none" stroke="#333" stroke-linecap="round" stroke-linejoin="round" stroke-width="8"/><line x1="60" y1="156" x2="132" y2="156" fill="none" stroke="#333" stroke-linecap="round" stroke-linejoin="round" stroke-width="8"/><line x1="96" y1="144" x2="96" y2="154" fill="none" stroke="#333" stroke-linecap="round" stroke-linejoin="round" stroke-width="8"/><rect width="192" height="192" fill="none"/></svg>