<svg id="446267ab-e52f-4201-b5cb-197aef7ca418" data-name="ICON" xmlns="http://www.w3.org/2000/svg" width="192" height="192" viewBox="0 0 192 192"><title>TV_multiscreen</title><path id="3b656871-e7d9-4492-89b9-0a04a5fea7dc" data-name="&lt;Pfad&gt;" d="M20.07,73.17" fill="none" stroke="#333" stroke-linecap="round" stroke-linejoin="round" stroke-width="8"/><g id="fa53412d-1b5c-45cc-80dd-d906eefd5a5d" data-name="4ef421e0-4349-46ff-a50f-a39b05861963"><g id="e5551712-3a0e-482e-9805-b5c19f6888ee" data-name="00dafce2-ab60-4106-b7f8-e9323f15d00b"><line id="48b48685-78fd-48da-8db8-d55891414500" data-name="a5755500-da1d-4911-836a-cb949d7ed657" x1="52" y1="140" x2="116" y2="140" fill="none" stroke="#333" stroke-linecap="round" stroke-linejoin="round" stroke-width="8"/></g><line x1="92" y1="140" x2="92" y2="124" fill="none" stroke="#333" stroke-linecap="round" stroke-linejoin="round" stroke-width="8"/></g><path d="M113,124H31.37C25.09,124,20,118.63,20,112V40c0-6.63,5.09-12,11.37-12H152.63C158.91,28,164,33.37,164,40V75" fill="none" stroke="#333" stroke-linecap="round" stroke-linejoin="round" stroke-width="8"/><g id="daa45e2b-0b25-4076-ba6c-7ba210faff3c" data-name="39bbb6be-0d7a-4bfa-8252-1f40bf874658"><line x1="137.79" y1="148" x2="150.74" y2="148" fill="none" stroke="#333" stroke-linecap="round" stroke-linejoin="round" stroke-width="8"/><path d="M123.64,76h40.73c4.22,0,7.64,3.11,7.64,6.95v74.11c0,3.84-3.42,6.95-7.64,6.95H123.64c-4.22,0-7.64-3.11-7.64-6.95V82.95C116,79.11,119.42,76,123.64,76Z" fill="none" stroke="#333" stroke-linecap="round" stroke-linejoin="round" stroke-width="8"/></g><rect width="192" height="192" fill="none"/></svg>