<svg id="a07d6236-ad35-45d0-96b4-aceff9e8d5e9" data-name="ICON" xmlns="http://www.w3.org/2000/svg" width="192" height="192" viewBox="0 0 192 192"><title>TV_PrimeTime</title><line x1="59.82" y1="163.76" x2="43.82" y2="83.76" fill="none" stroke="#333" stroke-linecap="round" stroke-miterlimit="10" stroke-width="8"/><line x1="80" y1="163.19" x2="75" y2="130.81" fill="none" stroke="#333" stroke-linecap="round" stroke-miterlimit="10" stroke-width="8"/><line x1="96" y1="163.19" x2="96" y2="130.81" fill="none" stroke="#333" stroke-linecap="round" stroke-miterlimit="10" stroke-width="8"/><line x1="112" y1="163.19" x2="117" y2="130.81" fill="none" stroke="#333" stroke-linecap="round" stroke-miterlimit="10" stroke-width="8"/><line x1="131.82" y1="163.76" x2="147.82" y2="83.76" fill="none" stroke="#333" stroke-linecap="round" stroke-miterlimit="10" stroke-width="8"/><line x1="59.82" y1="163.76" x2="131.82" y2="163.76" fill="none" stroke="#333" stroke-linecap="round" stroke-miterlimit="10" stroke-width="8"/><line x1="43.82" y1="83.76" x2="146.82" y2="83.76" fill="none" stroke="#333" stroke-linecap="round" stroke-miterlimit="10" stroke-width="8"/><line x1="71" y1="108.12" x2="68" y2="83.88" fill="none" stroke="#333" stroke-linecap="round" stroke-miterlimit="10" stroke-width="8"/><line x1="96" y1="108.12" x2="96" y2="83.88" fill="none" stroke="#333" stroke-linecap="round" stroke-miterlimit="10" stroke-width="8"/><line x1="121" y1="108.12" x2="124" y2="83.88" fill="none" stroke="#333" stroke-linecap="round" stroke-miterlimit="10" stroke-width="8"/><path d="M73,61c0-7.73-3.27-14-11-14A14,14,0,0,0,48,60.58C42.23,62.3,36.49,67.83,38,74c1.83,7.5,3.17,9.83,9,10" fill="none" stroke="#333" stroke-linecap="round" stroke-miterlimit="10" stroke-width="8"/><path d="M145,84c.35,0,.71,0,1.07,0,7.73,0,9.93-6.27,9.93-14a14,14,0,0,0-9.61-13.29,11,11,0,1,0-19.58-9.85A14,14,0,0,0,108,60v0" fill="none" stroke="#333" stroke-linecap="round" stroke-miterlimit="10" stroke-width="8"/><path d="M126,43c-5.54-4.7-10.6-6.59-18.35-7a14,14,0,0,0-26,10.22A33.88,33.88,0,0,0,72,70c0,5,1.07,6.74,3,11" fill="none" stroke="#333" stroke-linecap="round" stroke-miterlimit="10" stroke-width="8"/><rect width="192" height="192" fill="none"/></svg>