<svg id="19bdcad6-e61f-4d6d-8898-3bd2f262e99c" data-name="ICON" xmlns="http://www.w3.org/2000/svg" width="192" height="192" viewBox="0 0 192 192"><title>TV_storage</title><path id="5f82ae25-8355-43f1-8dcf-98776ac22c12" data-name="&lt;Pfad&gt;" d="M171.93,110.77" fill="none" stroke="#333" stroke-linecap="round" stroke-linejoin="round" stroke-width="8"/><path d="M80,131.94H32a12,12,0,0,1-12-12v-64a12,12,0,0,1,12-12H160a12,12,0,0,1,12,12v80a12,12,0,0,1-12,12H91l-11-16" fill="none" stroke="#333" stroke-linecap="round" stroke-linejoin="round" stroke-width="8"/><polyline points="60 108 60 68 44 80" fill="none" stroke="#333" stroke-linecap="round" stroke-linejoin="round" stroke-width="8"/><line x1="95.99" y1="68" x2="95.99" y2="108" fill="none" stroke="#333" stroke-linecap="round" stroke-linejoin="round" stroke-width="8"/><line x1="109" y1="68" x2="83" y2="68" fill="none" stroke="#333" stroke-linecap="round" stroke-linejoin="round" stroke-width="8"/><path d="M124,108V68s20-5,20,8c0,0,1,12-16,11,0,0,18,0,19,12C147,99,148,111,124,108Z" fill="none" stroke="#333" stroke-linecap="round" stroke-linejoin="round" stroke-width="8"/><rect width="192" height="192" fill="none"/></svg>