<svg id="02be3e63-f72b-49eb-8c36-6008ac7bbedf" data-name="ICON" xmlns="http://www.w3.org/2000/svg" width="192" height="192" viewBox="0 0 192 192"><title>TV_Time_flexible</title><circle cx="132" cy="88" r="16" fill="none" stroke="#333" stroke-miterlimit="10" stroke-width="8"/><path d="M67.74,81.51" fill="none" stroke="#333" stroke-linecap="round" stroke-linejoin="round" stroke-width="8"/><path d="M67.74,81.51" fill="none" stroke="#333" stroke-linecap="round" stroke-linejoin="round" stroke-width="8"/><path d="M44,73.72v28.43a2.47,2.47,0,0,0,2.33,2.5,2.4,2.4,0,0,0,1.55-.49l.34-.24L66.4,90.39l.54-.4a2.37,2.37,0,0,0,0-4l-.52-.39L48.28,72.15A2.47,2.47,0,0,0,44,73.92v.19" fill="none" stroke="#333" stroke-linecap="round" stroke-linejoin="round" stroke-width="8"/><line x1="84" y1="72" x2="84" y2="104" fill="none" stroke="#333" stroke-linecap="round" stroke-linejoin="round" stroke-width="8"/><line x1="100" y1="72" x2="100" y2="104" fill="none" stroke="#333" stroke-linecap="round" stroke-linejoin="round" stroke-width="8"/><rect x="20" y="36" width="152" height="104" rx="8" ry="8" fill="none" stroke="#333" stroke-linecap="round" stroke-linejoin="round" stroke-width="8"/><line x1="60" y1="156" x2="132" y2="156" fill="none" stroke="#333" stroke-linecap="round" stroke-linejoin="round" stroke-width="8"/><line x1="96" y1="144" x2="96" y2="154" fill="none" stroke="#333" stroke-linecap="round" stroke-linejoin="round" stroke-width="8"/><rect width="192" height="192" fill="none"/></svg>