<svg id="fb07239c-9a34-4f46-989e-5878f9eb6224" data-name="ICON" xmlns="http://www.w3.org/2000/svg" width="192" height="192" viewBox="0 0 192 192"><title>TV_UHD</title><path id="d72a6485-c602-4bdf-99d0-6d73f5f9df1a" data-name="&lt;Pfad&gt;" d="M20.07,73.23" fill="none" stroke="#333" stroke-linecap="round" stroke-linejoin="round" stroke-width="8"/><path d="M119.76,72.53v31.87s16.48,2.66,16.48-15.93S119.76,72.53,119.76,72.53Z" fill="none" stroke="#333" stroke-linecap="round" stroke-linejoin="round" stroke-width="8"/><line x1="87.76" y1="104.26" x2="87.76" y2="72.39" fill="none" stroke="#333" stroke-linecap="round" stroke-linejoin="round" stroke-width="8"/><line x1="103.83" y1="104.26" x2="103.83" y2="72.39" fill="none" stroke="#333" stroke-linecap="round" stroke-linejoin="round" stroke-width="8"/><line x1="87.76" y1="88.33" x2="99.81" y2="88.33" fill="none" stroke="#333" stroke-linecap="round" stroke-linejoin="round" stroke-width="8"/><path d="M72,72.06V94.18c0,5.61-3.64,10.16-8.14,10.16s-8.14-4.55-8.14-10.16V72.06" fill="none" stroke="#333" stroke-linecap="round" stroke-linejoin="round" stroke-width="8"/><line x1="172" y1="75.06" x2="133" y2="36.06" fill="none" stroke="#333" stroke-linecap="round" stroke-linejoin="round" stroke-width="8"/><rect x="20" y="36.06" width="152" height="104" rx="8" ry="8" fill="none" stroke="#333" stroke-linecap="round" stroke-linejoin="round" stroke-width="8"/><line x1="60" y1="156.06" x2="132" y2="156.06" fill="none" stroke="#333" stroke-linecap="round" stroke-linejoin="round" stroke-width="8"/><line x1="96" y1="144.06" x2="96" y2="154.06" fill="none" stroke="#333" stroke-linecap="round" stroke-linejoin="round" stroke-width="8"/><rect width="192" height="192" fill="none"/></svg>