<svg id="61c04790-eda2-43bd-863d-8df833de961e" data-name="ICON" xmlns="http://www.w3.org/2000/svg" width="192" height="192" viewBox="0 0 192 192"><title>unified-communication</title><g id="3322e770-63e4-465e-86e1-2a086b76c2fb" data-name="Unified_communications_ic 2"><path id="ac32b978-fa3b-4047-91db-47a7fe4effe7" data-name="&lt;Pfad&gt;" d="M77.59,129.57l12.77-5.2c3.19-.69,6.17-.27,7.62,1.27,2.2,2.34,20.32,23.13,21.84,24.95s1.37,5.78-2.22,8.72-19.43,14.09-24.39,12.55-25.71-7.74-54.14-57.63S16,43.51,17.2,38.49s19-12.77,23.39-14.31,7.87.45,8.67,2.6c.91,2.45,9.39,28.46,10.29,31.42.62,2-.58,4.79-2.83,7.14S45.45,76.6,45.45,76.6s2.26,8.45,12.77,26.87C60.54,107.55,77.59,129.57,77.59,129.57Z" transform="translate(0)" fill="none" stroke="#333" stroke-linecap="round" stroke-linejoin="round" stroke-width="8"/><rect width="192" height="192" fill="none"/><path id="e93586fc-1a92-43aa-94f3-47ad0a8b34a7" data-name="&lt;Pfad&gt;" d="M160.78,53.7l-1.49-.43a39.67,39.67,0,0,0-12.55-1.2A40.09,40.09,0,0,0,134.4,54.8a34.21,34.21,0,0,0-9.89,6A26.14,26.14,0,0,0,118,69.13,20.43,20.43,0,0,0,116,79a20.11,20.11,0,0,0,3,9.56,25.3,25.3,0,0,0,7.25,7.51,33.25,33.25,0,0,0,10.43,4.72,39.62,39.62,0,0,0,12.54,1.2l.41,0a35.24,35.24,0,0,0,4.47,2.58,33.92,33.92,0,0,0,5.88,2.2,32.5,32.5,0,0,0,7.17,1.11,34,34,0,0,0,8.34-.69s-8.76-5.07-9-10.3a32.14,32.14,0,0,0,5.76-4.28,26.86,26.86,0,0,0,4.33-5.2,22.34,22.34,0,0,0,2.65-5.91,19.92,19.92,0,0,0-2.28-16,24.09,24.09,0,0,0-4.42-5.27,41.42,41.42,0,0,0-11.78-6.53" transform="translate(0)" fill="none" stroke="#333" stroke-linecap="round" stroke-linejoin="round" stroke-width="8"/><path id="50ebae8a-eca3-4276-a2f7-a1cf1ad12541" data-name="&lt;Pfad&gt;" d="M157.11,52.77l.48-3.12c.91-6.31-3.19-12.28-3.19-12.28a32.54,32.54,0,0,0-9.32-9.66,42.8,42.8,0,0,0-13.41-6.07,51,51,0,0,0-16.13-1.54,51.53,51.53,0,0,0-15.88,3.51,44,44,0,0,0-12.72,7.68A33.62,33.62,0,0,0,78.63,42,26.29,26.29,0,0,0,76,54.71a25.36,25.36,0,0,0,1.74,8.06,28,28,0,0,0,4.15,7.14,33.43,33.43,0,0,0,6.21,6c2.37,1.77,7.32,3.92,10.2,5.18C94.6,89.84,85.87,95,85.87,95a43.81,43.81,0,0,0,10.75-.43A42.31,42.31,0,0,0,104,92.66s3-1.05,11.42-5.72l2.15-1.21" transform="translate(0)" fill="none" stroke="#333" stroke-linejoin="round" stroke-width="8"/></g></svg>