<svg id="de7f03a5-6890-4d47-b032-3f0ade142170" data-name="ICON" xmlns="http://www.w3.org/2000/svg" width="192" height="192" viewBox="0 0 192 192"><title>v-car-dongle</title><rect width="192" height="192" fill="none"/><path d="M96,132H43.77c-6.53,0-11.83-5-11.83-11.2L28,31.2C28,25,33.29,20,39.83,20H152.17C158.71,20,164,25,164,31.2l-3.94,89.6c0,6.19-5.29,11.2-11.83,11.2Z" transform="translate(0)" fill="none" stroke="#333" stroke-miterlimit="10" stroke-width="8"/><path d="M140,132v28a12,12,0,0,1-12,12H64a12,12,0,0,1-12-12V132" transform="translate(0)" fill="none" stroke="#333" stroke-miterlimit="10" stroke-width="8"/><line id="2de489b3-a39c-421d-b254-a6fa0e43f4e6" data-name="d7a92b62-0827-45d7-8f2c-84a2b6be56ea" x1="124" y1="156" x2="68" y2="156" fill="none" stroke="#333" stroke-linecap="round" stroke-linejoin="round" stroke-width="8"/></svg>