<svg id="8d7b491a-3bd4-4082-a62f-0aeaada600da" data-name="ICON" xmlns="http://www.w3.org/2000/svg" width="192" height="192" viewBox="0 0 192 192"><title>v-home-monitor</title><path d="M109.41,172H44a8,8,0,0,1-8-8V92H20L87.06,23.35c4.1-4.38,13.6-4.56,17.88,0L132,52V28h24V75.88L172,92H156v71c0,4.42-5.46,9-9.88,9H108" fill="none" stroke="#333" stroke-linecap="round" stroke-linejoin="round" stroke-width="8"/><rect width="192" height="192" fill="none"/><path id="26768631-d651-45f6-80c3-67b20eb7b30e" data-name="&lt;Path&gt;" d="M96,140c-31.19,0-43.25-29.53-43.8-30.9a3.9,3.9,0,0,1,0-2.48C52.75,105.52,64.81,76,96,76s43.25,29.53,43.8,30.91a3.87,3.87,0,0,1,0,2.47C139.25,110.47,127.19,140,96,140Z" fill="none" stroke="#333" stroke-linecap="round" stroke-linejoin="round" stroke-width="8"/><circle id="a0ed7921-6e9c-4c00-bb65-cb5ef459b6dd" data-name="&lt;Path&gt;" cx="96" cy="107.99" r="16" fill="none" stroke="#333" stroke-linecap="round" stroke-linejoin="round" stroke-width="8"/></svg>