<svg id="ac8745a2-a6e7-4e06-9818-b8101ae2f1e3" data-name="ICON" xmlns="http://www.w3.org/2000/svg" width="192" height="192" viewBox="0 0 192 192"><title>v-sim-and-device</title><rect width="192" height="192" fill="none"/><path d="M116,137a17.92,17.92,0,0,1-10,3H46a18,18,0,0,1-18-18V70A18,18,0,0,1,46,52h60a18,18,0,0,1,18,18V92" fill="none" stroke="#333" stroke-linecap="round" stroke-linejoin="round" stroke-width="8"/><path d="M48.35,52l3.34-26.74a6,6,0,0,1,6-5.26h36.7a6,6,0,0,1,6,5.26L103.65,52" fill="none" stroke="#333" stroke-linecap="round" stroke-linejoin="round" stroke-width="8"/><path d="M48.35,140l3.34,26.74a6,6,0,0,0,6,5.26h36.7a6,6,0,0,0,6-5.26L103.65,140" fill="none" stroke="#333" stroke-linecap="round" stroke-linejoin="round" stroke-width="8"/><path d="M116,166V98a6,6,0,0,1,6-6h26l16,16v58a6,6,0,0,1-6,6H122A6,6,0,0,1,116,166Z" fill="none" stroke="#333" stroke-linecap="round" stroke-linejoin="round" stroke-width="8"/><rect x="132" y="124" width="16" height="32" rx="4" ry="4" fill="none" stroke="#333" stroke-linecap="round" stroke-linejoin="round" stroke-width="8"/></svg>