<svg id="5bd4c870-fb9f-4288-b73d-3aa888408c71" data-name="ICON" xmlns="http://www.w3.org/2000/svg" width="192" height="192" viewBox="0 0 192 192"><title>vodafone-store</title><rect width="192" height="192" fill="none"/><path id="0cad1e5c-f14f-4a6c-8c9c-34f5967f74ff" data-name="&lt;Pfad&gt;" d="M145.6,69.12A14.63,14.63,0,0,0,158,76c8.09,0,14.16-6.56,14.16-14.66V58.1l-3.74-30.7a8.73,8.73,0,0,0-8.63-7.4H32.21a8.73,8.73,0,0,0-8.63,7.4L19.95,58.1l0,3.23C19.93,69.43,25.89,76,34,76a14.63,14.63,0,0,0,12.4-6.87" fill="none" stroke="#333" stroke-linecap="round" stroke-miterlimit="10" stroke-width="8"/><path d="M46.39,69.12a14.63,14.63,0,0,0,24.8,0" fill="none" stroke="#333" stroke-linecap="round" stroke-miterlimit="10" stroke-width="8"/><path d="M71.19,69.12a14.63,14.63,0,0,0,24.8,0" fill="none" stroke="#333" stroke-linecap="round" stroke-miterlimit="10" stroke-width="8"/><path d="M96,69.12a14.63,14.63,0,0,0,24.8,0" fill="none" stroke="#333" stroke-linecap="round" stroke-miterlimit="10" stroke-width="8"/><path d="M120.79,69.12a14.63,14.63,0,0,0,24.8,0" fill="none" stroke="#333" stroke-linecap="round" stroke-miterlimit="10" stroke-width="8"/><line x1="20.67" y1="52" x2="171.41" y2="52" fill="none" stroke="#333" stroke-linecap="round" stroke-linejoin="round" stroke-width="8"/><rect x="52" y="100" width="44" height="72" fill="none" stroke="#333" stroke-linecap="round" stroke-linejoin="round" stroke-width="8"/><rect x="96" y="100" width="44" height="72" fill="none" stroke="#333" stroke-linecap="round" stroke-linejoin="round" stroke-width="8"/><polyline points="28 74.67 28 172 164 172 164 74.67" fill="none" stroke="#333" stroke-linecap="round" stroke-linejoin="round" stroke-width="8"/></svg>