<svg id="4ff9b2f8-d799-4f67-9609-e1df9f64f0a8" data-name="ICON" xmlns="http://www.w3.org/2000/svg" width="192" height="192" viewBox="0 0 192 192"><title>voice-of-vodafone-alerts</title><line id="e5984d3b-a52b-4af8-9073-87a7141f5bd3" data-name="&lt;Pfad&gt;" x1="132" y1="60" x2="44" y2="60" fill="none" stroke="#333" stroke-linecap="round" stroke-miterlimit="10" stroke-width="8"/><line id="8ecce24a-284c-4d8b-9bc7-cd71786c7b7c" data-name="&lt;Pfad&gt;" x1="132" y1="84" x2="44" y2="84" fill="none" stroke="#333" stroke-linecap="round" stroke-miterlimit="10" stroke-width="8"/><line id="90564a2f-9ef5-49a6-b892-62b742e097cb" data-name="&lt;Pfad&gt;" x1="132" y1="108" x2="44" y2="108" fill="none" stroke="#333" stroke-linecap="round" stroke-miterlimit="10" stroke-width="8"/><path d="M44,164V132H32a12,12,0,0,1-12-12V48A12,12,0,0,1,32,36H142a12,12,0,0,1,12,12v72a12,12,0,0,1-12,12H78Z" fill="none" stroke="#333" stroke-linecap="round" stroke-linejoin="round" stroke-width="8"/><path d="M38,36V32A12,12,0,0,1,50,20H160a12,12,0,0,1,12,12v72a12,12,0,0,1-12,12h-6" fill="none" stroke="#333" stroke-linejoin="round" stroke-width="8"/><rect width="192" height="192" fill="none"/></svg>